SplineFontDB: 3.0
FontName: EBGaramondSC
FullName: EB Garamond Regular SmallCaps
FamilyName: EB Garamond SC
Weight: Regular
Copyright: Created by Georg Duffner with FontForge 2.0 (http://fontforge.sf.net)
UComments: "2010-5-17: Created." 
Version: 000.010
ItalicAngle: 0
UnderlinePosition: -100
UnderlineWidth: 50
Ascent: 710
Descent: 290
LayerCount: 2
Layer: 0 0 "Back"  1
Layer: 1 0 "Zeichenebene"  0
NeedsXUIDChange: 1
XUID: [1021 114 2024522534 13590131]
FSType: 0
OS2Version: 0
OS2_WeightWidthSlopeOnly: 0
OS2_UseTypoMetrics: 1
CreationTime: 1274079135
ModificationTime: 1319385660
PfmFamily: 17
TTFWeight: 400
TTFWidth: 5
LineGap: 90
VLineGap: 0
Panose: 2 0 5 2 0 0 0 0 0 0
OS2TypoAscent: 0
OS2TypoAOffset: 1
OS2TypoDescent: 0
OS2TypoDOffset: 1
OS2TypoLinegap: 90
OS2WinAscent: 0
OS2WinAOffset: 1
OS2WinDescent: 0
OS2WinDOffset: 1
HheadAscent: 0
HheadAOffset: 1
HheadDescent: 0
HheadDOffset: 1
OS2Vendor: 'PfEd'
Lookup: 1 0 0 "loclDEU"  {"loclDEU subtable"  } ['locl' ('latn' <'DEU ' > ) ]
Lookup: 1 0 0 "loclTRK"  {"loclTRK subtable"  } ['locl' ('latn' <'TRK ' 'AZE ' 'CRT ' > ) ]
Lookup: 1 0 0 "loclCAT"  {"loclCAT subtable"  } ['locl' ('latn' <'CAT ' > ) ]
Lookup: 1 0 0 "loclLAT"  {"loclLAT subtable"  } ['locl' ('latn' <'LAT ' > ) ]
Lookup: 4 0 0 "LATliga"  {"LATliga subtable"  } ['locl' ('latn' <'LAT ' > ) ]
Lookup: 1 0 0 "'lnum' Lining Figures lookup 5"  {"'lnum' Lining Figures lookup 5 subtable"  } ['lnum' ('latn' <'dflt' 'DEU ' 'TRK ' 'AZE ' 'CRT ' 'CAT ' 'LAT ' > 'grek' <'dflt' > 'cyrl' <'dflt' > 'DFLT' <'dflt' > ) ]
Lookup: 1 0 0 "'onum' Minuskelziffern lookup 6"  {"'onum' Minuskelziffern lookup 6 subtable" ("oldstyle" ) } ['onum' ('latn' <'dflt' 'DEU ' 'TRK ' 'AZE ' 'CRT ' 'CAT ' 'LAT ' > 'grek' <'dflt' > 'cyrl' <'dflt' > 'DFLT' <'dflt' > ) ]
Lookup: 1 0 0 "'tnum' Tabular Numbers lookup 7"  {"'tnum' Tabular Numbers lookup 7 subtable"  } ['tnum' ('latn' <'dflt' 'DEU ' 'TRK ' 'AZE ' 'CRT ' 'CAT ' 'LAT ' > 'grek' <'dflt' > 'cyrl' <'dflt' > 'DFLT' <'dflt' > ) ]

StartChar: a
Encoding: 97 97 0
Width: 549
Flags: W
HStem: -3 30<10.4417 77.3409 154.478 206.558 308.442 366.254 478.292 530.558> 139 36<190.819 324.633> 443 20G<295.5 299>
VStem: 10 137<5 73> 370 161<5 64.5>
AnchorPoint: "top_accent" 276 615 basechar 0
LayerCount: 2
Fore
SplineSet
508 27 m 0
 519.4766 24.69922 531 19 531 9 c 0
 531 1 518 -3 511 -3 c 0
 472 -3 458 2 423 2 c 0
 388 2 367 -3 328 -3 c 0
 321 -3 308 1 308 9 c 0
 308 19 319.668 24.0898 331 27 c 0
 359.0889 34.21191 370 36 370 58 c 0
 370 71 357.6909 105.8346 348 132 c 0
 346 138 343 139 329 139 c 2
 183 139 l 2
 175.2002 139 171 136 167 127 c 0
 153.0771 91.0322 147 81 147 65 c 0
 147 39 164 33 184 27 c 0
 195 23 207 19 207 9 c 0
 207 1 194 -3 187 -3 c 0
 148 -3 141 2 106 2 c 0
 71 2 69 -3 30 -3 c 0
 23 -3 10 1 10 9 c 0
 10 19 21.5811 23.4297 33 26 c 0
 64.0996 33 89.8147 36.1235 114 92 c 2
 230 360 l 2
 244.3036 393.0462 239.12603 407.1576 242 410 c 0
 251.10001 419 275 444 281 451 c 0
 289 460 294 463 297 463 c 0
 301 463 301.70801 459.8916 304 454 c 2
 439 107 l 2
 452.415 72.5176 468.0996 35 508 27 c 0
257 337 m 0
 240 295 213 233 191 185 c 0
 187 176 192 175 204 175 c 2
 320 175 l 2
 330 175 331 175 328 185 c 0
 321 212 282 306 271 337 c 0
 265 352 263 352 257 337 c 0
EndSplineSet
Validated: 1
EndChar

StartChar: t
Encoding: 116 116 1
Width: 550
Flags: W
HStem: -3 28<142.231 208.602 330.398 396.769> 406 44<77.0384 231.807 307.453 479.632>
VStem: 232 75<40.3738 403.942> 487 28<347.666 391.702>
AnchorPoint: "top_accent" 270 615 basechar 0
LayerCount: 2
Fore
SplineSet
232 79 m 6
 232 374 l 6
 232 406.4231 229.02051 406 196 406 c 6
 124 406 l 6
 103 406 75.7998 388 65.7998 371 c 4
 61.7998 363 52 350 42 350 c 4
 37 350 35 353 35 358 c 4
 35 369 41.7998 381 49 456 c 4
 50.44629 471.0635 59 471 62 471 c 4
 68 471 85 450 147 450 c 6
 390 450 l 6
 479 450 495 470 502 470 c 4
 507 470 511 464 511 459 c 4
 511 408 515 387 515 366 c 4
 515 362 511 346 503 347 c 4
 495 348 489 364 487 370 c 4
 483 387 466 406 422 406 c 4
 387 406 330 405 318 404 c 4
 309 403 307 387 307 374 c 6
 307 79 l 6
 307 43 338 32 373 25 c 4
 384 23 397 19 397 9 c 4
 397 1 384 -3 377 -3 c 4
 338 -3 311.7959 3 270 3 c 4
 227.8154 3 201 -3 162 -3 c 4
 155 -3 142 1 142 9 c 4
 142 19 155 23 166 25 c 4
 201 32 232 43 232 79 c 6
EndSplineSet
Validated: 33
EndChar

StartChar: l
Encoding: 108 108 2
Width: 470
Flags: W
HStem: -3 28<30.2309 96.5579> 3 31<198.48 374.183> 422 31<38.5723 99.9129 215.087 276.428>
VStem: 120 75<40.3738 407.586> 412 28<74.2656 111.185>
AnchorPoint: "top_accent" 159 615 basechar 0
LayerCount: 2
Fore
SplineSet
195 78 m 2xb8
 195 43 201 34 231 34 c 2
 329 34 l 2
 370 34 399 68 412 97 c 0
 414 101 421 112 430 112 c 0
 439 112 440 102 440 96 c 0
 437 69 424 32 418 10 c 0
 417 4 408 -2 401 -2 c 0
 302.3105 -2 217 3 148 3 c 1x78
 112 2 89 -3 50 -3 c 0
 43 -3 30 1 30 9 c 0
 30 19 43 23 54 25 c 0
 89 32 119.8682 43 120 79 c 2
 120 352 l 2
 120 393 104 415 62 422 c 0
 50 424 38 431 38 441 c 0
 38 449 51 453 58 453 c 0
 97 453 122 448 158 448 c 0
 193 448 218 453 257 453 c 0
 264 453 277 449 277 441 c 0
 277 431 265 424 253 422 c 0
 211 415 195 393 195 352 c 2
 195 78 l 2xb8
EndSplineSet
Validated: 1
Substitution2: "loclCAT subtable" l.CAT
EndChar

StartChar: o
Encoding: 111 111 3
Width: 616
Flags: W
HStem: -15 37<246.025 386.158> 433 32<230.837 363.98>
VStem: 60 90<125.783 314.029> 466 90<125.256 320.799>
AnchorPoint: "top_accent" 308 615 basechar 0
LayerCount: 2
Fore
SplineSet
296 433 m 0
 184 433 150 332 150 237 c 0
 150 120 206 22 318 22 c 0
 433 22 466 138 466 217 c 0
 466 318 416 433 296 433 c 0
60 222 m 0
 60 345 174 465 302 465 c 0
 435 465 556 362 556 226 c 0
 556 103 466 -15 302 -15 c 0
 169 -15 60 93 60 222 c 0
EndSplineSet
Validated: 1
EndChar

StartChar: h
Encoding: 104 104 4
Width: 640
Flags: W
HStem: -3 28<30.2309 96.6023 218.398 284.769 355.231 421.602 543.398 609.769> 216 37<195 445> 422 31<38.5723 98.8086 216.191 276.428 363.572 423.809 541.191 601.428>
VStem: 120 75<40.3738 216.419 252.766 407.322> 445 75<40.3738 216.327 252.627 407.059>
AnchorPoint: "top_accent" 330 615 basechar 0
LayerCount: 2
Fore
SplineSet
445 352 m 2
 445 391 429 415 387 422 c 0
 375 424 363 431 363 441 c 0
 363 449 376 453 383 453 c 0
 422 453 447 448 483 448 c 0
 518 448 543 453 582 453 c 0
 589 453 602 449 602 441 c 0
 602 431 590 424 578 422 c 0
 536 415 520 391 520 352 c 2
 520 79 l 2
 520 43 551 32 586 25 c 0
 597 23 610 19 610 9 c 0
 610 1 597 -3 590 -3 c 0
 551 -3 524.7959 3 483 3 c 0
 440.8154 3 414 -3 375 -3 c 0
 368 -3 355 1 355 9 c 0
 355 19 368 23 379 25 c 0
 414 32 445 43 445 79 c 2
 445 211 l 2
 445 216 443.49707 215.95312 441 216 c 0
 388 217 356 218 314 218 c 0
 279 218 243 217 198 216 c 0
 195.03027 215.9335938 195 214 195 209 c 2
 195 79 l 2
 195 43 226 32 261 25 c 0
 272 23 285 19 285 9 c 0
 285 1 272 -3 265 -3 c 0
 226 -3 199.7959 3 158 3 c 0
 115.8154 3 89 -3 50 -3 c 0
 43 -3 30 1 30 9 c 0
 30 19 43 23 54 25 c 0
 89 32 120 43 120 79 c 2
 120 352 l 2
 120 392 104 415 62 422 c 0
 50 424 38 431 38 441 c 0
 38 449 51 453 58 453 c 0
 97 453 122 448 158 448 c 0
 193 448 218 453 257 453 c 0
 264 453 277 449 277 441 c 0
 277 431 265 424 253 422 c 0
 211 415 195 392 195 352 c 2
 195 259 l 2
 195 254 200.45312 253.08887 205 253 c 0
 256 252 277 251 317 251 c 0
 351 251 396 252 440 253 c 0
 443.67871 253.0839844 445 255 445 261 c 2
 445 352 l 2
EndSplineSet
Validated: 1
EndChar

StartChar: i
Encoding: 105 105 5
Width: 315
Flags: W
HStem: -3 28<30.2309 96.6023 218.398 284.769> 422 31<38.5723 99.9129 215.087 276.428>
VStem: 120 75<40.3738 407.586>
AnchorPoint: "top_accent" 158 615 basechar 0
LayerCount: 2
Fore
SplineSet
158 3 m 0
 116 3 89 -3 50 -3 c 0
 43 -3 30 1 30 9 c 0
 30 19 43 23 54 25 c 0
 89 32 120 43 120 79 c 2
 120 352 l 6
 120 393 104 415 62 422 c 4
 50 424 38 431 38 441 c 4
 38 449 51 453 58 453 c 4
 97 453 122 448 158 448 c 4
 193 448 218 453 257 453 c 0
 264 453 277 449 277 441 c 0
 277 431 265 424 253 422 c 0
 211 415 195 393 195 352 c 2
 195 79 l 2
 195 43 226 32 261 25 c 0
 272 23 285 19 285 9 c 0
 285 1 272 -3 265 -3 c 0
 226 -3 200 3 158 3 c 0
EndSplineSet
Validated: 1
Substitution2: "loclTRK subtable" i.TRK
EndChar

StartChar: n
Encoding: 110 110 6
Width: 600
Flags: W
HStem: -14 21G<477.5 489.5> -3 28<34.2311 96.0853 182.753 241.769> 422 31<25.5725 88.744 373.572 433.809 516.406 574.428>
VStem: 116 51<37.6029 305.785> 123 39<81.6461 334.532> 455 44.9998<134.002 407.006>
AnchorPoint: "top_accent" 323 615 basechar 0
LayerCount: 2
Fore
SplineSet
500 351 m 2x6c
 500 21 l 2
 500 1 495 -14 484 -14 c 0
 471 -14 454.2363 -3.3037 441 13 c 2
 193.8 317.5 l 2
 185.2248 328.0625 173.0002 337 169.0002 337 c 0
 164.0002 337 162.0002 329 162.0002 310 c 0xac
 162.0002 220 162.800005 135 167.0002 79 c 0
 169.69258 43.1006 183.0002 32 218.0002 25 c 0
 229.0002 23 242.0002 19 242.0002 9 c 0
 242.0002 1 229.0002 -3 222.0002 -3 c 0
 183.0002 -3 172.677 3 141.0002 3 c 0
 106.9895 3 93.0002 -3 54.0002 -3 c 0
 47.0002 -3 34.0002 1 34.0002 9 c 0
 34.0002 19 47.0002 23 58.0002 25 c 0
 93.0002 32 112.8 42 116.0002 79 c 0x74
 118.58516 108.8887 123.0002 277 123.0002 308 c 0
 123.0002 367.5 115.8002 409 49.0002 422 c 0
 37.0587 424.32394 25.0002 431 25.0002 441 c 0
 25.0002 449 38.0002 453 45.0002 453 c 0
 85.0002 453 125.0002 449 177.0002 449 c 0
 185.0002 449 192.1066 441.07715 198.0002 434 c 2
 437.0002 147 l 2
 440.10176 143.0791 446.0002 134 450.0002 134 c 0
 452.0002 134 455.0002 137 455.0002 147 c 2
 455.0002 351 l 2
 455.0002 391 439.0002 415 397.0002 422 c 0
 385.0002 424 373.0002 431 373.0002 441 c 0
 373.0002 449 386.0002 453 393.0002 453 c 0
 432.0002 453 443.0002 448 479.0002 448 c 0
 514.0002 448 516.0002 453 555.0002 453 c 0
 562.0002 453 575.0002 449 575.0002 441 c 0
 575.0002 431 563.0002 424 551.0002 422 c 0
 509.0002 415 500.0002 391 500 351 c 2x6c
EndSplineSet
Validated: 1
EndChar

StartChar: m
Encoding: 109 109 7
Width: 707
Flags: W
HStem: -3 28<25.2309 78.8856 155.619 204.769 436.231 495.921 603.849 666.769> 422 31<56.5723 130.686 583.521 659.428>
VStem: 504 74<148.725 307.812> 507 160<5 194.317> 507 79<36.5875 313.751>
AnchorPoint: "top_accent" 345 615 basechar 0
LayerCount: 2
Fore
SplineSet
578 388 m 0xe0
 578 267 580 187.5 586 73 c 0xc8
 587.63281 41.8428 608 32 643 25 c 0
 654 23 667 19 667 9 c 0
 667 1 654 -3 647 -3 c 0
 608 -3 591.5674 3 556 3 c 0
 516.9297 3 495 -3 456 -3 c 0
 449 -3 436 1 436 9 c 0
 436 19 449 23 460 25 c 0
 495 32 507 42 507 70 c 0xd0
 507 163 507.46582 229.424 504 323 c 0
 503 339 496 336 490 323 c 2
 348 -1 l 2
 343.15039 -12.0664 337 -17 331 -17 c 0
 323 -17 316 -10 311 1 c 0
 262 104 227.3418 201.23 171 328 c 0
 167 337 162.88591 338.0108 162 328 c 0
 157 271.5 150 173 145 79 c 0
 145 61 146 32 181 25 c 0
 192 23 205 19 205 9 c 0
 205 1 192 -3 185 -3 c 0
 146 -3 144.2344 3 118 3 c 0
 89.4336 3 84 -3 45 -3 c 0
 38 -3 25 1 25 9 c 0
 25 19 38 23 49 25 c 0
 84 32 97.2891 57.3154 101 79 c 0
 117 172.5 140 357.5 140 387 c 0
 140 408.0576 122 415 80 422 c 0
 68 424 56 431 56 441 c 0
 56 449 69 453 76 453 c 0
 115 453 109 450 145 450 c 0
 175 450 174 452 188 452 c 0
 195 452 199 452 200 450 c 2
 348 106 l 2
 353.50391 93.207 358.2385 90.8926 364 104 c 0
 404 195 438 275 484 389 c 0
 493.38474 412.2578 504.002 446.8682 509 447 c 2
 547 448 l 2
 582 448 617 453 640 453 c 0
 647 453 660 449 660 441 c 0
 660 431 648 424 636 422 c 0
 594 415 578 414 578 388 c 0xe0
EndSplineSet
Validated: 33
EndChar

StartChar: p
Encoding: 112 112 8
Width: 470
Flags: W
HStem: -3 28<30.2309 96.6023 218.398 284.769> 185 30<240.784 309.199> 424 29<38.3271 95.2991 199.049 288.24>
VStem: 120 75<40.3738 407.586> 343 82<248.03 380.803>
AnchorPoint: "top_accent" 263 615 basechar 0
LayerCount: 2
Fore
SplineSet
195 79 m 2
 195 43 226 32 261 25 c 0
 272 23 285 19 285 9 c 0
 285 1 272 -3 265 -3 c 0
 226 -3 199.7959 3 158 3 c 0
 115.8154 3 89 -3 50 -3 c 0
 43 -3 30 1 30 9 c 0
 30 19 43 23 54 25 c 0
 89 32 120 43 120 79 c 2
 120 352 l 2
 120 393 104 415 62 422 c 0
 50 424 38 431 38 441 c 0
 38 449 51 453 58 453 c 0
 97 453 116 448 151 448 c 0
 179 448 215 453 256 453 c 0
 343 453 425 419 425 331 c 0
 425 241 367 185 277 185 c 0
 263 185 240 193 240 203 c 0
 240 213 262 215 272 215 c 0
 320 215 343 262 343 310 c 0
 343 373 299.1816 424 239 424 c 0
 213 424 195 416 195 395 c 2
 195 79 l 2
EndSplineSet
Validated: 1
EndChar

StartChar: b
Encoding: 98 98 9
Width: 509
Flags: W
HStem: -3 30<30.4459 101.285 218.195 315.045> 226 30<199.204 309.16> 421 32<38.7184 101.028 200.28 317.022>
VStem: 120 75<43.5079 223.627 256.822 407.586> 347 80<282.598 399.999> 369 90<67.6714 194.979>
LayerCount: 2
Fore
SplineSet
151 448 m 0xf4
 179 448 215 453 256 453 c 0
 356 453 427 424 427 349 c 0xf8
 427 290.8925 401.9179 265.8374 364 251 c 0
 361 250 360 245 364 244 c 0
 406 231 459 212 459 132 c 0
 459 37 366 -3 255 -3 c 0
 241 -3 178 3 148 3 c 0
 112 2 89 -3 50 -3 c 0
 43 -3 30 1 30 9 c 0
 30 19 42.9678 22.7998 54 25 c 0
 89.0996 32 120 43 120 79 c 2
 120 352 l 2
 120 393 104.0996 415 62 422 c 0
 50.2227 423.95801 38 431 38 441 c 0
 38 449 51 453 58 453 c 0
 97 453 116 448 151 448 c 0xf4
195 281 m 2
 195 261 209 256 228 256 c 0
 280 256 347 263 347 340 c 0
 347 379 334 421 256 421 c 0
 218 421 195 412 195 390 c 2
 195 281 l 2
233 226 m 0
 212 226 195 216 195 196 c 2
 195 86 l 2
 195 52 227 27 265 27 c 0
 318 27 369 72 369 129 c 0xf4
 369 209 315 226 233 226 c 0
EndSplineSet
Validated: 1
EndChar

StartChar: q
Encoding: 113 113 10
Width: 626
Flags: W
HStem: -222 44<590.008 770.475> 435 30<249.24 379.719>
VStem: 60 90<124.683 312.381> 476 90<130.707 332.474>
AnchorPoint: "top_accent" 308 615 basechar 0
LayerCount: 2
Fore
SplineSet
314 435 m 0
 210 435 150 339 150 241 c 0
 150 120 213 11 330 11 c 0
 437 11 476 121 476 220 c 0
 476 329 430 435 314 435 c 0
279 -35 m 0
 265.0744 -25.2492 239 -15 228 -13 c 0
 178 -1 60 90 60 207 c 0
 60 347 169 465 316 465 c 0
 439 465 566 371 566 247 c 0
 566 80 459 17 399 -7 c 0
 388 -11 375.7081 -16.15686 383 -23 c 0
 448 -84 582 -178 690 -178 c 0
 736.8211 -178 766 -169 773.2002 -169 c 0
 779.2002 -169 787.2002 -167 787.2002 -173 c 0
 787.2002 -185 778.09668 -198.1621 763.2002 -204 c 0
 734.3379 -215.3115 709 -222 649.0002 -222 c 0
 503.0002 -222 415.7982 -130.7873 279 -35 c 0
EndSplineSet
Validated: 1
EndChar

StartChar: d
Encoding: 100 100 11
Width: 603
Flags: W
HStem: -3 31<30.7279 102.381 224.602 339.756> 422 31<38.5723 99.9563 205.107 341.011>
VStem: 120 75<49.8843 407.586> 453 90<142.042 324.619>
AnchorPoint: "top_accent" 299 615 basechar 0
LayerCount: 2
Fore
SplineSet
151 448 m 1
 177 447 231 453 249 453 c 0
 432.7 453 543.7 405 543 236 c 0
 542.385432 87.628 405 -3 247 -3 c 0
 233.21 -3 182.3828 3 148 3 c 0
 112 2 89 -3 50 -3 c 0
 43 -3 30 1 30 9 c 0
 30 19 42.9678 22.7998 54 25 c 0
 89.0996 32 120 43 120 79 c 2
 120 352 l 2
 120 393 104.0996 415 62 422 c 0
 50.2227 423.95801 38 431 38 441 c 0
 38 449 51 453 58 453 c 0
 97 453 116 448 151 448 c 1
271 28 m 0
 384 28 453 121.82 453 225 c 0
 453 356.012 377.6496 422 252 422 c 0
 225.06 422 195 411 195 383 c 2
 195 91 l 2
 195 59 233.71 28 271 28 c 0
EndSplineSet
Validated: 33
EndChar

StartChar: r
Encoding: 114 114 12
Width: 540
Flags: W
HStem: -14 34<481.545 542.912> -1 28<30.8949 98.9756 208.45 268.769> 203 30<195.787 267.107> 424 29<38.3271 95.2991 196.656 298.203>
VStem: 120 75<40.3738 202.995 233.029 407.586> 355 80<275.547 383.106>
AnchorPoint: "top_accent" 251 615 basechar 0
LayerCount: 2
Fore
SplineSet
195 396 m 2x3c
 195 258 l 2
 195 234 204 233 220 233 c 0
 296 233 356 257 355 330 c 0
 355 393 290 424 229 424 c 0
 203 424 195 419 195 396 c 2x3c
195 79 m 2
 195 43 210 34 245 27 c 0
 256 25 269 21 269 11 c 0
 269 3 256 -1 249 -1 c 0x7c
 210 -1 193.5225 3.35701 158 3 c 0
 115.8174 2.576172 89 -3 50 -3 c 0
 43 -3 30 1 30 9 c 0
 30 19 43 23 54 25 c 0
 89 32 120 43 120 79 c 2
 120 352 l 2
 120 393 104 415 62 422 c 0
 50 424 38 431 38 441 c 0
 38 449 51 453 58 453 c 0
 97 453 116 448 151 448 c 0
 179 448 225 453 266 453 c 0
 353 453 435 428 435 340 c 1
 436 281 390.0059 244.3105 353 232 c 0
 347.30664 230.10645 344.40332 226.17676 346 222 c 0
 365.5 171 405.5 105 436.5 69 c 0
 458.1909 43.8106 509.5 22 526 20 c 0
 532.94922 19.157227 544 17 544 6 c 0
 544 -6 501 -14 470 -14 c 0xbc
 430 -14 395.5 5 370 36 c 0
 350.3553 59.8817 305 131 282.5 174 c 0
 274.65625 188.9912 245.5 203 215 203 c 0
 208 203 195 196 195 187 c 2
 195 79 l 2
EndSplineSet
Validated: 33
EndChar

StartChar: e
Encoding: 101 101 13
Width: 480
Flags: W
HStem: -3 28<30.2309 96.6023> 3 36<196.246 378.677> 211 33<196.154 313.133> 410 41<195 360.271> 422 31<38.5723 99.9129>
VStem: 120 75<40.3738 209.529 244 407.586> 322 28<156.894 200.255 253.5 297.882> 411 24<77.1074 111.748>
AnchorPoint: "top_accent" 247 615 basechar 0
LayerCount: 2
Fore
SplineSet
151 448 m 0xaf
 238.9093 448 336.297 451 382 451 c 0
 386 451 393.8203 450.095703 394 445 c 0
 395.7998 394 403.7998 366 404 353 c 0
 404.0615234 349 400 340 396 340 c 0
 391 340 382.3535 345.55859 377 358 c 0
 362.7998 391 352 410 317 410 c 2
 220 410 l 2
 212 410 195 405 195 392 c 2
 195 268 l 2
 195 261 200 244 206 244 c 2
 285 244 l 2
 306 244 313.8 257 322 281 c 0
 324.26322 287.62404 330 298 337 298 c 0
 345 298 350 289 349 283 c 0
 348 267 346 243 346 228 c 0
 346 210 349 192 350 173 c 0
 351 167 346 156 340 156 c 0
 328.2998 156 324 176 322 180 c 0
 316 201 301 205 290 207 c 0
 270.4346 209.44531 260.7559 211 240 211 c 0
 221 211 195 210 195 191 c 2
 195 80 l 2
 195 44 198 39 228 39 c 2
 328 39 l 2
 369 39 398 68 411 97 c 0
 413 101 416 112 425 112 c 0
 434 112 435 102 435 96 c 0
 432 69 424 32 418 10 c 0
 417 4 408 -2 401 -2 c 0
 302.3105 -2 217 3 148 3 c 1x77
 112 2 89 -3 50 -3 c 0
 43 -3 30 1 30 9 c 0
 30 19 43 23 54 25 c 0
 89 32 120 43 120 79 c 2
 120 352 l 2
 120 393 104 415 62 422 c 0
 50 424 38 431 38 441 c 0
 38 449 51 453 58 453 c 0
 97 453 116 448 151 448 c 0xaf
EndSplineSet
Validated: 1
EndChar

StartChar: c
Encoding: 99 99 14
Width: 560
Flags: W
HStem: -14 35<268.172 410.316> 427 31<257.542 413.635>
VStem: 60 90<137.876 314.032> 466 30<320.351 375.341>
AnchorPoint: "top_accent" 302 615 basechar 0
LayerCount: 2
Fore
SplineSet
338 458 m 0
 395 458 436 451 478 437 c 0
 490 433 495 371 496 340 c 0
 496 334 491 320 483 320 c 0
 474.94 320 472 331 466 346 c 0
 441 411 404 427 325 427 c 0
 225 427 150 339 150 239 c 0
 150 126 227 21 340 21 c 0
 389 21 451 49 476 99 c 0
 482 111 491 121 503 121 c 0
 508 121 510 119 510 109 c 0
 510 99 481 30 477 23 c 0
 470 10 387 -14 327 -14 c 0
 188 -14 60 83 60 222 c 0
 60 364 196 458 338 458 c 0
EndSplineSet
Validated: 1
EndChar

StartChar: u
Encoding: 117 117 15
Width: 600
Flags: W
HStem: -13 45<241.232 390.629> 422 31<30.5723 90.1758 201.406 259.428 380.572 438.527 512.685 569.428>
VStem: 110 75<94.3665 408.211> 452 44<110.008 410.818>
AnchorPoint: "top_accent" 313 615 basechar 0
LayerCount: 2
Fore
SplineSet
496 354 m 2
 496 231 l 2
 496 108.696 444 -13 299 -13 c 0
 160 -13 110 69 110 192 c 2
 110 352 l 2
 110 392.0127 96 415 54 422 c 0
 42 424 30 431 30 441 c 0
 30 449 43 453 50 453 c 0
 89 453 113 448 149 448 c 0
 184 448 201 453 240 453 c 0
 247 453 260 449 260 441 c 0
 260 431 248 424 236 422 c 0
 194 415 185 392.0127 185 352 c 2
 185 209 l 2
 185 88 228 32 320 32 c 0
 391 32 452 76 452 199 c 2
 452 352 l 2
 452 393 446 415 404 422 c 0
 392 424 380 431 380 441 c 0
 380 449 393 453 400 453 c 0
 439 453 436 448 472 448 c 0
 507 448 511 453 550 453 c 0
 557 453 570 449 570 441 c 0
 570 431 558 424 546 422 c 0
 504 415 496 388 496 354 c 2
EndSplineSet
Validated: 1
Substitution2: "loclLAT subtable" u.LAT
EndChar

StartChar: j
Encoding: 106 106 16
Width: 315
Flags: W
HStem: -175 43<9.5 99.9576> 422 31<38.5723 99.9129 215.087 276.428>
VStem: 120 75<-72.5025 407.639>
AnchorPoint: "top_accent" 158 615 basechar 0
LayerCount: 2
Fore
SplineSet
120 353 m 2
 120 393 104 415 62 422 c 0
 50 424 38 431 38 441 c 0
 38 449 51 453 58 453 c 0
 97 453 122 448 158 448 c 0
 193 448 218 453 257 453 c 0
 264 453 277 449 277 441 c 0
 277 431 265 424 253 422 c 0
 211 415 195 393 195 353 c 2
 195 136 l 2
 195 36 192 8 190 -9 c 0
 184 -53 171.4822 -91.4158 136 -128 c 0
 104.2676 -160.7178 58 -175 29 -175 c 0
 -10 -175 -54 -154 -54 -134 c 0
 -54 -110 -27 -83 -12 -83 c 0
 23 -83 37 -132 65 -132 c 0
 92 -132 115 -104 118 -52 c 0
 120 -17 120 18 120 45 c 2
 120 353 l 2
EndSplineSet
Validated: 1
EndChar

StartChar: s
Encoding: 115 115 17
Width: 430
Flags: W
HStem: -11 23<159.024 250.778> 433 25<186.822 272.213>
VStem: 60 29<83.515 132.064> 83 70<310.215 402.01> 290 80<57.7093 144.424> 324 32<332.474 387.166>
AnchorPoint: "top_accent" 223 615 basechar 0
LayerCount: 2
Fore
SplineSet
200 12 m 0xe8
 262 12 290 48 290 90 c 0xe8
 290 119 276.8189 143.9306 244 165 c 2
 166 215 l 2
 115.5094 247.4144 83 285 83 340 c 0
 83 417 164 458 241 458 c 0
 289 458 321 449 336 447 c 0
 343.38574 446.015625 348 439 349 433 c 0
 354 409 355 377 356 352 c 0
 356 346 351 332 343 332 c 0
 335 332 326 342 324 352 c 0
 306 415 257 433 232 433 c 0
 185 433 153 402 153 364 c 0xd4
 153 320 176.4838 304.9899 214 282 c 2
 299 230 l 2
 342.4846 203.3526 370 164 370 115 c 0
 370 60 306 -11 193 -11 c 0
 139 -11 113 2 88 7 c 0
 77 9 79 12 77 15 c 0
 69 31 61 85 60 110 c 0
 60 116 58 133 70 133 c 0
 82 133 85 116 89 108 c 0
 105 79 138 12 200 12 c 0xe8
EndSplineSet
Validated: 1
EndChar

StartChar: f
Encoding: 102 102 18
Width: 441
Flags: W
HStem: -3 30<30.4469 101.3 215.876 276.558> 211 33<196.154 313.133> 410 41<195 357.781> 422 31<38.5723 99.9129>
VStem: 120 75<41.125 209.529 244 407.586> 322 28<156.894 200.255 253.5 297.882> 369 27<341.469 393.959>
LayerCount: 2
Fore
SplineSet
195 79 m 2xee
 195 52 217.4 34.4 254 27 c 0
 265.4726 24.68041 277 19 277 9 c 0
 277 1 264 -3 257 -3 c 0
 218 -3 196 2 161 2 c 0
 126 2 89 -3 50 -3 c 0
 43 -3 30 1 30 9 c 0
 30 19 43 23 54 25 c 0
 89 32 120.1318 43 120 79 c 2
 120 352 l 2
 120 393 104 415 62 422 c 0
 50 424 38 431 38 441 c 0
 38 449 51 453 58 453 c 0xde
 97 453 116 448 151 448 c 0
 238.9092 448 336.297 451 382 451 c 0
 386 451 393.8203 450.095703 394 445 c 0
 395.7998 394 395.7998 366 396 353 c 0
 396.0615234 349 392 340 388 340 c 0
 383 340 372.7724 344.99164 369 358 c 0
 357.4 398 352 410 317 410 c 2
 220 410 l 2
 212 410 195 405 195 392 c 2
 195 268 l 2
 195 261 200 244 206 244 c 2
 285 244 l 2
 306 244 313.7998 257 322 281 c 0
 324.26367 287.62402 330 298 337 298 c 0
 345 298 350 289 349 283 c 0
 348 267 346 243 346 228 c 0
 346 210 349 192 350 173 c 0
 351 167 346 156 340 156 c 0
 328.2998 156 324 176 322 180 c 0
 316 201 301 205 290 207 c 0
 270.4346 209.44531 260.7559 211 240 211 c 0
 221 211 195 210 195 191 c 2
 195 79 l 2xee
EndSplineSet
Validated: 33
EndChar

StartChar: germandbls
Encoding: 223 223 21
Width: 514
VWidth: 0
Flags: W
HStem: -13 30<264.371 346.61> -1 20<9.80891 38.6136 154.14 181.824> 424 30<227.232 341.938>
VStem: 63 75<30.3555 333.436> 380 84<53.1929 183.848>
LayerCount: 2
Fore
SplineSet
286 -13 m 0xb8
 272 -13 251 -9 228 -4 c 0
 218 -2 220 1 218 4 c 0
 211 20 198 73 197 98 c 0
 197 103 203 109 211 109 c 0
 218 109 242 17 305 17 c 0xb8
 360 17 380 73.04 380 124 c 16
 380 164 362.354 187.127 330 206 c 16
 318 213 287 225 232 225 c 0
 229 225 215 225 220 232 c 0
 312 358 298.652 337.955 344 409 c 28
 346.456 412.848 350 417 340 420 c 4
 331 422 312 424 294 424 c 12
 246.005 424 213.235 409.441 182 373 c 28
 146.926 332.08 141.165 295.802 138 242 c 16
 136 208 136 140 138 81 c 0
 139 43 149 23 177 19 c 0
 185 18 184 -1 177 -1 c 0
 139 -1 128.21 1 97 1 c 24
 64.2305 1 45 -1 13 -1 c 8x78
 4.34082 -1 8 18 16 21 c 0
 38 27 63 33 63 75 c 0
 63 103 63 184 63 223 c 8
 63 298.637 92 367 130 405 c 4
 154 429 212.784 454 271 454 c 20
 331 454 406 437 431 428 c 4
 435 427 441 420 438 416 c 4
 432 408 414 385 404 371 c 4
 375 333 351.598 302.457 322 256 c 24
 320.012 252.88 321 247 325 247 c 8
 345.802 247 374 242 378 241 c 8
 431.728 227.568 464 185 464 128 c 8
 464 39.4395 393 -13 286 -13 c 0xb8
EndSplineSet
Validated: 33
EndChar

StartChar: v
Encoding: 118 118 22
Width: 550
Flags: W
HStem: 422 31<10.5723 74.0504 184.716 229.413 350.685 394.414 479.583 539.428>
VStem: 397 143<391 445>
AnchorPoint: "top_accent" 291 615 basechar 0
LayerCount: 2
Fore
SplineSet
182 399 m 0
 182 382 187.42128 358.3402 196 337 c 2
 277 136 l 2
 286.94679 111.2566 288.1349 112.3005 298 136 c 2
 385 345 l 2
 389.99584 357.0017 397 384 397 398 c 0
 397 410 383.1355 417.9326 374 422 c 0
 362.1239 427.28758 350 431 350 441 c 0
 350 449 363 453 370 453 c 0
 409 453 406 448 442 448 c 0
 477 448 481 453 520 453 c 0
 527 453 540 449 540 441 c 0
 540 431 527.7716 425.0708 516 422 c 0
 470 410 441.8691 382.6143 425 344 c 2
 295 51 l 2
 289.35156 38.2686 274 -15 264 -15 c 0
 258 -15 243.9971 35.6807 231 68 c 2
 118 349 l 2
 95.7616 403.0075 78 408 34 422 c 0
 22.4072 425.68863 10 431 10 441 c 0
 10 449 23 453 30 453 c 0
 69 453 83 448 119 448 c 0
 154 448 171 453 210 453 c 0
 217 453 230 449 230 441 c 0
 230 431 216.8329 423.9101 206 422 c 0
 201.07596 421.131759 182 410 182 399 c 0
EndSplineSet
Validated: 1
EndChar

StartChar: w
Encoding: 119 119 23
Width: 790
Flags: W
HStem: 422 31<10.5723 69.6006 176.202 214.413 235.572 279.138 374.255 409.37 430.691 468.397 541.906 599.428 615.572 665.695 734.485 789.428>
AnchorPoint: "top_accent" 374 615 basechar 0
LayerCount: 2
Fore
SplineSet
189 370 m 2
 319 100 l 2
 323.32086 90.98167 325.41602 91.11523 330 100 c 2
 382.0674 200.914 l 1
 302 370 l 2
 293.44141 388.0742 279 415 259 422 c 0
 247.5176 426.01885 235 431 235 441 c 0
 235 449 248 453 255 453 c 0
 265 453 314 448 328 448 c 0
 344 448 379 453 389 453 c 0
 396 453 410 449 410 441 c 0
 410 431 395.8329 423.9101 385 422 c 0
 374.1671 420.0899 367.3877 405.2842 384 370 c 2
 424.7559 283.4355 l 1
 468 370 l 2
 477.46973 388.9561 471 414 454 422 c 0
 442.2373 427.53516 430 431 430 441 c 0
 430 449 443 453 450 453 c 0
 465 453 488 448 503 448 c 0
 518 448 565 453 580 453 c 0
 587 453 600 449 600 441 c 0
 600 431 587.7773 425.0674 576 422 c 0
 561.4844 418.21875 528.2148 407.498 509 370 c 2
 443.3652 241.914 l 1
 508 100 l 2
 511.73047 91.80957 514.08105 92.55176 517 100 c 2
 662 370 l 2
 673.625 391.6465 675 414 639 422 c 0
 626.3096 424.82031 615 431 615 441 c 0
 615 449 628 453 635 453 c 0
 650 453 681 448 696 448 c 0
 711 448 760 453 770 453 c 0
 777 453 790 449 790 441 c 0
 790 431 777.7773 425.0674 766 422 c 0
 751.4844 418.21875 725.0488 408.041 705 370 c 2
 510 0 l 2
 504.35156 -12.7314 499 -15 489 -15 c 0
 483 -15 477.5439 -7.47559 474 0 c 2
 398.2783 159.737 l 1
 315 0 l 2
 308.56348 -12.3467 305 -15 295 -15 c 0
 289 -15 277.4141 5.5986 270 21 c 2
 102 370 l 2
 91.1585 392.5269 78 408 34 422 c 0
 22.4072 425.68863 10 431 10 441 c 0
 10 449 23 453 30 453 c 0
 69 453 83 448 119 448 c 0
 144 448 178 453 195 453 c 0
 202 453 215 449 215 441 c 0
 215 431 201.833 423.9102 191 422 c 0
 163.2666 417.11008 179.4595 389.8237 189 370 c 2
EndSplineSet
Validated: 33
EndChar

StartChar: y
Encoding: 121 121 24
Width: 510
Flags: W
HStem: -3 28<121.231 187.602 309.398 375.769> 421 31<4.57227 64.7955 165.787 223.413 311.056 354.75 423.778 498.944>
VStem: 211 75<40.3738 216.188>
AnchorPoint: "top_accent" 266 615 basechar 0
LayerCount: 2
Fore
SplineSet
211 79 m 2
 211 144 l 2
 211 171 203.88086 193.6621 199 200 c 2
 112 348 l 2
 82.1006 398.8633 72 407 28 421 c 0
 16.4072 424.68848 4 430 4 440 c 0
 4 448 17 452 24 452 c 0
 63 452 77 447 113 447 c 0
 148 447 165 452 204 452 c 0
 211 452 224 448 224 440 c 0
 224 430 210.833 422.9102 200 421 c 0
 177.8321 417.09138 153.667 412.51758 170 385 c 2
 262 230 l 2
 266.63281 221.1377 268.15234 221.25391 273 230 c 2
 354 385 l 2
 363.72656 403.6123 349.00134 415.3212 334 422 c 0
 322.124 427.28711 310 431 310 441 c 0
 310 449 323 453 330 453 c 0
 369 453 366 448 402 448 c 0
 437 448 441 453 480 453 c 0
 487 453 500 449 500 441 c 0
 500 431 487.7715 425.0713 476 422 c 0
 430 410 408.9449 405.8109 387 370 c 1
 318 246 l 2
 300.0056 213.6704 286 190 286 168 c 2
 286 79 l 2
 286 43 317 32 352 25 c 0
 363 23 376 19 376 9 c 0
 376 1 363 -3 356 -3 c 0
 317 -3 290.7959 3 249 3 c 0
 206.8154 3 180 -3 141 -3 c 0
 134 -3 121 1 121 9 c 0
 121 19 134 23 145 25 c 0
 180 32 211 43 211 79 c 2
EndSplineSet
Validated: 33
EndChar

StartChar: g
Encoding: 103 103 25
Width: 594
Flags: W
HStem: -13 30<275.332 395.904> 165 32<334.476 408.237> 427 31<248.784 396.777>
VStem: 60 90<137.418 318.809> 420 75<34.3725 155.771> 460 30<320.351 371.097>
AnchorPoint: "below_accent" 308 -99 basechar 0
AnchorPoint: "top_accent" 324 615 basechar 0
LayerCount: 2
Fore
SplineSet
420 80 m 2xf8
 420 124 l 2
 420 148.5 396 162.5 362 165 c 0
 347.608 166.05824 334 173.8 334 184 c 0
 334 194 348 197 356 197 c 0
 389 197 412 194 450 194 c 0
 476.9551 194 494 198 519 198 c 0
 530 198 544 193 544 184 c 0
 544 172.6631 530.3564 168.3428 522 165 c 0
 507.1445 159.05859 495 149.5 495 130 c 2
 495 72 l 2xf8
 495 46.5 516 42 516 34 c 0
 516 29 506.03711 20.2812 497 16 c 0
 478 7 425.2998 -13 327 -13 c 0
 187 -14 60 83 60 222 c 0
 60 364 186 458 328 458 c 0
 385 458 425.9933 450.97378 468 437 c 0
 473.69326 435.10611 488 370 490 340 c 0
 490.399414 334.01367 485 320 477 320 c 0
 468.94043 320 466.8922 331.3885 460 346 c 0xf4
 435 399 394 427 315 427 c 0
 215 427 150 339 150 239 c 0
 150 126 227 17 340 17 c 0
 389 17 420 38 420 80 c 2xf8
EndSplineSet
Validated: 33
EndChar

StartChar: P
Encoding: 80 80 26
Width: 552
Flags: W
HStem: -5 29<24.6924 100.631 239.305 309.308> 254 26<258.314 361.048> 622 31<37.0745 105.304> 630 27<222.831 344.136>
VStem: 130 80<45.1651 603.448> 449 88<375.554 548.301>
AnchorPoint: "below_accent" 170 -100 basechar 0
AnchorPoint: "top_accent" 286 700 basechar 0
LayerCount: 2
Fore
SplineSet
183 2 m 0xdc
 132 2 107 -5 53 -5 c 0
 36 -5 24 -2 24 6 c 0
 24 15 34 20 57 24 c 0
 107 33 130 51 130 100 c 2
 130 522 l 2
 130 582 119 613 69 622 c 0
 46 626 36 633 36 642 c 0
 36 650 48 653 65 653 c 0xec
 119 653 122 652 163 652 c 0
 203 652 246 657 274 657 c 0
 420 657 537 596 537 460 c 0
 537 415 507 338 463 304 c 0
 418 269 356 254 308 254 c 0
 297 254 286 255 276 257 c 0
 263 260 258 264 258 269 c 0
 258 275 265 280 272 280 c 2
 274 280 l 1
 281 279 287 279 294 279 c 0
 329 279 365 291 386 307 c 0
 433 343 449 414 449 474 c 0
 449 584 349 630 274 630 c 0
 236 630 210 618 210 588 c 2
 210 111 l 2
 210 63 227 33 277 24 c 0
 300 20 310 15 310 6 c 0
 310 -2 298 -5 281 -5 c 0
 227 -5 221 2 183 2 c 0xdc
EndSplineSet
Validated: 1
EndChar

StartChar: M
Encoding: 77 77 27
Width: 901
Flags: W
HStem: -10 21G<399.5 404> -5 29<19.6924 82.5 196.62 261.308 585.692 653.169 789.765 864.308> 623 33<42.7778 120.744 771.253 841.562>
VStem: 657 78<325.525 479.996> 669 88<45.3904 347.143>
AnchorPoint: "below_accent" 406 -100 basechar 0
AnchorPoint: "top_accent" 449 700 basechar 0
LayerCount: 2
Fore
SplineSet
735 568 m 0x70
 735 382 749 246 757 95 c 0
 759 54 782 33 832 24 c 0
 855 20 865 15 865 6 c 0
 865 -2 853 -5 836 -5 c 0
 782 -5 765 0 719 0 c 0
 678 0 668 -5 614 -5 c 0
 597 -5 585 -2 585 6 c 0
 585 15 595 21 618 24 c 0
 657 29 669 49 669 96 c 0x68
 669 240 663 329 657 464 c 0
 657 475 655 480 652 480 c 0
 650 480 646 474 641 464 c 2
 419 14 l 2
 411 -3 406 -10 402 -10 c 0xb0
 397 -10 393 1 388 16 c 0
 336 172 284 296 209 471 c 0
 203 485 198 486 196 471 c 0
 177 330 164 238 164 102 c 0
 164 76 180 33 229 24 c 0
 252 20 262 15 262 6 c 0
 262 -2 250 -5 233 -5 c 0
 179 -5 176 0 139 0 c 0
 103 0 102 -5 48 -5 c 0
 31 -5 19 -2 19 6 c 0
 19 15 29 20 52 24 c 0
 102 33 112 89 114 102 c 0
 138 282 155 454 155 538 c 0
 155 548 154 555 154 561 c 0
 154 572 150 580 139 593 c 0
 119 616 80 621 56 627 c 0
 50 629 42 635 42 644 c 0
 42 654 59 655 65 655 c 0
 102 655 205 647 231 647 c 0
 249 647 257 581 267 554 c 2
 425 153 l 2
 429 143 433 138 437 138 c 0
 440 138 444 142 448 150 c 2
 645 560 l 2
 660 592 658 648 673 648 c 2
 709 648 l 2
 752 648 800 656 820 656 c 2
 823 656 l 2
 829 656 844 655 844 646 c 0
 844 635 824 625 818 623 c 0
 784 613 735 600 735 568 c 0x70
EndSplineSet
Validated: 1
EndChar

StartChar: N
Encoding: 78 78 28
Width: 770
Flags: W
HStem: -5 29<23.6924 80.8125 197.412 265.308> 620 38<2.28223 77.8053 542 559 674.647 759.991>
VStem: 132 37<306.848 499.991> 621 43<136.004 599.75>
AnchorPoint: "below_accent" 405 -100 basechar 0
AnchorPoint: "top_accent" 411 700 basechar 0
LayerCount: 2
Fore
SplineSet
616 650 m 2
 664 650 670 653 731 653 c 0
 748 653 760 650 760 642 c 0
 760 633 750 626 727 622 c 0
 677 613 665 601 664 568 c 0
 663 544 662 63 662 8 c 0
 662 -13 651 -17 641 -17 c 0
 629 -17 592 2 560 46 c 0
 542 71 227 456 204 484 c 0
 194 496 188 500 183 500 c 0
 176 500 174 487 174 479 c 0
 172 380 169 227 169 104 c 0
 169 68 183 33 233 24 c 0
 256 20 266 15 266 6 c 0
 266 -2 254 -5 237 -5 c 0
 183 -5 180 0 143 0 c 0
 107 0 106 -5 52 -5 c 0
 35 -5 23 -2 23 6 c 0
 23 15 33 20 56 24 c 0
 94 31 112 94 114 107 c 0
 123 182 132 342 132 507 c 0
 132 578 92 601 33 620 c 0
 27 622 2 632 2 644 c 0
 2 656 18 658 25 658 c 0
 103 656 107 653 179 653 c 0
 191 653 196 645 203 636 c 0
 222 609 564 180 584 156 c 0
 589 150 601 136 609 136 c 0
 614 136 618 142 619 157 c 0
 620 189 621 365 621 477 c 2
 621 564 l 1
 620 590 585 615 563 619 c 0
 540 623 530 630 530 639 c 0
 530 647 542 650 559 650 c 2
 616 650 l 2
EndSplineSet
Validated: 1
EndChar

StartChar: R
Encoding: 82 82 29
Width: 689
Flags: W
HStem: -21 46<603.627 713.254> -5 29<24.6924 100.631 240.775 309.308> 627 30<36.0088 96.507 226.614 346.609>
VStem: 130 80<46.2739 302.04 331.373 603.448> 412 90<411.692 573.392>
AnchorPoint: "below_accent" 374 -100 basechar 0
AnchorPoint: "top_accent" 283 700 basechar 0
LayerCount: 2
Fore
SplineSet
210 364 m 0x38
 210 331 230 329 263 329 c 0
 317 329 343 346 367 368 c 0
 395 395 412 431 412 489 c 0
 412 546 391 627 278 627 c 0
 223 627 215 603 214 573 c 0
 211 500 210 444 210 364 c 0x38
637 -21 m 0xb8
 580 -21 534 -10 499 33 c 0
 450 93 416 129 347 241 c 0
 336 259 324 270 304 280 c 0
 275 294 243 300 225 302 c 0
 214 303 210 294 210 282 c 2
 210 110 l 2
 210 67 227 33 277 24 c 0
 300 20 310 15 310 6 c 0
 310 -2 298 -5 281 -5 c 0
 227 -5 221 2 183 2 c 0
 132 2 107 -5 53 -5 c 0
 36 -5 24 -2 24 6 c 0
 24 15 34 20 57 24 c 0x78
 107 33 130 51 130 100 c 2
 130 522 l 2
 130 582 119 613 69 622 c 0
 46 626 36 633 36 642 c 0
 36 650 48 653 65 653 c 0
 119 653 122 652 163 652 c 0
 201 652 220 657 278 657 c 0
 424 657 502 598 502 489 c 0
 502 444 473 394 458 379 c 0
 437 359 397 327 385 321 c 0
 380 319 381 318 385 312 c 0
 447 218 493 143 588 58 c 0
 624 26 656 25 703 25 c 0
 713 25 718 22 718 14 c 0
 718 -15 662 -21 637 -21 c 0xb8
EndSplineSet
Validated: 1
EndChar

StartChar: B
Encoding: 66 66 30
Width: 578
Flags: W
HStem: -5 29<19.6924 97.1038> -4 41<227.525 361.026> 343 28<219.429 332.234> 627 30<30.0088 97.7124 217.08 343.047>
VStem: 130 78<56.5698 331.718 372.963 605.73> 410 86<428.462 576.092> 443 94<115.164 267.324>
AnchorPoint: "below_accent" 272 -100 basechar 0
AnchorPoint: "top_accent" 257 700 basechar 0
LayerCount: 2
Fore
SplineSet
208 408 m 2x3c
 208 373 221 374 238 372 c 0
 242 372 247 371 254 371 c 0
 280 371 325 376 365 400 c 0
 379 408 410 437 410 495 c 0
 410 552 387 627 274 627 c 0
 219 627 208 612 208 582 c 2
 208 473 l 1
 208 408 l 2x3c
178 0 m 0
 126 0 106 -5 48 -5 c 0
 31 -5 19 -2 19 6 c 0
 19 15 29 20 52 24 c 0
 102 33 130 51 130 99 c 2
 130 549 l 2
 130 597 113 613 63 622 c 0
 40 626 30 633 30 642 c 0
 30 650 42 653 59 653 c 0
 113 653 122 652 163 652 c 0
 201 652 216 657 274 657 c 0
 420 657 496 617 496 508 c 0xbc
 496 463 477 427 462 412 c 0
 441 392 428 382 395 369 c 0
 390 367 389 361 395 359 c 0
 455 340 537 310 537 194 c 0
 537 84 474 51 433 30 c 0
 391 9 339 -4 273 -4 c 0x7a
 255 -4 218 0 178 0 c 0
443 189 m 0x7a
 443 266 396 303 369 318 c 0
 351 328 315 343 265 343 c 0
 247 343 228 338 219 332 c 0
 210 326 209 319 208 307 c 0
 207 289 207 268 207 247 c 0
 207 198 209 145 210 108 c 0
 211 90 215 68 227 56 c 0
 238 45 262 37 287 37 c 0
 365 37 443 103 443 189 c 0x7a
EndSplineSet
Validated: 1
EndChar

StartChar: A
Encoding: 65 65 31
Width: 684
Flags: W
HStem: -5 36<-0.573315 70.1888 195.015 266.525 401.311 474.5 612.158 694.277> 244 43<241.006 430.822>
AnchorPoint: "cedilla" 124 8 basechar 0
AnchorPoint: "ogonek" 508 18 basechar 0
AnchorPoint: "below_accent" 334 -100 basechar 0
AnchorPoint: "top_accent" 363 700 basechar 0
LayerCount: 2
Fore
SplineSet
668 -5 m 0
 640 -5 574 1 529 1 c 0
 490 1 454 0 430 0 c 0
 413 0 401 3 401 11 c 0
 401 20 416 26 434 31 c 0
 474 41 485 54 485 76 c 0
 485 84 483 94 481 105 c 0
 474 139 463 191 452 233 c 0
 449 243 444 244 424 244 c 2
 233 244 l 2
 223 244 220 240 216 226 c 2
 178 102 l 2
 176 97 176 92 176 87 c 0
 176 58 202 38 234 30 c 0
 257 24 267 19 267 10 c 0
 267 2 255 -1 238 -1 c 0
 220 -1 184 1 147 1 c 0
 103 1 60 -5 27 -5 c 0
 10 -5 -2 0 -2 8 c 0
 -2 17 9 24 31 31 c 0
 65 41 95 58 117 108 c 0
 192 279 237 393 304 578 c 0
 307 587 311 596 314 608 c 0
 317 619 316 635 318 636 c 0
 330 640 342 643 354 651 c 0
 368 660 370 676 375 676 c 0
 380 676 382 671 385 662 c 0
 449 459 530 223 563 128 c 0
 591 48 624 35 664 28 c 0
 687 24 697 14 697 5 c 0
 697 -3 685 -5 668 -5 c 0
333 542 m 2
 243 302 l 2
 242 299 241 297 241 295 c 0
 241 288 249 287 262 287 c 2
 417 287 l 2
 427 287 431 287 431 292 c 0
 431 294 430 298 429 302 c 2
 350 541 l 2
 346 553 344 559 341 559 c 0
 339 559 337 553 333 542 c 2
EndSplineSet
Validated: 513
EndChar

StartChar: C
Encoding: 67 67 32
Width: 640
Flags: W
HStem: -15 31<326.024 481.156> 632 31<314.682 483.324>
VStem: 46 100<217.847 434.419> 576 37<473.764 560.679>
AnchorPoint: "cedilla" 426 8 basechar 0
AnchorPoint: "below_accent" 404 -100 basechar 0
AnchorPoint: "top_accent" 381 700 basechar 0
LayerCount: 2
Fore
SplineSet
586 137 m 0
 592 148 606 152 611 156 c 0
 612 157 612 157 613 157 c 0
 617 157 620 147 620 138 c 0
 620 135 619 132 619 130 c 0
 615 105 601 49 586 26 c 0
 581 18 561 16 537 5 c 0
 503 -11 429 -15 369 -15 c 0
 187 -15 46 141 46 323 c 0
 46 517 216 663 410 663 c 0
 442 663 498 657 516 651 c 0
 534 645 572 636 592 633 c 0
 600 632 604 617 605 603 c 0
 609 572 612 546 613 494 c 0
 614 485 612 470 602 471 c 0
 591 472 580 485 576 508 c 1
 571 548 553 570 541 581 c 0
 531 591 486 632 394 632 c 0
 247 632 146 494 146 347 c 0
 146 184 244 16 400 16 c 0
 512 16 560 86 586 137 c 0
EndSplineSet
Validated: 1
EndChar

StartChar: I
Encoding: 73 73 33
Width: 340
Flags: W
HStem: -5 29<19.6924 97.1038 243.602 321.308> 622 31<31.0745 107.441 235.205 312.926>
VStem: 130 80<46.75 604.158>
AnchorPoint: "ogonek" 206 18 basechar 0
AnchorPoint: "below_accent" 181 -100 basechar 0
AnchorPoint: "top_accent" 181 700 basechar 0
LayerCount: 2
Fore
SplineSet
130 550 m 2
 130 597 113 613 63 622 c 0
 40 626 30 633 30 642 c 0
 30 650 42 653 59 653 c 0
 113 653 130 650 176 650 c 0
 219 650 231 653 285 653 c 0
 302 653 314 650 314 642 c 0
 314 633 304 626 281 622 c 0
 231 613 210 597 210 550 c 2
 210 98 l 2
 210 51 239 33 289 24 c 0
 312 20 322 15 322 6 c 0
 322 -2 310 -5 293 -5 c 0
 239 -5 222 0 176 0 c 0
 126 0 102 -5 48 -5 c 0
 31 -5 19 -2 19 6 c 0
 19 15 29 20 52 24 c 0
 102 33 130 51 130 98 c 2
 130 550 l 2
EndSplineSet
Validated: 1
EndChar

StartChar: T
Encoding: 84 84 34
Width: 670
Flags: W
HStem: -5 29<185.692 261.52 411.207 487.308> 604 38<106.512 292.507 378.966 603.53>
VStem: 296 80<48.375 600.468> 619 35<517.175 586.637>
AnchorPoint: "cedilla" 356 18 basechar 0
AnchorPoint: "below_accent" 334 -100 basechar 0
AnchorPoint: "top_accent" 341 700 basechar 0
LayerCount: 2
Fore
SplineSet
376 102 m 2
 376 54 405 33 455 24 c 0
 478 20 488 15 488 6 c 0
 488 -2 476 -5 459 -5 c 0
 405 -5 388 0 342 0 c 0
 292 0 268 -5 214 -5 c 0
 197 -5 185 -2 185 6 c 0
 185 15 195 20 218 24 c 0
 268 33 296 54 296 102 c 2
 296 557 l 2
 296 575 294 597 278 600 c 0
 259 604 238 604 204 604 c 2
 157 604 l 2
 125 604 89 591 75 565 c 0
 69 554 49 527 34 527 c 0
 29 527 27 533 27 540 c 0
 27 546 29 554 32 560 c 0
 50 598 57 629 63 671 c 0
 66 693 75 694 80 694 c 0
 85 694 99 673 105 662 c 0
 113 648 147 642 175 642 c 2
 556 642 l 2
 585 642 604 649 614 656 c 0
 634 670 649 692 664 692 c 0
 668 692 671 679 671 669 c 0
 671 666 670 662 670 660 c 0
 661 623 654 587 654 561 c 2
 654 549 l 2
 654 537 648 517 638 517 c 0
 628 517 624 532 619 558 c 0
 614 586 591 604 527 604 c 0
 475 604 410 602 392 600 c 0
 378 598 376 575 376 557 c 2
 376 102 l 2
EndSplineSet
Validated: 1
EndChar

StartChar: E
Encoding: 69 69 35
Width: 535
Flags: W
HStem: -5 40<228 455.39> -5 29<23.6924 99.9253> 320 32<210.253 367.094> 388 20G<400.5 405.5> 618 35<32.1729 114.247 219.165 433.859>
VStem: 130 80<51.352 319.809 352 605.889> 383 32<253.771 304.565> 466 25<526.084 573.315>
AnchorPoint: "cedilla" 322 8 basechar 0
AnchorPoint: "ogonek" 450 18 basechar 0
AnchorPoint: "below_accent" 280 -100 basechar 0
AnchorPoint: "top_accent" 287 701 basechar 0
LayerCount: 2
Fore
SplineSet
458 653 m 0x7f
 465 653 475 651 476 644 c 0
 483 606 491 568 491 541 c 0
 491 529 483 526 477 526 c 0
 470 526 468 529 466 536 c 0
 459 558 453 581 444 591 c 0
 425 612 402 618 377 618 c 2
 246 618 l 2
 235 618 216 604 214 588 c 0
 213 579 210 423 210 374 c 0
 210 363 210 352 220 352 c 2
 324 352 l 2
 353 352 375 368 385 391 c 0
 387 396 398 408 403 408 c 0
 408 408 416 402 416 392 c 0
 416 383 413 353 413 337 c 0
 413 317 415 277 415 269 c 0
 415 260 414 252 406 252 c 0
 393 252 385 268 383 275 c 0
 373 306 354 320 337 320 c 2
 244 320 l 2
 219 320 208 320 210 291 c 1
 210 230 212 170 213 113 c 0
 214 62 231 35 276 35 c 2
 380 35 l 2xbf
 430 35 443 43 456 53 c 0
 474 67 490 99 498 116 c 0
 502 124 505 127 512 126 c 0
 519 125 525 123 525 115 c 0
 525 97 515 38 508 12 c 0
 506 3 502 -5 494 -5 c 0
 366 -5 267 1 167 1 c 0
 122 1 106 -5 52 -5 c 0
 35 -5 23 -2 23 6 c 0
 23 15 33 20 56 24 c 0
 106 33 130 51 130 99 c 2
 130 549 l 2
 130 597 113 613 63 622 c 0
 40 626 30 633 30 642 c 0
 30 650 42 653 59 653 c 0
 134 653 166 650 236 650 c 0
 327 650 448 653 458 653 c 0x7f
EndSplineSet
Validated: 33
EndChar

StartChar: L
Encoding: 76 76 36
Width: 574
Flags: W
HStem: -5 40<220.001 480.636> -5 29<27.3563 94.228> 622 31<37.0745 116.488 238.822 330.926>
VStem: 130 80<47.25 603.136> 541 34<139.048 159.894>
AnchorPoint: "cedilla" 183 8 basechar 0
AnchorPoint: "below_accent" 314 -100 basechar 0
AnchorPoint: "top_accent" 186 700 basechar 0
LayerCount: 2
Fore
SplineSet
210 567 m 2x78
 210 96 l 2
 210 55 221 35 287 35 c 2
 433 35 l 2xb8
 438 35 471 45 489 61 c 0
 515 84 524 96 541 132 c 0
 544 140 554 162 563 162 c 0
 571 162 575 152 575 144 c 0
 575 142 574 140 574 139 c 0
 560 87 551 54 547 12 c 0
 546 3 543 -5 533 -5 c 0
 399 -5 290 0 190 0 c 0
 140 0 55 -5 55 -5 c 2
 37 -5 27 0 27 7 c 0
 27 19 45 23 49 24 c 0
 101 34 130 52 130 96 c 2
 130 560 l 2
 130 608 119 613 69 622 c 0
 46 626 36 633 36 642 c 0
 36 650 48 653 65 653 c 0
 119 653 133 650 177 650 c 0
 226 650 249 653 303 653 c 0
 320 653 332 650 332 642 c 0
 332 633 322 626 299 622 c 0
 249 613 210 606 210 567 c 2x78
EndSplineSet
Validated: 1
Substitution2: "loclCAT subtable" L.CAT
EndChar

StartChar: V
Encoding: 86 86 37
Width: 672
Flags: W
HStem: 620 33<1.64938 63.9711 212.544 280.926 408.06 472.695 603.579 676.313>
VStem: 0 190<554 646>
AnchorPoint: "below_accent" 297 -100 basechar 0
AnchorPoint: "top_accent" 323 700 basechar 0
LayerCount: 2
Fore
SplineSet
535 650 m 0
 574 650 623 653 649 653 c 0
 666 653 678 650 678 642 c 0
 678 633 668 627 645 622 c 0
 596 611 562 571 547 535 c 2
 359 79 l 2
 354 66 330 -15 316 -15 c 0
 311 -15 296 28 286 56 c 2
 103 547 l 2
 89 584 67 610 33 620 c 0
 11 627 0 633 0 642 c 0
 0 650 12 653 29 653 c 0
 60 653 105 650 151 650 c 0
 191 650 233 652 253 652 c 0
 270 652 282 649 282 641 c 0
 282 632 272 625 249 621 c 0
 219 615 190 592 190 558 c 0
 190 550 192 542 195 533 c 2
 322 197 l 2
 329 178 335 169 340 169 c 0
 345 169 350 178 358 197 c 2
 499 547 l 2
 501 551 502 556 502 560 c 0
 502 589 464 613 440 620 c 0
 426 624 407 631 407 640 c 0
 407 648 419 651 436 651 c 0
 462 651 497 650 535 650 c 0
EndSplineSet
Validated: 1
EndChar

StartChar: W
Encoding: 87 87 38
Width: 916
Flags: W
HStem: -12 21G<619.5 625> 620 33<1.64938 66.5039 189.109 238.926 266.649 333.392 613.369 689.313 711.06 766.25 860.08 928.313>
VStem: 0 187<577.5 646> 458 72<359.172 429.281>
AnchorPoint: "below_accent" 454 -100 basechar 0
AnchorPoint: "top_accent" 481 700 basechar 0
LayerCount: 2
Fore
SplineSet
294 653 m 0
 325 653 352 650 388 650 c 0
 418 650 445 652 465 652 c 0
 482 652 494 649 494 641 c 0
 494 624 453 622 453 599 c 0
 453 596 454 594 455 591 c 0
 459 579 491 497 500 478 c 0
 504 469 506 465 509 465 c 0
 511 465 514 469 518 478 c 0
 534 514 553 574 558 591 c 0
 559 594 559 596 559 598 c 0
 559 622 522 624 522 641 c 0
 522 649 534 652 551 652 c 0
 580 652 584 650 603 650 c 0
 626 650 638 653 662 653 c 0
 679 653 691 650 691 642 c 0
 691 633 681 627 658 622 c 0
 615 612 607 602 590 574 c 0
 579 555 553 494 537 451 c 0
 533 441 530 429 530 420 c 0
 530 417 530 415 531 413 c 2
 634 148 l 2
 637 141 641 145 645 154 c 0
 678 242 722 388 767 541 c 0
 771 553 773 566 773 577 c 0
 773 597 765 614 743 620 c 0
 729 624 710 631 710 640 c 0
 710 648 722 651 739 651 c 0
 765 651 785 650 811 650 c 0
 844 650 876 653 901 653 c 0
 918 653 930 650 930 642 c 0
 930 633 920 627 897 622 c 0
 848 611 826 563 815 534 c 1
 654 58 l 2
 644 30 628 -12 622 -12 c 0
 617 -12 609 -2 605 7 c 0
 552 126 529 199 482 316 c 0
 478 325 476 323 471 310 c 0
 423 197 399 133 357 15 c 0
 352 1 343 -16 335 -16 c 0
 332 -16 326 -1 321 12 c 2
 105 554 l 1
 89 588 67 610 33 620 c 0
 11 627 0 633 0 642 c 0
 0 650 12 653 29 653 c 0
 60 653 84 650 118 650 c 0
 155 650 191 652 211 652 c 0
 228 652 240 649 240 641 c 0
 240 632 230 627 207 621 c 0
 191 617 187 603 187 588 c 0
 187 567 195 545 195 545 c 1
 256 389 292 303 359 152 c 0
 366 137 370 140 374 151 c 2
 452 344 l 2
 456 354 458 361 458 367 c 0
 458 375 455 383 450 396 c 2
 393 538 l 2
 376 581 332 610 298 620 c 0
 276 627 265 633 265 642 c 0
 265 650 277 653 294 653 c 0
EndSplineSet
Validated: 1
EndChar

StartChar: period
Encoding: 46 46 39
Width: 230
VWidth: 0
Flags: W
HStem: -14 110<71.7433 158.257>
VStem: 60 110<-2.25671 84.2567>
LayerCount: 2
Fore
SplineSet
115 96 m 28
 145.335 96 170 71.335 170 41 c 28
 170 10.665 145.335 -14 115 -14 c 28
 84.665 -14 60 10.665 60 41 c 28
 60 71.335 84.665 96 115 96 c 28
EndSplineSet
Validated: 1
EndChar

StartChar: G
Encoding: 71 71 40
Width: 729
Flags: W
HStem: -14 37<313.609 496.294> 256 34<437.011 535.328 642.232 692.897> 625 38<306.718 509.098>
VStem: 45 99<215.989 441.462> 560 65<72.2344 237.12> 594 38<492.515 554.786>
AnchorPoint: "below_accent" 401 -100 basechar 0
AnchorPoint: "top_accent" 400 700 basechar 0
LayerCount: 2
Fore
SplineSet
621 624 m 0xf8
 627 582 632 538 632 512 c 0
 632 502 625 492 617 492 c 0
 603 492 598 507 594 519 c 0xf4
 586 540 579 553 563 572 c 0
 550 588 499 625 404 625 c 0
 255 625 144 504 144 346 c 0
 144 186 239 23 398 23 c 0
 475 23 520 51 534 60 c 0
 552 72 558 102 558 137 c 0
 558 154 560 177 560 195 c 0
 560 209 559 220 555 225 c 0
 538 247 477 256 457 256 c 0
 452 256 437 263 437 273 c 0
 437 283 452 290 457 290 c 0
 506 290 528 286 583 286 c 0
 618 286 636 290 672 290 c 0
 677 290 693 287 693 274 c 0
 693 265 677 257 672 256 c 0
 643 248 634 234 630 207 c 0
 626 178 625 157 625 132 c 2
 625 105 l 2
 625 98 628 95 631 89 c 0
 635 82 644 77 644 72 c 0
 644 67 638 58 630 54 c 0
 570 23 478 -14 399 -14 c 0
 207 -14 45 137 45 329 c 0
 45 522 219 663 413 663 c 0
 463 663 619 639 621 624 c 0xf8
EndSplineSet
Validated: 1
EndChar

StartChar: F
Encoding: 70 70 41
Width: 512
Flags: W
HStem: -5 29<30.6924 104.863 240.561 311.308> 318 37<211.16 382.438> 391 20G<412.5 417.5> 611 39<214.231 429.753> 622 31<37.0745 105.304>
VStem: 130 80<46.2759 315.741 352.008 603.448> 396 32<256.771 304.694> 461 24<523.355 565.46>
AnchorPoint: "top_accent" 279 700 basechar 0
LayerCount: 2
Fore
SplineSet
485 544 m 0xef
 485 532 482 523 476 523 c 0
 469 523 463 528 461 535 c 0
 454 557 447 574 438 584 c 0
 419 605 396 611 371 611 c 2
 244 611 l 2xf7
 213 611 211 587 210 561 c 0
 209 536 209 502 209 467 c 0
 209 433 209 398 210 374 c 0
 210 363 211 352 220 352 c 0
 262 352 312 355 336 355 c 0
 365 355 387 371 397 394 c 0
 399 399 410 411 415 411 c 0
 420 411 429 404 428 395 c 0
 426 372 425 356 425 340 c 0
 425 320 426 301 428 272 c 0
 428 263 427 255 419 255 c 0
 406 255 398 271 396 278 c 0
 386 309 365 317 349 317 c 0
 332 317 315 318 299 318 c 0
 276 318 255 317 234 316 c 0
 221 315 210 308 210 291 c 0
 210 230 210 167 213 101 c 0
 215 58 229 33 279 24 c 0
 302 20 312 15 312 6 c 0
 312 -2 300 -5 283 -5 c 0
 229 -5 223 2 185 2 c 0
 136 2 113 -5 59 -5 c 0
 42 -5 30 -2 30 6 c 0
 30 15 40 20 63 24 c 0
 113 33 130 51 130 100 c 2
 130 522 l 2
 130 582 119 613 69 622 c 0
 46 626 36 633 36 642 c 0
 36 650 48 653 65 653 c 0xef
 138 653 168 650 237 650 c 0xf7
 328 650 460 653 462 653 c 0
 469 653 479 651 480 644 c 0
 484 621 485 558 485 544 c 0xef
EndSplineSet
Validated: 1
EndChar

StartChar: J
Encoding: 74 74 42
Width: 300
Flags: W
HStem: -200 42<24.1861 102.338> 622 31<32.0745 108.382 226.223 298.926>
VStem: 130 80<-76.2179 606.878>
AnchorPoint: "top_accent" 173 700 basechar 0
LayerCount: 2
Fore
SplineSet
64 -158 m 0
 111 -158 130 -97 130 0 c 2
 130 551 l 1
 131 597 114 613 64 622 c 0
 41 626 31 633 31 642 c 0
 31 650 43 653 60 653 c 0
 114 653 131 650 177 650 c 0
 214 650 217 653 271 653 c 0
 288 653 300 650 300 642 c 0
 300 633 290 626 267 622 c 0
 217 613 211 597 210 551 c 1
 210 142 l 2
 210 -68 185 -94 157 -134 c 0
 130 -173 93 -200 34 -200 c 0
 -31 -200 -69 -179 -69 -158 c 0
 -69 -131 -51 -103 -33 -103 c 0
 -7 -103 5 -111 17 -129 c 0
 32 -152 47 -158 64 -158 c 0
EndSplineSet
Validated: 33
EndChar

StartChar: D
Encoding: 68 68 43
Width: 754
Flags: W
HStem: -7 35<30.0745 112.208 251.726 448.386> 628 31<29.2164 94.5968 230.74 433.726>
VStem: 129 81<62.1482 605.889> 609 95<215.09 461.507>
AnchorPoint: "cedilla" 412 8 basechar 0
AnchorPoint: "below_accent" 370 -100 basechar 0
AnchorPoint: "top_accent" 342 700 basechar 0
LayerCount: 2
Fore
SplineSet
371 -7 m 0
 351 -7 242 0 163 0 c 0
 123 0 111 -5 58 -5 c 0
 41 -5 29 -2 29 6 c 0
 29 15 39 20 62 24 c 0
 112 33 129 51 129 99 c 2
 129 549 l 2
 129 597 112 613 62 622 c 0
 39 626 29 633 29 642 c 0
 29 650 41 653 58 653 c 0
 112 653 121 651 162 651 c 2
 169 651 l 2
 212 651 313 659 340 659 c 0
 611 659 704 530 704 335 c 0
 704 149 562 -7 371 -7 c 0
609 346 m 0
 609 503 502 628 345 628 c 0
 258 628 210 627 210 567 c 2
 210 121 l 2
 210 80 224 66 245 50 c 0
 269 32 292 28 317 28 c 0
 335 28 354 30 376 30 c 0
 529 30 609 193 609 346 c 0
EndSplineSet
Validated: 1
EndChar

StartChar: Q
Encoding: 81 81 44
Width: 806
Flags: W
HStem: -248 56<678.518 848.185> 626 36<297.318 476.093>
VStem: 45 94<234.248 430.278> 666 95<214.938 433.089>
AnchorPoint: "top_accent" 405 700 basechar 0
LayerCount: 2
Fore
SplineSet
383 626 m 0
 236 626 139 493 139 354 c 0
 139 181 264 12 430 12 c 0
 582 12 666 184 666 324 c 0
 666 478 546 626 383 626 c 0
374 -54 m 0
 354 -38 275 6 259 10 c 0
 183 30 45 141 45 307 c 0
 45 505 194 662 402 662 c 0
 577 662 761 553 761 350 c 0
 761 112 596 18 497 -8 c 0
 485 -11 483 -14 483 -17 c 0
 483 -20 484 -23 487 -26 c 0
 526 -68 557 -93 607 -129 c 0
 674 -177 724 -192 802 -192 c 0
 826 -192 849 -189 858 -185 c 0
 864 -183 871 -181 877 -181 c 0
 883 -181 888 -183 888 -189 c 0
 888 -201 885 -206 870 -215 c 0
 832 -237 790 -248 753 -248 c 0
 657 -248 596 -219 532 -173 c 0
 480 -136 440 -106 374 -54 c 0
EndSplineSet
Validated: 1
Substitution2: "Single Substitution lookup 11 subtable" Q.long
EndChar

StartChar: S
Encoding: 83 83 45
Width: 465
Flags: W
HStem: -16 33<150.471 283.135> 631 33<197.87 319.057>
VStem: 66 77<465.44 571.876> 338 84<86.4289 209.033>
AnchorPoint: "cedilla" 265 8 basechar 0
AnchorPoint: "below_accent" 225 -100 basechar 0
AnchorPoint: "top_accent" 240 700 basechar 0
LayerCount: 2
Fore
SplineSet
223 17 m 0
 298 17 338 75 338 145 c 0
 338 211 275 263 193 318 c 0
 123 365 66 417 66 497 c 0
 66 584 147 664 267 664 c 0
 331 664 376 644 386 644 c 0
 395 644 401 631 403 621 c 0
 404 618 412 568 412 537 c 0
 412 522 410 512 405 512 c 0
 386 512 373 525 370 540 c 0
 360 598 314 631 258 631 c 0
 196 631 143 590 143 523 c 0
 143 459 225 404 276 371 c 0
 333 334 422 275 422 173 c 0
 422 93 364 -16 214 -16 c 0
 141 -16 97 0 80 8 c 0
 67 14 61 20 59 25 c 0
 48 48 41 104 41 140 c 0
 41 149 51 169 62 169 c 0
 71 169 82 135 92 103 c 0
 111 42 165 17 223 17 c 0
EndSplineSet
Validated: 1
EndChar

StartChar: O
Encoding: 79 79 46
Width: 763
Flags: W
HStem: -14 39<309.694 487.027> 625 39<289.881 469.419>
VStem: 45 97<219.261 444.186> 621 97<206.698 451.883>
AnchorPoint: "cedilla" 412 8 basechar 0
AnchorPoint: "ogonek" 520 18 basechar 0
AnchorPoint: "below_accent" 370 -100 basechar 0
AnchorPoint: "top_accent" 383 700 basechar 0
LayerCount: 2
Fore
SplineSet
375 625 m 0
 227 625 142 490 142 350 c 0
 142 179 247 25 395 25 c 0
 545 25 621 134 621 305 c 0
 621 495 535 625 375 625 c 0
45 320 m 0
 45 501 166 664 390 664 c 0
 564 664 718 532 718 335 c 0
 718 155 601 -14 382 -14 c 0
 205 -14 45 130 45 320 c 0
EndSplineSet
Validated: 1
EndChar

StartChar: H
Encoding: 72 72 47
Width: 810
Flags: W
HStem: -5 29<37.6924 109.801 250.294 321.308 501.692 572.618 698.673 769.308> 302 48<210 601.981> 622 31<45.0745 116.701 235.842 309.926 504.074 576.241 697.262 766.926>
VStem: 130 80<53.5983 302 350 603.314> 602 80<44.8548 302 350 604.033>
AnchorPoint: "below_accent" 423 -100 basechar 0
AnchorPoint: "top_accent" 406 700 basechar 0
LayerCount: 2
Fore
SplineSet
682 100 m 2
 682 51 687 33 737 24 c 0
 760 20 770 15 770 6 c 0
 770 -2 758 -5 741 -5 c 0
 687 -5 678 0 637 0 c 0
 595 0 584 -5 530 -5 c 0
 513 -5 501 -2 501 6 c 0
 501 15 511 20 534 24 c 0
 576 32 602 54 602 97 c 2
 602 287 l 2
 602 294 603 302 597 302 c 2
 215 302 l 2
 210 302 210 299 210 291 c 2
 210 106 l 2
 210 64 243 32 289 24 c 0
 312 20 322 15 322 6 c 0
 322 -2 310 -5 293 -5 c 0
 239 -5 222 0 176 0 c 0
 133 0 120 -5 66 -5 c 0
 49 -5 37 -2 37 6 c 0
 37 15 47 20 70 24 c 0
 120 33 130 51 130 99 c 2
 130 551 l 2
 130 597 127 613 77 622 c 0
 54 626 44 633 44 642 c 0
 44 650 56 653 73 653 c 0
 127 653 136 650 176 650 c 0
 217 650 228 653 282 653 c 0
 299 653 311 650 311 642 c 0
 311 633 301 626 278 622 c 0
 228 613 210 590 210 551 c 2
 210 359 l 2
 210 351 218 350 224 350 c 2
 595 350 l 2
 600 350 602 353 602 362 c 2
 602 552 l 2
 602 588 586 613 536 622 c 0
 513 626 503 633 503 642 c 0
 503 650 515 653 532 653 c 0
 586 653 603 650 648 650 c 0
 684 650 685 653 739 653 c 0
 756 653 768 650 768 642 c 0
 768 633 758 626 735 622 c 0
 685 613 682 590 682 552 c 2
 682 100 l 2
EndSplineSet
Validated: 1
EndChar

StartChar: U
Encoding: 85 85 48
Width: 738
Flags: W
HStem: -14 50<312.955 480.757> 620 33<25.4669 83.9594 202.114 256.781 515.06 566.939 662.499 726.313>
VStem: 103 80<187.656 606.064> 588 57<326.698 604.72> 592 43<165.341 460.842>
AnchorPoint: "cedilla" 412 8 basechar 0
AnchorPoint: "ogonek" 490 18 basechar 0
AnchorPoint: "below_accent" 370 -100 basechar 0
AnchorPoint: "top_accent" 390 700 basechar 0
LayerCount: 2
Fore
SplineSet
645 547 m 0xf0
 638 432 638 346 635 254 c 0
 630 99 524 -14 380 -14 c 0
 188 -14 103 128 103 322 c 2
 103 547 l 2
 103 595 79 614 57 620 c 0
 34 626 24 633 24 642 c 0
 24 650 36 653 53 653 c 0
 83 653 112 650 149 650 c 0
 180 650 208 652 229 652 c 0
 246 652 258 649 258 641 c 0
 258 632 247 628 225 621 c 0
 209 616 183 589 183 549 c 2
 183 294 l 2
 183 162 271 36 403 36 c 0
 530 36 592 144 592 300 c 0xe8
 592 344 590 434 588 511 c 0
 587 562 575 612 547 620 c 0
 533 624 514 631 514 640 c 0
 514 648 526 651 543 651 c 0
 573 651 589 650 618 650 c 0
 650 650 676 653 699 653 c 0
 716 653 728 650 728 642 c 0
 728 633 718 627 695 622 c 0
 660 615 647 587 645 547 c 0xf0
EndSplineSet
Validated: 1
Substitution2: "loclLAT subtable" U.LAT
EndChar

StartChar: Y
Encoding: 89 89 49
Width: 578
Flags: W
HStem: -5 29<153.692 226.247 382.521 455.308> 620 33<1.64938 59.1406 191.55 253.781 385.06 452.318 547.1 611.313>
VStem: 264 80<52.5 323.576> 458 155<579 646>
AnchorPoint: "below_accent" 302 -100 basechar 0
AnchorPoint: "top_accent" 320 700 basechar 0
LayerCount: 2
Fore
SplineSet
264 108 m 2
 264 256 l 2
 264 283 244 321 239 330 c 2
 122 522 l 2
 107 546 67 610 33 620 c 0
 11 627 0 633 0 642 c 0
 0 650 12 653 29 653 c 0
 59 653 100 650 146 650 c 0
 177 650 205 652 226 652 c 0
 243 652 255 649 255 641 c 0
 255 632 244 626 222 621 c 0
 203 616 190 611 190 596 c 0
 190 588 194 576 203 560 c 2
 295 395 l 2
 310 369 317 357 323 357 c 0
 331 357 338 367 356 395 c 0
 387 442 406 474 440 534 c 0
 453 556 458 573 458 585 c 0
 458 610 436 617 417 620 c 0
 403 622 384 631 384 640 c 0
 384 648 396 651 413 651 c 0
 443 651 459 650 488 650 c 0
 525 650 561 653 584 653 c 0
 601 653 613 650 613 642 c 0
 613 633 603 627 580 622 c 0
 545 615 500 557 480 526 c 0
 426 443 415 425 369 346 c 0
 344 303 344 295 344 256 c 2
 344 108 l 2
 344 63 373 33 423 24 c 0
 446 20 456 15 456 6 c 0
 456 -2 444 -5 427 -5 c 0
 373 -5 356 0 310 0 c 0
 260 0 236 -5 182 -5 c 0
 165 -5 153 -2 153 6 c 0
 153 15 163 20 186 24 c 0
 236 33 264 60 264 108 c 2
EndSplineSet
Validated: 1
EndChar

StartChar: one
Encoding: 49 49 50
Width: 289
VWidth: 0
Flags: W
HStem: -3 25<26.7157 90.5827 198.107 263.756> 384 22<39.4082 89.9044 201.295 250.233>
VStem: 109 73<32.9094 374.434>
LayerCount: 2
Fore
SplineSet
109 68 m 0
 109 153 109 266 109 333 c 0
 109 380 73 380 46 384 c 0
 36 385 37 406 46 406 c 0
 106 406 107 403 146 403 c 24
 184 403 185 406 243 406 c 0
 255 406 253 386 243 384 c 0
 215 378 183 380 182 333 c 0
 180 244 181 115 182 68 c 0
 183 29 209 28 253 22 c 0
 270 20 269 -3 253 -3 c 0
 196 -3 187 2 146 2 c 24
 103 2 90 -3 36 -3 c 0
 24 -3 19 21 36 22 c 0
 63 24 109 27 109 68 c 0
EndSplineSet
Validated: 33
Substitution2: "'tnum' Tabular Numbers lookup 7 subtable" one.taboldstyle
Substitution2: "'lnum' Lining Figures lookup 5 subtable" one.lnum
EndChar

StartChar: bracketleft
Encoding: 91 91 51
Width: 373
VWidth: 0
Flags: W
HStem: -200 33<165.205 331.158> 673 29<170.069 332.807>
VStem: 113 49<-166.781 0.239746 77.438 671.344>
LayerCount: 2
Fore
SplineSet
150 702 m 26
 315 701 l 26
 324 701 335 695 333 686 c 24
 329 675 318 675 307 674 c 24
 261 670 236 673 191 673 c 0
 176 673 167 659 167 644 c 8
 161 495 161 411 161 262 c 8
 161 114 158 30 162 -118 c 0
 163 -164 170 -167 191 -167 c 8
 236 -167 261 -168 307 -172 c 0
 319 -173 333 -178 333 -190 c 24
 333 -201 318 -203 307 -203 c 26
 143 -200 l 18
 118 -200 112 -195 113 -170 c 10
 117 542 l 26
 117 580 112 602 113 640 c 24
 113 661 107 676 118 694 c 24
 124 705 137 702 150 702 c 26
EndSplineSet
Validated: 33
EndChar

StartChar: bracketright
Encoding: 93 93 52
Width: 370
VWidth: 0
Flags: W
HStem: -203 31<40.2656 205.572> 674 27<40.1472 201.315>
VStem: 206 54<-166.976 672.145>
LayerCount: 2
Fore
SplineSet
223 702 m 26
 236 702 248 705 255 694 c 24
 266 676 260 661 260 640 c 24
 260 602 256 580 256 542 c 26
 260 -170 l 18
 260 -195 255 -200 230 -200 c 10
 66 -203 l 26
 55 -203 40 -201 40 -190 c 24
 40 -178 54 -173 66 -172 c 0
 112 -168 137 -167 182 -167 c 16
 203 -167 210 -164 211 -118 c 0
 214 30 212 114 212 262 c 16
 212 411 211 495 206 644 c 16
 205 659 197 673 182 673 c 0
 137 673 111 670 66 674 c 24
 55 675 43 675 40 686 c 24
 37 695 49 701 58 701 c 26
 223 702 l 26
EndSplineSet
Validated: 33
EndChar

StartChar: x
Encoding: 120 120 53
Width: 560
Flags: W
HStem: -3 29<15.3271 81.2839 166.45 211.673 294.327 346.81 478.406 544.673> 422 31<25.5723 83.5087 204.825 254.42 340.572 385.279 467.016 539.428>
AnchorPoint: "top_accent" 289 615 basechar 0
LayerCount: 2
Fore
SplineSet
120 370 m 2
 93.3564 405.5254 73 415 49 422 c 0
 37 426 25 431 25 441 c 0
 25 449 38 453 45 453 c 0
 84 453 98 448 134 448 c 0
 169 448 196 453 235 453 c 0
 242 453 255 449 255 441 c 0
 255 431 242 424 231 422 c 0
 193 415 201.1523 398.1133 222 370 c 2
 288 281 l 2
 291 276 293 272 299 279 c 2
 367 370 l 2
 392.1475 403.6533 392 414 364 422 c 0
 352 426 340 431 340 441 c 0
 340 449 353 453 360 453 c 0
 399 453 406 448 442 448 c 0
 477 448 481 453 520 453 c 0
 527 453 540 449 540 441 c 0
 540 431 528 425 516 422 c 0
 470 410 444.4316 402.6436 417 370 c 2
 317 251 l 2
 314 247 317 241 321 235 c 2
 441 74 l 2
 463.2324 44.1709 482 35 522 27 c 0
 533 25 545 19 545 9 c 0
 545 1 532 -3 525 -3 c 0
 486 -3 458 2 423 2 c 0
 388 2 353 -3 314 -3 c 0
 307 -3 294 1 294 9 c 0
 294 19 306 23 317 26 c 0
 345 33 357.9209 43.9434 345 62 c 2
 267 171 l 2
 264 175 259 182 255 177 c 2
 171 63 l 2
 155.8066 42.3809 169 33 189 27 c 0
 200 23 212 19 212 9 c 0
 212 1 199 -3 192 -3 c 0
 153 -3 146 2 111 2 c 0
 76 2 74 -3 35 -3 c 0
 28 -3 15 1 15 9 c 0
 15 19 27 23 38 26 c 0
 69 33 104.668 44.2715 144 92 c 2
 233 200 l 2
 237 205 237 214 234 218 c 2
 120 370 l 2
EndSplineSet
Validated: 33
EndChar

StartChar: comma
Encoding: 44 44 54
Width: 228
VWidth: 0
Flags: W
HStem: 29 88<50.4428 120.388>
VStem: 128 52<-59.9065 49.1868>
LayerCount: 2
Fore
SplineSet
89 29 m 0
 60 32 42 49 42 71 c 0
 42 98 68 117 97 117 c 0
 145 117 180 76 180 20 c 0
 180 -81 89 -145 38 -147 c 0
 14 -148 11 -128 32 -124 c 0
 75 -115 128 -85 128 -15 c 0
 128 1 111 27 89 29 c 0
EndSplineSet
Validated: 1
EndChar

StartChar: quotedblbase
Encoding: 8222 8222 55
Width: 420
VWidth: 0
Flags: W
HStem: -147 23<41.5641 86.3362 219.564 264.336> 29 88<72.4428 142.388 250.443 320.388>
VStem: 150 52<-59.9065 49.1868> 328 52<-59.9065 49.1868>
LayerCount: 2
Fore
SplineSet
289 29 m 0
 260 32 242 49 242 71 c 0
 242 98 268 117 297 117 c 0
 345 117 380 76 380 20 c 0
 380 -81 289 -145 238 -147 c 0
 214 -148 211 -128 232 -124 c 0
 275 -115 328 -85 328 -15 c 0
 328 1 311 27 289 29 c 0
111 29 m 0
 82 32 64 49 64 71 c 0
 64 98 90 117 119 117 c 0
 167 117 202 76 202 20 c 0
 202 -81 111 -145 60 -147 c 0
 36 -148 33 -128 54 -124 c 0
 97 -115 150 -85 150 -15 c 0
 150 1 133 27 111 29 c 0
EndSplineSet
Validated: 1
EndChar

StartChar: quotesinglbase
Encoding: 8218 8218 56
Width: 242
VWidth: 0
Flags: W
HStem: 29 88<72.4428 142.388>
VStem: 150 52<-59.9065 49.1868>
LayerCount: 2
Fore
SplineSet
111 29 m 0
 82 32 64 49 64 71 c 0
 64 98 90 117 119 117 c 0
 167 117 202 76 202 20 c 0
 202 -81 111 -145 60 -147 c 0
 36 -148 33 -128 54 -124 c 0
 97 -115 150 -85 150 -15 c 0
 150 1 133 27 111 29 c 0
EndSplineSet
Validated: 1
EndChar

StartChar: quotedblleft
Encoding: 8220 8220 57
Width: 420
VWidth: 0
Flags: W
HStem: 426 88<99.6124 169.557 277.612 347.557> 667 23<155.664 200.436 333.664 378.436>
VStem: 40 52<493.813 602.906> 218 52<493.813 602.906>
LayerCount: 2
Fore
SplineSet
131 514 m 0
 160 511 178 494 178 472 c 0
 178 445 152 426 123 426 c 0
 75 426 40 467 40 523 c 0
 40 624 131 688 182 690 c 0
 206 691 209 671 188 667 c 0
 145 658 92 628 92 558 c 0
 92 542 109 516 131 514 c 0
309 514 m 0
 338 511 356 494 356 472 c 0
 356 445 330 426 301 426 c 0
 253 426 218 467 218 523 c 0
 218 624 309 688 360 690 c 0
 384 691 387 671 366 667 c 0
 323 658 270 628 270 558 c 0
 270 542 287 516 309 514 c 0
EndSplineSet
Validated: 1
EndChar

StartChar: quotedblright
Encoding: 8221 8221 58
Width: 420
VWidth: 0
Flags: W
HStem: 426 23<41.5641 86.3362 219.564 264.336> 602 88<72.4428 142.388 250.443 320.388>
VStem: 150 52<513.094 622.187> 328 52<513.094 622.187>
LayerCount: 2
Fore
SplineSet
289 602 m 0
 260 605 242 622 242 644 c 0
 242 671 268 690 297 690 c 0
 345 690 380 649 380 593 c 0
 380 492 289 428 238 426 c 0
 214 425 211 445 232 449 c 0
 275 458 328 488 328 558 c 0
 328 574 311 600 289 602 c 0
111 602 m 0
 82 605 64 622 64 644 c 0
 64 671 90 690 119 690 c 0
 167 690 202 649 202 593 c 0
 202 492 111 428 60 426 c 0
 36 425 33 445 54 449 c 0
 97 458 150 488 150 558 c 0
 150 574 133 600 111 602 c 0
EndSplineSet
Validated: 1
EndChar

StartChar: quoteleft
Encoding: 8216 8216 59
Width: 240
Flags: W
HStem: 426 88<99.6124 169.557>
VStem: 40 52<493.813 602.906>
LayerCount: 2
Fore
SplineSet
131 514 m 0
 160 511 178 494 178 472 c 0
 178 445 152 426 123 426 c 0
 75 426 40 467 40 523 c 0
 40 624 131 688 182 690 c 0
 206 691 209 671 188 667 c 0
 145 658 92 628 92 558 c 0
 92 542 109 516 131 514 c 0
EndSplineSet
Validated: 1
EndChar

StartChar: quoteright
Encoding: 8217 8217 60
Width: 240
Flags: W
HStem: 602 88<72.4428 142.388>
VStem: 150 52<513.094 622.187>
LayerCount: 2
Fore
SplineSet
111 602 m 0
 82 605 64 622 64 644 c 0
 64 671 90 690 119 690 c 0
 167 690 202 649 202 593 c 0
 202 492 111 428 60 426 c 0
 36 425 33 445 54 449 c 0
 97 458 150 488 150 558 c 0
 150 574 133 600 111 602 c 0
EndSplineSet
Validated: 1
EndChar

StartChar: K
Encoding: 75 75 61
Width: 681
Flags: W
HStem: -5 29<31.6924 105.863 244.783 312.308 608.044 687.308> 323 22<211.264 231.372> 622 31<32.0745 108.441 226.967 296.926 408.311 456.01 576.716 672.827>
VStem: 131 80<50.6023 322.99 345.01 605.863>
AnchorPoint: "below_accent" 355 -100 basechar 0
AnchorPoint: "top_accent" 343 700 basechar 0
LayerCount: 2
Fore
SplineSet
659 -5 m 0
 600 -5 575 0 520 0 c 0
 495 0 484 -1 439 -1 c 0
 422 -1 410 2 410 10 c 0
 410 19 418 23 437 27 c 0
 457 32 465 39 465 47 c 0
 465 55 458 63 450 72 c 2
 238 306 l 2
 230 314 220 323 215 323 c 0
 210 323 211 309 211 302 c 0
 211 239 213 190 216 110 c 0
 218 67 230 33 280 24 c 0
 303 20 313 15 313 6 c 0
 313 -2 301 -5 284 -5 c 0
 230 -5 224 2 186 2 c 0
 137 2 114 -5 60 -5 c 0
 43 -5 31 -2 31 6 c 0
 31 15 41 20 64 24 c 0
 114 33 131 51 131 101 c 2
 131 551 l 2
 131 597 114 613 64 622 c 0
 41 626 31 633 31 642 c 0
 31 650 43 653 60 653 c 0
 114 653 128 651 172 651 c 0
 210 651 215 653 269 653 c 0
 286 653 298 650 298 642 c 0
 298 633 288 626 265 622 c 0
 215 613 211 590 211 551 c 2
 211 364 l 2
 211 359 211 345 216 345 c 0
 223 345 236 355 243 363 c 2
 443 567 l 2
 453 577 458 588 458 597 c 0
 458 608 451 617 439 620 c 0
 416 626 408 631 408 640 c 0
 408 648 420 651 437 651 c 2
 491 651 l 2
 544 651 614 652 646 655 c 1
 653 655 l 2
 666 655 675 651 675 644 c 0
 675 635 665 628 642 624 c 0
 592 615 536 597 490 558 c 0
 418 497 368 448 298 371 c 0
 293 366 296 360 303 353 c 2
 545 95 l 1
 588 47 598 36 655 24 c 0
 678 19 688 15 688 6 c 0
 688 -2 676 -5 659 -5 c 0
EndSplineSet
Validated: 1
EndChar

StartChar: k
Encoding: 107 107 62
Width: 568
Flags: W
HStem: -3 28<30.2313 96.6027 206.569 262.77 334.103 364.634 499.011 562.77> 225 22<195.633 220.309> 422 31<38.5727 98.809 215.113 266.673 461.953 538.102>
VStem: 120 75<40.4875 224.99 247.004 407.157>
AnchorPoint: "below_accent" 233 -100 basechar 0
AnchorPoint: "top_accent" 279 615 basechar 0
LayerCount: 2
Fore
SplineSet
539 25 m 0
 550.0511 23.30504 563 19 563 9 c 0
 563 1 550 -3 543 -3 c 0
 504 -3 458.2383 1.13907 404 2 c 0
 384.4873 2.30957 393 0 354 0 c 0
 347 0 334 4 334 12 c 0
 334 22 342.88574 23.8633 355.0996 29.5 c 0
 368.0996 35.5 367.9513 48.0265 359.99999 57 c 2
 223.09999 211.5 l 2
 217.61366 217.32227 207.00039 225 202.00039 225 c 0
 196.00039 225 195.00039 211 195.00039 206 c 2
 195.00039 80 l 2
 195.00039 43 204.00039 32 239.00039 25 c 0
 250.00039 23 263.00039 19 263.00039 9 c 0
 263.00039 1 250.00039 -3 243.00039 -3 c 0
 204.00039 -3 191.23279 3 158.00039 3 c 0
 115.81579 3 89.00039 -3 50.00039 -3 c 0
 43.00039 -3 30.00039 1 30.00039 9 c 0
 30.00039 19 43.00039 23 54.00039 25 c 0
 89.00039 32 120.00039 43 120.00039 79 c 2
 120.00039 352 l 2
 120.00039 392 104.00039 415 62.00039 422 c 0
 50.00039 424 38.00039 431 38.00039 441 c 0
 38.00039 449 51.00039 453 58.00039 453 c 0
 97.00039 453 122.00039 448 158.00039 448 c 0
 193.00039 448 208.00039 452 247.00039 452 c 0
 254.00039 452 267.00039 448 267.00039 440 c 0
 267.00039 430 255.02089 422.8721 243.00039 421 c 0
 214.09999 416.5 195.00039 390 195.00039 351 c 2
 195.00039 261 l 2
 195.00039 252 197.00039 247 202.00039 247 c 0
 211.00039 247 235.35779 267.0732 258.00039 285 c 0
 304.09999 321.5 336.09999 349.5 372.00039 390 c 0
 383.27679 402.7217 368.46328 411.3184 352.09999 419.5 c 0
 340.10099 425.5 332.00039 427 332.00039 437 c 0
 332.00039 445 345.00039 449 352.00039 449 c 0
 391.00039 449 408.00039 448 444.00039 448 c 0
 479.00039 448 509.09999 455.5 520.00039 455 c 0
 526.99258 454.679688 540.00039 452 540.00039 444 c 0
 540.00039 434 528.00039 426 516.00039 424 c 0
 474.00039 417 459.99089 406.9269 426.00039 384 c 0
 390.35179 359.9547 319.10039 306.5 281.00039 269 c 0
 276.01152 264.08969 278.60195 256.9053 284.00039 251 c 2
 416.10039 106.5 l 2
 445.53889 73.8887 490.10079 32.5 539 25 c 0
EndSplineSet
Validated: 33
EndChar

StartChar: X
Encoding: 88 88 63
Width: 707
Flags: W
HStem: -5 33<-3.35062 67.7729 203.123 267.861 395.055 453.346 626.864 697.313> 622 33<19.6494 91.1203 243.386 317.637 443.217 513.033 626.879 693.56>
VStem: 314 86<309.609 350.5>
AnchorPoint: "cedilla" 426 8 basechar 0
AnchorPoint: "below_accent" 404 -100 basechar 0
AnchorPoint: "top_accent" 381 700 basechar 0
LayerCount: 2
Fore
SplineSet
553 650 m 0
 592 650 640 656 667 656 c 0
 684 656 696 653 696 645 c 0
 696 636 686 631 663 625 c 0
 625 615 577 562 533 510 c 2
 418 374 l 2
 407 361 400 352 400 344 c 0
 400 341 402 338 404 334 c 2
 559 111 l 2
 589 67 628 36 666 26 c 0
 689 20 699 15 699 6 c 0
 699 -2 687 -5 670 -5 c 0
 642 -5 574 1 527 1 c 0
 486 1 448 0 424 0 c 0
 407 0 395 3 395 11 c 0
 395 20 414 27 428 31 c 0
 448 37 472 53 472 78 c 0
 472 88 469 99 460 111 c 2
 356 262 l 2
 346 276 341 276 334 267 c 2
 199 93 l 2
 193 85 190 77 190 70 c 0
 190 51 208 36 235 30 c 0
 258 24 268 19 268 10 c 0
 268 2 256 -1 239 -1 c 0
 221 -1 186 1 150 1 c 0
 105 1 57 -5 24 -5 c 0
 7 -5 -5 -2 -5 6 c 0
 -5 15 6 21 28 28 c 0
 62 38 129 72 171 124 c 2
 296 280 l 2
 307 295 314 308 314 317 c 0
 314 320 314 323 312 325 c 2
 167 529 l 2
 117 599 85 612 51 622 c 0
 29 629 18 635 18 644 c 0
 18 652 30 655 47 655 c 0
 80 655 140 650 190 650 c 0
 230 650 271 652 289 652 c 0
 306 652 318 649 318 641 c 0
 318 632 308 628 285 621 c 0
 252 611 234 606 234 590 c 0
 234 578 244 560 267 528 c 2
 358 400 l 2
 365 390 370 385 374 385 c 0
 378 385 382 389 388 397 c 2
 495 538 l 2
 511 558 521 576 521 589 c 0
 521 604 508 614 476 620 c 0
 462 623 443 631 443 640 c 0
 443 648 455 651 472 651 c 0
 496 651 523 650 553 650 c 0
EndSplineSet
Validated: 1
EndChar

StartChar: Z
Encoding: 90 90 64
Width: 603
Flags: W
HStem: -2 38<180.367 479.543> 604 42<110.395 431.997>
VStem: 36 37<506.312 565.979>
AnchorPoint: "below_accent" 306 -100 basechar 0
AnchorPoint: "top_accent" 315 700 basechar 0
LayerCount: 2
Fore
SplineSet
231 -2 m 0
 191 -2 150 -3 112 -3 c 2
 35 -3 l 2
 29 -3 28 11 28 11 c 1
 28 21 63 73 86 104 c 0
 222 290 301 395 428 588 c 0
 430 591 432 593 432 596 c 0
 432 600 428 603 413 604 c 0
 377 605 320 606 267 606 c 0
 228 606 190 606 165 604 c 0
 133 602 91 584 73 535 c 0
 68 523 60 503 45 503 c 0
 39 503 36 508 36 514 c 0
 36 522 40 533 43 541 c 0
 50 562 66 610 70 652 c 0
 71 667 80 669 85 669 c 0
 90 669 100 663 110 655 c 0
 118 649 154 647 183 647 c 0
 235 646 283 646 328 646 c 0
 411 646 485 647 559 649 c 0
 565 649 574 636 570 631 c 2
 509 550 l 1
 371 364 295 262 171 70 c 0
 169 67 168 62 168 58 c 0
 168 50 172 42 179 41 c 0
 208 38 248 36 292 36 c 0
 337 36 386 38 433 41 c 0
 481 45 529 76 557 142 c 0
 560 150 569 163 579 163 c 0
 585 163 588 159 588 150 c 0
 588 139 562 36 551 12 c 0
 547 4 543 -5 533 -5 c 0
 419 -5 320 -2 231 -2 c 0
EndSplineSet
Validated: 1
EndChar

StartChar: z
Encoding: 122 122 65
Width: 510
Flags: W
HStem: 1 33<165.935 410.587> 416 33<105.988 317.186>
VStem: 447 28<74.2656 118.557>
AnchorPoint: "top_accent" 242 615 basechar 0
LayerCount: 2
Fore
SplineSet
229 34 m 2
 364 34 l 2
 405 34 434 68 447 97 c 0
 449 101 456 120 465 120 c 0
 474 120 475 102 475 96 c 0
 472 69 459 32 453 10 c 0
 452 4 443 -2 436 -2 c 0
 353 -3 223 1 158 1 c 0
 105.1768 1 92 -2 62 -2 c 0
 52 -2 41 4 41 12 c 0
 41 26 57.9952 50.5088 75 74 c 2
 317 408 l 2
 321.10461 413.67029 317 415 300 416 c 0
 258.2344 417.60645 195 418 154 418 c 0
 130.9131 418 93 397 82 373 c 0
 78.44043 365.2334 62 336 52 336 c 0
 41 336 40 341.55969 40 352 c 0
 40 365 63 433 72 453 c 0
 77 463 84 465 88 465 c 0
 93 465 107.0015 450.3403 146 450 c 2
 265 449 l 2
 329.9977 448.453796 385.01 451.07853 429 452 c 0
 435.99846 452.146597 440 450 440 442 c 0
 440 432 432.45799 426.6525 416 404 c 2
 166 59 l 2
 156.438 46.1716 158 40 165 39 c 0
 185 37 200.9824 34 229 34 c 2
EndSplineSet
Validated: 33
EndChar

StartChar: exclam
Encoding: 33 33 66
Width: 270
VWidth: 0
Flags: W
HStem: -14 120<98.7454 191.255>
VStem: 85 120<-0.254639 92.2546> 93 104<352.256 636.824>
LayerCount: 2
Fore
SplineSet
145 106 m 28xc0
 178 106 205 79 205 46 c 28
 205 13 178 -14 145 -14 c 28
 112 -14 85 13 85 46 c 28
 85 79 112 106 145 106 c 28xc0
145 649 m 28
 180 650 197 612 197 575 c 4
 197 488 176 358 161 244 c 4
 158 222 153 205 143 205 c 4
 133 205 128 215 125 244 c 4
 113 358 93 510 93 573 c 4xa0
 93 612 109 648 145 649 c 28
EndSplineSet
Validated: 33
EndChar

StartChar: exclamdown
Encoding: 161 161 67
Width: 282
VWidth: 0
Flags: W
HStem: 374 120<105.745 198.255>
VStem: 92 120<387.745 480.255> 101 100<-168.408 156.736> 124 50<0.580078 261.326>
LayerCount: 2
Fore
SplineSet
152 374 m 24xc0
 119 374 92 401 92 434 c 24
 92 467 119 494 152 494 c 24
 185 494 212 467 212 434 c 24
 212 401 185 374 152 374 c 24xc0
152 -180 m 24
 117 -179 101 -145 101 -106 c 0xa0
 101 -43 114 87 124 205 c 0
 126 234 137 263 152 263 c 0
 162 263 172 233 174 211 c 0x90
 186 95 201 -21 201 -108 c 0xa0
 201 -145 186 -181 152 -180 c 24
EndSplineSet
Validated: 33
EndChar

StartChar: quotedbl
Encoding: 34 34 68
Width: 309
VWidth: 0
Flags: W
HStem: 444 232<80.1508 89.4949 211.151 220.495>
VStem: 62 74<529.368 656.895> 193 74<529.368 656.895>
LayerCount: 2
Fore
SplineSet
65 467 m 0
 67 520 67 557 62 619 c 0
 61 633 72 648 81 655 c 0
 97 667 108 676 124 676 c 0
 139 676 139 645 136 624 c 0
 126 555 107 505 91 469 c 0
 86 457 77 444 72 444 c 0
 67 444 65 458 65 467 c 0
196 467 m 0
 198 520 198 557 193 619 c 0
 192 633 203 648 212 655 c 0
 228 667 239 676 255 676 c 0
 270 676 270 645 267 624 c 0
 257 555 238 505 222 469 c 0
 217 457 208 444 203 444 c 0
 198 444 196 458 196 467 c 0
EndSplineSet
Validated: 33
EndChar

StartChar: quotesingle
Encoding: 39 39 69
Width: 195
VWidth: 0
Flags: W
HStem: 444 232<80.1508 89.4949>
VStem: 62 74<529.368 656.895>
LayerCount: 2
Fore
SplineSet
65 467 m 0
 67 520 67 557 62 619 c 0
 61 633 72 648 81 655 c 0
 97 667 108 676 124 676 c 0
 139 676 139 645 136 624 c 0
 126 555 107 505 91 469 c 0
 86 457 77 444 72 444 c 0
 67 444 65 458 65 467 c 0
EndSplineSet
Validated: 33
EndChar

StartChar: colon
Encoding: 58 58 70
Width: 248
VWidth: 0
Flags: W
HStem: -14 110<81.7433 168.257> 263 110<81.7433 168.257>
VStem: 70 110<-2.25671 84.2567 274.743 361.257>
LayerCount: 2
Fore
SplineSet
125 96 m 28
 155.335 96 180 71.335 180 41 c 28
 180 10.665 155.335 -14 125 -14 c 28
 94.665 -14 70 10.665 70 41 c 28
 70 71.335 94.665 96 125 96 c 28
125 373 m 28
 155.335 373 180 348.335 180 318 c 28
 180 287.665 155.335 263 125 263 c 28
 94.665 263 70 287.665 70 318 c 28
 70 348.335 94.665 373 125 373 c 28
EndSplineSet
Validated: 1
EndChar

StartChar: semicolon
Encoding: 59 59 71
Width: 228
VWidth: 0
Flags: W
HStem: 29 88<50.4428 120.388> 263 110<62.7433 149.257>
VStem: 51 110<274.743 361.257> 128 52<-59.9065 49.1868>
LayerCount: 2
Fore
SplineSet
106 373 m 28xe0
 136.335 373 161 348.335 161 318 c 28
 161 287.665 136.335 263 106 263 c 28
 75.665 263 51 287.665 51 318 c 28
 51 348.335 75.665 373 106 373 c 28xe0
89 29 m 0
 60 32 42 49 42 71 c 0
 42 98 68 117 97 117 c 0
 145 117 180 76 180 20 c 0
 180 -81 89 -145 38 -147 c 0
 14 -148 11 -128 32 -124 c 0
 75 -115 128 -85 128 -15 c 0xd0
 128 1 111 27 89 29 c 0
EndSplineSet
Validated: 1
EndChar

StartChar: dieresis
Encoding: 168 168 72
Width: 0
VWidth: 0
Flags: W
HStem: 494 100<-305.298 -226.702 -128.298 -49.7018>
VStem: -316 100<504.702 583.298> -139 100<504.702 583.298>
LayerCount: 2
Fore
SplineSet
-89 594 m 4
 -64 594 -39 569 -39 544 c 4
 -39 519 -64 494 -89 494 c 4
 -114 494 -139 519 -139 544 c 4
 -139 569 -114 594 -89 594 c 4
-266 594 m 4
 -241 594 -216 569 -216 544 c 4
 -216 519 -241 494 -266 494 c 4
 -291 494 -316 519 -316 544 c 4
 -316 569 -291 594 -266 594 c 4
EndSplineSet
Validated: 1
Substitution2: "'case' Case-Sensitive Forms lookup 12 subtable" dieresis.cap
EndChar

StartChar: two
Encoding: 50 50 77
Width: 430
VWidth: 0
Flags: W
HStem: 0 65<131.73 363.557> 345 68<102.764 207.381>
VStem: 226 68<218.815 324.745>
LayerCount: 2
Fore
SplineSet
45 297 m 0
 41 293 38 288 33 290 c 24
 27 292 25 298 25 304 c 0
 25 313 72 413 190 413 c 0
 254 413 294 353 294 290 c 0
 294 258 277 220 253 191 c 0
 223 155 142 80 132 73 c 0
 126 69 135 65 141 65 c 0
 167 66 255 65 304 65 c 0
 342 65 378 90 397 128 c 0
 400 133 408 139 416 138 c 24
 421 138 421 131 419 126 c 0
 403 81 393 52 386 12 c 0
 383 -5 376 -4 371 -4 c 0
 307 0 262 -0 192 0 c 24
 128 0 93 0 29 -3 c 0
 23 -3 21 9 29 17 c 0
 46 34 74 61 90 74 c 0
 112 92 224 185 226 264 c 0
 227 312 200 345 161 345 c 0
 116 345 79 335 45 297 c 0
EndSplineSet
Validated: 33
Substitution2: "'tnum' Tabular Numbers lookup 7 subtable" two.taboldstyle
Substitution2: "'lnum' Lining Figures lookup 5 subtable" two.lnum
EndChar

StartChar: five
Encoding: 53 53 78
Width: 375
VWidth: 0
Flags: W
HStem: -189 29<68.529 150.003> 325 90<163.5 261.016>
VStem: 245 80<-70.602 72.3007>
LayerCount: 2
Fore
SplineSet
102 -189 m 0
 87 -189 68 -186 68 -177 c 0
 68 -167 89 -162 101 -160 c 0
 176.211 -147.465 245 -106.276 245 0 c 0
 245 83 174 134 108 167 c 0
 64.3835 188.808 56.3479 208.827 58 227 c 0
 63 282 80 328 89 347 c 0
 98.2213 366.467 115 376 125 380 c 0
 171.098 398.439 212.957 407.285 271 415 c 24
 278.129 415.947 283 408 283 401 c 0
 283 376 259 330 232 325 c 0
 181 315 141 313 110 312 c 0
 100.949 311.708 97.3666 301.677 92 282 c 0
 89 271 92.592 262.156 111 252 c 0
 169 220 235 177 263 150 c 0
 290 124 325 69 325 17 c 0
 325 -112 202 -189 102 -189 c 0
EndSplineSet
Validated: 33
Substitution2: "'tnum' Tabular Numbers lookup 7 subtable" five.taboldstyle
Substitution2: "'lnum' Lining Figures lookup 5 subtable" five.lnum
EndChar

StartChar: four
Encoding: 52 52 79
Width: 492
VWidth: 0
Flags: W
HStem: -181 21G<289 296.5> 43 61<116 259.185> 50 54<117.124 278 351.055 457.611>
VStem: 278 73<-162.906 49.9258 104.076 282.13>
LayerCount: 2
Fore
SplineSet
266 104 m 0xb0
 271 104 278 108 278 112 c 0
 278 180 278 189 278 281 c 0
 278 284 270.721 284.821 268 282 c 24
 206.467 218.188 173.565 180.412 116 113 c 24
 113.721 110.331 112 104 116 104 c 0xd0
 188 104 190 104 266 104 c 0xb0
25 56 m 0
 50 87 54 91 69 108 c 0
 142 187 148 196 228 282 c 0
 250 306 278.546 340.023 311 377 c 24
 326.126 394.234 343 420 350 421 c 0
 357 422 354 413.934 354 409 c 24
 354 291.989 349.617 226.01 350 109 c 24
 350.01 105.954 351.957 103.146 355 103 c 24
 393.567 101.146 418 102 454 104 c 0
 460 104 466.066 100.439 465 95 c 24
 461.477 77.0293 451 53 444 53 c 0
 417 53 382 55 364 52 c 0
 359 51 351 47 351 46 c 0
 351 -13 351 -77 351 -133 c 0
 351 -158 300 -181 293 -181 c 0
 285 -181 278 -178 278 -168 c 0
 278 -100 278 9 278 41 c 0
 278 47 264 50 263 50 c 0xb0
 181 50 139 44 34 43 c 0
 28 43 22 52 25 56 c 0
EndSplineSet
Validated: 33
Substitution2: "'tnum' Tabular Numbers lookup 7 subtable" four.taboldstyle
Substitution2: "'lnum' Lining Figures lookup 5 subtable" four.lnum
EndChar

StartChar: seven
Encoding: 55 55 80
Width: 460
VWidth: 0
Flags: W
HStem: 281 21G<24.5 33.5> 326 76<55.9462 340.016>
VStem: 28 27<288.119 315.084>
LayerCount: 2
Fore
SplineSet
344 313 m 0
 346 318 349 322 334 323 c 0
 295 324 160 326 128 326 c 0
 107 326 75 329 55 303 c 0
 50 297 38 281 29 281 c 0
 20 281 26 302 28 311 c 0
 35 340 40 370 40 395 c 0
 40 405 47 406 50 406 c 0
 53 406 88 403 113 402 c 0
 206 399 398 401 426 407 c 0
 430 407 434 396 433 392 c 0
 424 374 407 344 395 323 c 0
 326 203 215 8 115 -166 c 8
 109 -177 100 -193 96 -193 c 0
 81 -193 68 -182 68 -167 c 0
 68 -163 80 -142 89 -126 c 16
 179 30 275 194 344 313 c 0
EndSplineSet
Validated: 33
Substitution2: "'tnum' Tabular Numbers lookup 7 subtable" seven.taboldstyle
Substitution2: "'lnum' Lining Figures lookup 5 subtable" seven.lnum
EndChar

StartChar: six
Encoding: 54 54 81
Width: 466
VWidth: 0
Flags: W
HStem: -14 36<206.622 320.425> 260 53<235.267 327.904>
VStem: 41 83<99.2326 318.606> 370 69<91.8832 215.642>
LayerCount: 2
Fore
SplineSet
232 -14 m 0
 101 -14 42 72 41 190 c 0
 40 341 121 436 156 477 c 0
 205 533 305 607 427 639 c 0
 433 640 444 639 441 634 c 24
 435 622 422 617 415 614 c 0
 325 575 264 529 213 456 c 0
 179 407 124 310 124 190 c 0
 124 140 140 101 158 79 c 0
 175 58 218 22 261 22 c 0
 290 22 311 30 327 43 c 0
 349 60 370 93 370 142 c 0
 370 203 329 260 276 260 c 0
 252 260 240 259 222 254 c 0
 210 251 210 252 196 245 c 0
 184 239 182 248 189 256 c 0
 199 267 205 272 216 280 c 0
 231 291 277 313 314 313 c 0
 383 313 439 262 439 190 c 0
 439 85 372 -14 232 -14 c 0
EndSplineSet
Validated: 33
Substitution2: "'tnum' Tabular Numbers lookup 7 subtable" six.taboldstyle
Substitution2: "'lnum' Lining Figures lookup 5 subtable" six.lnum
EndChar

StartChar: nine
Encoding: 57 57 82
Width: 466
VWidth: 0
Flags: W
HStem: -186 18<41.9316 75.6465> 89 53<168.428 255.987> 378 36<172.378 277.51>
VStem: 53 69<192.647 300.858> 346 80<102.36 310.427>
LayerCount: 2
Fore
SplineSet
251 414 m 0
 348 414 426 328 426 210 c 0
 426 96 354 6 300 -47 c 0
 245 -101 124 -176 55 -186 c 0
 49 -187 41 -187 41 -181 c 24
 41 -174 48 -170 55 -168 c 0
 112 -150 228 -56 270 0 c 0
 306 48 346 114 346 227 c 0
 346 310 291 378 218 378 c 0
 153 378 122 316 122 267 c 0
 122 206 167 142 220 142 c 0
 244 142 255 145 268 151 c 0
 280 156 290 163 300 168 c 0
 305 170 309 161 307 157 c 0
 300 144 285 130 274 122 c 0
 259 111 219 89 182 89 c 0
 113 89 53 143 53 215 c 0
 53 306 130 414 251 414 c 0
EndSplineSet
Validated: 1
Substitution2: "'tnum' Tabular Numbers lookup 7 subtable" nine.taboldstyle
Substitution2: "'lnum' Lining Figures lookup 5 subtable" nine.lnum
EndChar

StartChar: zero
Encoding: 48 48 83
Width: 507
VWidth: 0
Flags: W
HStem: -15 41<189.1 322.003> 372 41<190.132 321.15>
VStem: 40 78<110.108 295.744> 389 78<109.707 293.68>
LayerCount: 2
Fore
SplineSet
259 372 m 0
 177.3828125 372 118 301 118 204 c 0
 118 119 165.393554688 26 247 26 c 0
 329 26 389 78 389 203 c 0
 389 286 343 372 259 372 c 0
253 413 m 24
 369.931640625 412.7265625 467 319.932617188 467 203 c 24
 467 83.861328125 372.137695312 -15.279296875 253 -15 c 24
 133.85546875 -14.720703125 40 84.85546875 40 204 c 24
 40 320.380859375 136.619140625 413.2734375 253 413 c 24
EndSplineSet
Validated: 33
Substitution2: "'tnum' Tabular Numbers lookup 7 subtable" zero.taboldstyle
Substitution2: "'lnum' Lining Figures lookup 5 subtable" zero.lnum
EndChar

StartChar: three
Encoding: 51 51 84
Width: 372
VWidth: 0
Flags: W
HStem: -190 44<61.3664 154.993> 358 55.0121<112.537 203.184>
VStem: 219 70<235.612 342.668> 243 76<-41.8585 84.5313>
LayerCount: 2
Fore
SplineSet
319 53 m 0xd0
 319 -68 234 -130 155 -169 c 0
 131 -181 98 -190 86 -190 c 0
 75 -190 59 -183 59 -176 c 0
 59 -166 74 -146 86 -146 c 0
 95 -146 136 -145 153 -136 c 0
 204 -109 243 -79 243 17 c 0xd0
 243 49 231 112 157 112 c 0
 142 112 118 105 95 92 c 0
 88 88 76 94 78 101 c 24
 84 118 97 128 109 135 c 0
 131 148 150 160 179 186 c 0
 197 202 219 239 219 292 c 0
 219 330 194 358 155 358 c 0
 110 358 88 333 58 308 c 0
 54 305 51 299 46 301 c 24
 40 303 35 309 38 315 c 0
 57.8378080527 352.6918353 116.045632368 413.012141729 181.395697865 413.012141729 c 0
 181.929993507 413.012141729 182.464766574 413.008109597 183 413 c 0
 247 412 289 372 289 309 c 0xe0
 289 277 273 212 195 167 c 0
 191 165 191 161 196 161 c 0
 288 159 319 97 319 53 c 0xd0
EndSplineSet
Validated: 1
Substitution2: "'tnum' Tabular Numbers lookup 7 subtable" three.taboldstyle
Substitution2: "'lnum' Lining Figures lookup 5 subtable" three.lnum
EndChar

StartChar: eight
Encoding: 56 56 85
Width: 452
VWidth: 0
Flags: W
HStem: -13 37<182.29 294.073> 565 24<188.041 275.712>
VStem: 61 70<73.3158 201.713> 72 70<418.737 526.356> 319 70<401.999 529.481> 333 70<78.5432 179.326>
LayerCount: 2
Fore
SplineSet
265 340 m 0xd8
 308 375 319 416 319 472 c 16
 319 519 284 565 237 565 c 8
 189 565 142 532 142 486 c 8
 142 414 188 393 253 340 c 0
 257 337 261 337 265 340 c 0xd8
286 315 m 0
 356 269 403 232 403 157 c 8
 403 60 314 -13 222 -13 c 8
 137 -13 61 47 61 132 c 16xe4
 61 214 135 256 183 282 c 0
 192 287 188 289 180 295 c 0
 123 342 72 388 72 467 c 16
 72 543 160 589 242 589 c 16
 316 589 389 540 389 465 c 16
 389 420 363 393 341 374 c 0
 323 358 313 351 291 335 c 0
 275 323 276 322 286 315 c 0
197 261 m 0
 157 229 131 207 131 147 c 8
 131 84 173 24 236 24 c 16
 292 24 333 65 333 118 c 16
 333 176 277 222 223 259 c 0
 211 267 209 270 197 261 c 0
EndSplineSet
Validated: 1
Substitution2: "'tnum' Tabular Numbers lookup 7 subtable" eight.taboldstyle
Substitution2: "'lnum' Lining Figures lookup 5 subtable" eight.lnum
EndChar

StartChar: question
Encoding: 63 63 86
Width: 355
VWidth: 0
Flags: W
HStem: -14 120<101.745 194.255> 569 92<78.9815 178.059>
VStem: 88 120<-0.254639 92.2546> 112 37<182.071 270.23> 258 51<415.721 503.256>
LayerCount: 2
Fore
SplineSet
148 106 m 24xe8
 181 106 208 79 208 46 c 24
 208 13 181 -14 148 -14 c 24
 115 -14 88 13 88 46 c 24
 88 79 115 106 148 106 c 24xe8
108 661 m 0
 141 661 183 644 216 611 c 0
 272 555 309 469 309 418 c 0
 309 369 287 345 267 334 c 0
 223 310 213 304 181 283 c 0
 153 265 150 236 149 204 c 0
 149 194 144 181 134 181 c 0
 127 181 116 194 112 210 c 0xd8
 106 233 100 247 96 293 c 0
 93 329 132 354 197 387 c 0
 225 401 258 429 258 458 c 0
 258 524 225 572 157 573 c 0
 138 573 129 569 110 569 c 0
 89 569 68 598 68 625 c 0
 68 644 91 661 108 661 c 0
EndSplineSet
Validated: 33
EndChar

StartChar: grave
Encoding: 96 96 87
Width: 279
VWidth: 0
Flags: W
HStem: 449 215
VStem: 40 178
LayerCount: 2
Fore
SplineSet
178 471 m 4
 98 582 40 617 40 636 c 4
 40 650 56.8232 663.798 74 664 c 28
 96.5039 664.265 113.915 654.947 125 637 c 4
 146 603 218 477 218 462 c 4
 218 453 214.22 449 205 449 c 4
 196 449 183.391 463.521 178 471 c 4
EndSplineSet
Validated: 33
Substitution2: "'case' Case-Sensitive Forms lookup 12 subtable" grave.cap
EndChar

StartChar: acute
Encoding: 180 180 88
Width: 382
VWidth: 0
Flags: W
HStem: 449 215
VStem: 143 178
LayerCount: 2
Fore
SplineSet
183 471 m 4
 177.609 463.521 165 449 156 449 c 4
 146.78 449 143 453 143 462 c 4
 143 477 215 603 236 637 c 4
 247.085 654.947 264.496 664.265 287 664 c 28
 304.177 663.798 321 650 321 636 c 4
 321 617 263 582 183 471 c 4
EndSplineSet
Validated: 33
Substitution2: "'case' Case-Sensitive Forms lookup 12 subtable" acute.cap
EndChar

StartChar: asciicircum
Encoding: 94 94 89
Width: 500
VWidth: 0
Flags: W
HStem: 284 319
LayerCount: 2
Fore
SplineSet
250 603 m 1
 276 566 408 375 449 305 c 0
 456 294 450 282 441 284 c 0
 429 287 410 295 404 302 c 0
 368 341 284 470 254 514 c 0
 249 520 248 520 244 514 c 0
 214 470 123 332 96 302 c 0
 89 295 71 287 59 284 c 0
 50 282 44 294 51 305 c 0
 89 369 222 564 250 603 c 1
EndSplineSet
Validated: 1
EndChar

StartChar: circumflex
Encoding: 710 710 90
Width: 0
VWidth: 0
Flags: W
HStem: 447 201
VStem: -273 212
LayerCount: 2
Fore
SplineSet
-237 465 m 6
 -242.832 457.002 -253 447 -265 447 c 4
 -273 447 -278.902 456.417 -273 468 c 6
 -273 468 -216.5 581.761 -195 619 c 4
 -184.5 637.187 -174 648 -167 648 c 4
 -160 648 -149.5 637.187 -139 619 c 4
 -114 575.699 -61 468 -61 468 c 6
 -55.0977 456.417 -61 447 -69 447 c 4
 -81 447 -92.6191 457.514 -98 465 c 6
 -98 465 -138.321 520.042 -167 561 c 5
 -195.679 520.042 -237 465 -237 465 c 6
EndSplineSet
Validated: 1
Substitution2: "'case' Case-Sensitive Forms lookup 12 subtable" circumflex.cap
EndChar

StartChar: uni0302
Encoding: 770 770 91
Width: 1000
Flags: W
HStem: 447 201
VStem: 30 217<451 475>
AnchorPoint: "top_accent" 138 550 mark 0
LayerCount: 2
Fore
SplineSet
135 553 m 0
 110 523 81 485 69 469 c 0
 62 460 47 447 39 447 c 0
 30 447 30 451 30 460 c 0
 30 475 98 597 118 630 c 0
 123 639 130 648 138 648 c 0
 146 648 153 639 158 630 c 0
 178 597 247 475 247 460 c 0
 247 451 247 447 238 447 c 0
 230 447 215 459 208 469 c 0
 196 485 166 523 142 553 c 0
 139 557 138 557 135 553 c 0
EndSplineSet
Validated: 1
EndChar

StartChar: uni030C
Encoding: 780 780 92
Width: 1000
Flags: W
HStem: 455 185
VStem: 30 216<614 636>
AnchorPoint: "top_accent" 139 533 mark 0
LayerCount: 2
Fore
SplineSet
135 533 m 0
 138 529 139 529 142 533 c 0
 164 563 195 603 208 618 c 0
 216 627 229 640 237 640 c 0
 246 640 246 636 246 627 c 0
 246 614 178 504 158 473 c 0
 153 465 146 455 138 455 c 0
 130 455 123 465 118 473 c 0
 98 504 30 614 30 627 c 0
 30 636 30 640 39 640 c 0
 47 640 61 627 69 618 c 0
 82 603 113 563 135 533 c 0
EndSplineSet
Validated: 1
EndChar

StartChar: hyphen
Encoding: 45 45 94
Width: 274
VWidth: 0
Flags: W
HStem: 170 85
VStem: 29 216
LayerCount: 2
Fore
SplineSet
39 170 m 0
 30 169 29 171 29 176 c 24
 31 198 35 229 45 230 c 0
 109 239 173 248 237 255 c 0
 241 255 245 253 245 249 c 0
 243 224 240 197 224 195 c 0
 164 186 103 177 39 170 c 0
EndSplineSet
Validated: 1
EndChar

StartChar: numbersign
Encoding: 35 35 95
Width: 468
VWidth: 0
Flags: W
HStem: 204 60<21.8772 94 149 191> 214 60<206 248 303 368.945> 402 60<68.8772 142 198 239.5> 412 60<254.5 296 352 415.945> 630 20G<225 235.5 380 390.5>
LayerCount: 2
Fore
SplineSet
134 206 m 1x58
 90 27 l 2
 87 14 73 12 60 12 c 0
 53 12 48 20 50 27 c 2
 94 204 l 1
 31 201 l 2
 24 201 17 207 17 213 c 0
 17 222 20 260 41 261 c 2
 108 264 l 1
 142 402 l 1
 78 399 l 2
 71 399 64 405 64 411 c 0
 64 420 67 458 88 459 c 2
 157 462 l 1xa8
 199 633 l 2
 202 647 218 650 232 650 c 0
 239 650 241 640 239 633 c 2
 198 464 l 1
 311 470 l 1
 354 644 l 2
 357 658 373 661 387 661 c 0
 394 661 396 651 394 644 c 2
 352 472 l 1
 411 475 l 2
 418 475 426 468 424 461 c 0
 418 440 415 416 393 415 c 2
 337 412 l 1
 303 274 l 1
 364 277 l 2
 371 277 379 270 377 263 c 0
 371 242 368 218 346 217 c 2
 288 214 l 1
 245 38 l 2
 242 25 228 23 215 23 c 0
 208 23 203 31 205 38 c 2
 248 212 l 1
 134 206 l 1x58
149 266 m 1
 263 272 l 1
 296 410 l 1
 183 404 l 1
 149 266 l 1
EndSplineSet
Validated: 1
EndChar

StartChar: slash
Encoding: 47 47 96
Width: 399
VWidth: 0
Flags: W
LayerCount: 2
Fore
SplineSet
30 -47 m 26
 327 648 l 26
 334 663 349 665 366 665 c 24
 374 665 382 656 379 648 c 26
 82 -47 l 26
 76 -61 61 -62 46 -62 c 24
 37 -62 27 -55 30 -47 c 26
EndSplineSet
Validated: 1
EndChar

StartChar: backslash
Encoding: 92 92 97
Width: 399
VWidth: 0
Flags: W
LayerCount: 2
Fore
SplineSet
378 -47 m 26
 381 -55 371 -62 362 -62 c 24
 347 -62 332 -61 326 -47 c 26
 29 648 l 26
 26 656 34 665 42 665 c 24
 59 665 74 663 81 648 c 26
 378 -47 l 26
EndSplineSet
Validated: 1
EndChar

StartChar: dollar
Encoding: 36 36 98
Width: 458
VWidth: 0
Flags: W
HStem: -19 35<235.406 305.206>
VStem: 83 77<460.381 567.593> 352 90<82.9904 207.621> 394 36<493.342 558.672>
LayerCount: 2
Fore
SplineSet
264 270 m 2xe0
 234 26 l 2
 233 17 237 16 242 16 c 0
 317 21 352 54 352 148 c 0
 352 198 293 258 268 275 c 0
 265 277 265 275 264 270 c 2xe0
292 367 m 0
 343 331 442 273 442 171 c 0xe0
 442 91 386 -19 236 -19 c 0
 233 -19 228 -20 227 -25 c 2
 218 -101 l 10
 216.663 -112.291 204.37 -116 193 -116 c 24
 184.446 -116 175.926 -109.485 177 -101 c 18
 187 -22 l 2
 187 -19 184 -15 181 -15 c 0
 145 -9 122 2 98 8 c 0
 84 11 86 15 84 20 c 0
 73 43 55 122 53 158 c 0
 53 166 62 174 73 174 c 0
 82 174 113 62 185 26 c 0
 188 25 193 25 193 28 c 2
 226 297 l 2
 226 300 226 305 214 314 c 0
 145 362 83 417 83 497 c 0
 83 555 137 651 261 659 c 0
 267 660 270.544 662.035 271 665 c 2
 275 691 l 14
 276.993 703.958 290.89 708 304 708 c 28
 312.347 708 318.27 699.249 317 691 c 22
 313 665 l 2
 312.544 662.035 314 659 319 658 c 0
 359 655 383 647 398 644 c 8
 408.871 641.826 414 632 416 622 c 0
 422 588 430 550 430 515 c 0
 430 506 425 490 420 490 c 0
 415 490 398 500 394 515 c 0xd0
 378 575 344 605 312 618 c 0
 309 619 307 615 307 613 c 2
 279 386 l 2
 277 371 280 376 292 367 c 0
259 627 m 0
 201 622 160 569 160 517 c 0
 160 476 193 440 231 411 c 0
 235 408 240 409 240 413 c 2
 266 619 l 2
 266 624 264 627 259 627 c 0
EndSplineSet
Validated: 1
EndChar

StartChar: equal
Encoding: 61 61 99
Width: 590
VWidth: 0
Flags: W
HStem: 143 50<53.2358 534.448> 314 50<53.2358 534.448>
LayerCount: 2
Fore
SplineSet
74 193 m 26
 527 193 l 26
 534.451171875 193 542.523817893 186.010605258 540 179 c 24
 533.724609375 161.567382812 527.528320312 143 509 143 c 26
 64 143 l 26
 56.80859375 143 50 149 50 155 c 0
 50 164 56.4716796875 193 74 193 c 26
74 364 m 26
 527 364 l 26
 534.451171875 364 542.523817893 357.010605258 540 350 c 24
 533.724609375 332.567382812 527.528320312 314 509 314 c 26
 64 314 l 26
 56.80859375 314 50 320 50 326 c 0
 50 335 56.4716796875 364 74 364 c 26
EndSplineSet
Validated: 1
EndChar

StartChar: plus
Encoding: 43 43 100
Width: 590
VWidth: 0
Flags: W
HStem: -8 21G<279 286.5> 222 50<53.2358 270 330 544.448>
VStem: 270 60<-4.15825 222 272.011 475.038>
LayerCount: 2
Fore
SplineSet
330 278 m 6
 330 271 331 272 334 272 c 6
 537 272 l 14
 544.451171875 272 552.523817893 265.010605258 550 258 c 28
 543.724609375 240.567382812 537.528320312 222 519 222 c 18
 334 222 l 2
 331 222 330 221 330 218 c 2
 330 16 l 10
 330 -4.9296875 291 -8 282 -8 c 0
 276 -8 270 -1.19140625 270 6 c 18
 270 217 l 2
 270 220 269 222 266 222 c 2
 64 222 l 10
 56.80859375 222 50 228 50 234 c 0
 50 243 56.4716796875 272 74 272 c 22
 263 272 l 6
 269 272 270 274 270 280 c 6
 270 451 l 14
 270 472.633789062 310 482 316 482 c 4
 323 482 330 476.451171875 330 469 c 22
 330 278 l 6
EndSplineSet
Validated: 1
EndChar

StartChar: less
Encoding: 60 60 101
Width: 590
VWidth: 0
Flags: W
LayerCount: 2
Fore
SplineSet
133 229 m 6
 513 55 l 14
 532 46 537 16 537 7 c 4
 537 1 530 -8 523 -5 c 30
 94 195 l 30
 77 203 53 216 53 222 c 4
 53 231 66 259 86 268 c 30
 523 468 l 30
 530 471 538 461 536 454 c 28
 530 433 525 417 505 408 c 22
 132 234 l 6
 129 233 130 230 133 229 c 6
EndSplineSet
Validated: 1
EndChar

StartChar: greater
Encoding: 62 62 102
Width: 590
VWidth: 0
Flags: W
LayerCount: 2
Fore
SplineSet
457 234 m 6
 77 408 l 14
 58 417 53 447 53 456 c 4
 53 462 60 471 67 468 c 30
 496 268 l 30
 513 260 537 247 537 241 c 4
 537 232 524 204 504 195 c 30
 67 -5 l 30
 60 -8 52 2 54 9 c 28
 60 30 65 46 85 55 c 22
 458 229 l 6
 461 230 460 233 457 234 c 6
EndSplineSet
Validated: 1
EndChar

StartChar: underscore
Encoding: 95 95 103
Width: 500
VWidth: 0
Flags: W
HStem: -182 50<3.23578 494.448>
LayerCount: 2
Fore
SplineSet
24 -132 m 30
 487 -132 l 30
 494.451 -132 502.524 -138.989 500 -146 c 28
 493.725 -163.433 487.528 -182 469 -182 c 26
 14 -182 l 26
 6.80859 -182 0 -176 0 -170 c 0
 0 -161 6.47168 -132 24 -132 c 30
EndSplineSet
Validated: 1
EndChar

StartChar: endash
Encoding: 8211 8211 104
Width: 550
VWidth: 0
Flags: W
HStem: 185 54<53.6248 493.825>
LayerCount: 2
Fore
SplineSet
74 239 m 26
 487 239 l 26
 494 239 502 232 500 225 c 24
 494 206 489 185 469 185 c 26
 64 185 l 26
 57 185 50 191 50 197 c 0
 50 206 55 239 74 239 c 26
EndSplineSet
Validated: 1
EndChar

StartChar: emdash
Encoding: 8212 8212 105
Width: 950
VWidth: 0
Flags: W
HStem: 185 54<53.6248 893.825>
LayerCount: 2
Fore
SplineSet
74 239 m 26
 887 239 l 26
 894 239 902 232 900 225 c 24
 894 206 889 185 869 185 c 26
 64 185 l 26
 57 185 50 191 50 197 c 0
 50 206 55 239 74 239 c 26
EndSplineSet
Validated: 1
EndChar

StartChar: bar
Encoding: 124 124 106
Width: 260
VWidth: 0
Flags: W
HStem: -289 21G<109 116.5>
VStem: 100 60<-285.158 700.038>
LayerCount: 2
Fore
SplineSet
100 676 m 10
 100 697.633789062 140 707 146 707 c 0
 153 707 160 701.451171875 160 694 c 18
 160 -265 l 14
 160 -285.9296875 121 -289 112 -289 c 4
 106 -289 100 -282.19140625 100 -275 c 22
 100 676 l 10
EndSplineSet
Validated: 1
EndChar

StartChar: brokenbar
Encoding: 166 166 107
Width: 260
VWidth: 0
Flags: W
HStem: -290 21G<109 116.5> 276 21G<109 116.5> 685 20G<143 149.5>
VStem: 100 60<-286.158 171.668 282.519 698.038>
LayerCount: 2
Fore
SplineSet
112 276 m 0
 106 276 100 289 100 299 c 2
 100 674 l 10
 100 695.633789062 140 705 146 705 c 0
 153 705 160 699.451171875 160 692 c 18
 160 297 l 2
 160 287 121 276 112 276 c 0
146 179 m 4
 153 179 160 167 160 157 c 6
 160 -266 l 14
 160 -286.9296875 121 -290 112 -290 c 4
 106 -290 100 -283.19140625 100 -276 c 22
 100 156 l 6
 100 166 140 179 146 179 c 4
EndSplineSet
Validated: 1
EndChar

StartChar: parenleft
Encoding: 40 40 108
Width: 315
VWidth: 0
Flags: W
VStem: 40 60<122.186 412.903>
LayerCount: 2
Fore
SplineSet
40 269 m 0
 40 439 145 623 216 694 c 0
 223 701 230 703 240 704 c 24
 248 705 255 704 261 698 c 24
 265 694 266 686 262 682 c 0
 191 611 100 451 100 281 c 0
 100 111 191 -115 262 -186 c 0
 266 -190 264 -198 260 -204 c 24
 255 -210 250 -212 242 -213 c 24
 233 -214 226 -213 220 -207 c 0
 149 -136 40 99 40 269 c 0
EndSplineSet
Validated: 1
EndChar

StartChar: parenright
Encoding: 41 41 109
Width: 316
VWidth: 0
Flags: W
HStem: 684 20G<61.5 72>
VStem: 206 60<134.229 415.813>
LayerCount: 2
Fore
SplineSet
266 281 m 0
 266 111 154 -136 83 -207 c 0
 77 -213 70 -214 61 -213 c 24
 51 -212 45 -210 39 -202 c 24
 35 -197 37 -190 41 -186 c 0
 112 -115 206 97 206 267 c 0
 206 437 116 611 45 682 c 0
 41 686 37 691 41 695 c 24
 49 703 56 704 67 704 c 24
 77 704 84 701 91 694 c 0
 162 623 266 451 266 281 c 0
EndSplineSet
Validated: 1
EndChar

StartChar: asciitilde
Encoding: 126 126 110
Width: 500
VWidth: 0
Flags: W
HStem: 260 73<254.041 377.762> 308 73<121.948 238.491>
LayerCount: 2
Fore
SplineSet
50 279 m 0x40
 71 318 130 381 175 381 c 0x40
 221 381 271 333 337 333 c 16
 364 333 420 358 437 380 c 0
 442 387 453 368 450 362 c 0
 436 335 374 260 325 260 c 0x80
 277 260 212 308 158 308 c 0
 135 308 81 279 65 261 c 0
 60 256 47 273 50 279 c 0x40
EndSplineSet
Validated: 1
EndChar

StartChar: tildecomb
Encoding: 771 771 111
Width: 1000
Flags: W
HStem: 453 21G<35 44> 483 66<106.697 244.916> 490 67<78.2107 213.803>
VStem: 26 268
AnchorPoint: "top_accent" 152 533 mark 0
LayerCount: 2
Fore
SplineSet
40 453 m 0xb0
 30 453 26 463 26 473 c 0
 26 483 89 557 114 557 c 0xb0
 139 557 196 549 221 549 c 0
 256 549 270 583 278 583 c 0
 288 583 294 576 294 566 c 0
 294 556 234 483 209 483 c 0xd0
 184 483 122 490 97 490 c 0
 72 490 48 453 40 453 c 0xb0
EndSplineSet
Validated: 1
EndChar

StartChar: periodcentered
Encoding: 183 183 113
Width: 200
VWidth: 0
Flags: W
HStem: 150 110<56.7433 143.257>
VStem: 45 110<161.743 248.257>
LayerCount: 2
Fore
SplineSet
100 260 m 28
 130.335 260 155 235.335 155 205 c 28
 155 174.665 130.335 150 100 150 c 28
 69.665 150 45 174.665 45 205 c 28
 45 235.335 69.665 260 100 260 c 28
EndSplineSet
Validated: 1
EndChar

StartChar: guillemotright
Encoding: 187 187 116
Width: 676
VWidth: 0
Flags: W
LayerCount: 2
Fore
SplineSet
257 217 m 0
 213 251 161 291 105 376 c 0
 98 387 98 402 107 400 c 0
 119 397 128 388 135 382 c 0
 204 316 259 279 361 218 c 0
 369 213 359 188 346 182 c 0
 287 155 210 104 141 37 c 0
 134 31 125 22 113 19 c 0
 104 17 98 29 105 40 c 0
 161 125 213 169 257 203 c 0
 265 209 265 211 257 217 c 0
469 217 m 0
 425 251 373 291 317 376 c 0
 310 387 310 402 319 400 c 0
 331 397 340 388 347 382 c 0
 416 316 471 279 573 218 c 0
 581 213 571 188 558 182 c 0
 499 155 422 104 353 37 c 0
 346 31 337 22 325 19 c 0
 316 17 310 29 317 40 c 0
 373 125 425 169 469 203 c 0
 477 209 477 211 469 217 c 0
EndSplineSet
Validated: 33
EndChar

StartChar: guillemotleft
Encoding: 171 171 117
Width: 676
VWidth: 0
Flags: W
LayerCount: 2
Fore
SplineSet
419 217 m 0
 411 211 411 209 419 203 c 0
 463 169 515 125 571 40 c 0
 578 29 571 17 563 19 c 0
 551 22 541 31 535 37 c 0
 466 104 389 155 330 182 c 0
 317 188 307 213 315 218 c 0
 417 279 472 316 541 382 c 0
 547 388 557 397 569 400 c 0
 577 402 578 387 571 376 c 0
 515 291 463 251 419 217 c 0
207 217 m 0
 199 211 199 209 207 203 c 0
 251 169 303 125 359 40 c 0
 366 29 359 17 351 19 c 0
 339 22 329 31 323 37 c 0
 254 104 177 155 118 182 c 0
 105 188 95 213 103 218 c 0
 205 279 260 316 329 382 c 0
 335 388 345 397 357 400 c 0
 365 402 366 387 359 376 c 0
 303 291 251 251 207 217 c 0
EndSplineSet
Validated: 33
EndChar

StartChar: guilsinglright
Encoding: 8250 8250 118
Width: 464
VWidth: 0
Flags: W
LayerCount: 2
Fore
SplineSet
257 217 m 0
 213 251 161 291 105 376 c 0
 98 387 98 402 107 400 c 0
 119 397 128 388 135 382 c 0
 204 316 259 279 361 218 c 0
 369 213 359 188 346 182 c 0
 287 155 210 104 141 37 c 0
 134 31 125 22 113 19 c 0
 104 17 98 29 105 40 c 0
 161 125 213 169 257 203 c 0
 265 209 265 211 257 217 c 0
EndSplineSet
Validated: 33
EndChar

StartChar: guilsinglleft
Encoding: 8249 8249 119
Width: 464
VWidth: 0
Flags: W
LayerCount: 2
Fore
SplineSet
207 217 m 0
 199 211 199 209 207 203 c 0
 251 169 303 125 359 40 c 0
 366 29 359 17 351 19 c 0
 339 22 329 31 323 37 c 0
 254 104 177 155 118 182 c 0
 105 188 95 213 103 218 c 0
 205 279 260 316 329 382 c 0
 335 388 345 397 357 400 c 0
 365 402 366 387 359 376 c 0
 303 291 251 251 207 217 c 0
EndSplineSet
Validated: 33
EndChar

StartChar: uni00AD
Encoding: 173 173 120
Width: 274
VWidth: 0
Flags: W
HStem: 170 85
VStem: 29 216
LayerCount: 2
Fore
SplineSet
39 170 m 0
 30 169 29 171 29 176 c 24
 31 198 35 229 45 230 c 0
 109 239 173 248 237 255 c 0
 241 255 245 253 245 249 c 0
 243 224 240 197 224 195 c 0
 164 186 103 177 39 170 c 0
EndSplineSet
Validated: 1
EndChar

StartChar: uni0306
Encoding: 774 774 121
Width: 1000
Flags: W
HStem: 461 60<106.4 231.6>
VStem: 62 30<543.36 590.992> 246 30<543.36 590.992>
AnchorPoint: "top_accent" 169 533 mark 0
LayerCount: 2
Fore
SplineSet
92 570 m 0
 97 545 119 521 169 521 c 0
 219 521 241 545 246 570 c 0
 248 580 251 591 261 591 c 0
 271 591 276 580 276 567 c 0
 276 517 239 461 169 461 c 0
 99 461 62 517 62 567 c 0
 62 580 67 591 77 591 c 0
 87 591 90 580 92 570 c 0
EndSplineSet
Validated: 1
EndChar

StartChar: uni0307
Encoding: 775 775 122
Width: 1000
Flags: W
HStem: 493 101<71.1171 153.823>
VStem: 62 101<502.117 584.823>
AnchorPoint: "top_accent" 111 550 mark 0
LayerCount: 2
Fore
SplineSet
62 543 m 0
 62 572 84 594 112 594 c 0
 141 594 163 572 163 543 c 0
 163 515 141 493 112 493 c 0
 84 493 62 515 62 543 c 0
EndSplineSet
Validated: 1
EndChar

StartChar: uni030A
Encoding: 778 778 123
Width: 1000
Flags: W
HStem: 480 26<87.0434 143.692> 620 27<78.8786 135.359>
VStem: 28 41<517.159 614.013> 155 41<512.696 608.205>
AnchorPoint: "top_accent" 111 550 mark 0
LayerCount: 2
Fore
SplineSet
115 647 m 0
 159 647 196 613 196 569 c 0
 196 517 153 480 109 480 c 0
 65 480 28 519 28 563 c 0
 28 607 71 647 115 647 c 0
69 568 m 0
 69 535 88 506 116 506 c 0
 146 506 155 530 155 562 c 0
 155 590 134 620 106 620 c 0
 78 620 69 596 69 568 c 0
EndSplineSet
Validated: 1
EndChar

StartChar: uni030B
Encoding: 779 779 124
Width: 1000
Flags: W
HStem: 456 193<138 147>
VStem: 14 281
AnchorPoint: "top_accent" 109 550 mark 0
LayerCount: 2
Fore
SplineSet
177 478 m 0
 169 469 155 456 147 456 c 0
 138 456 138 460 138 469 c 0
 138 484 200 598 219 631 c 0
 225 641 236 649 246 649 c 0
 271 649 295 642 295 626 c 0
 295 612 208 511 177 478 c 0
53 478 m 0
 45 469 31 456 23 456 c 0
 14 456 14 460 14 469 c 0
 14 484 76 598 95 631 c 0
 101 641 112 649 122 649 c 0
 147 649 171 642 171 626 c 0
 171 612 84 511 53 478 c 0
EndSplineSet
Validated: 1
EndChar

StartChar: uni0312
Encoding: 786 786 125
Width: 1000
Flags: W
HStem: 469 78<89.5161 156.433> 668 21<133.443 175.96>
VStem: 32 52<549.828 626.122>
AnchorPoint: "top_accent" 107 550 mark 0
LayerCount: 2
Fore
SplineSet
115 547 m 0
 144 547 162 527 162 505 c 0
 162 489 144 469 115 469 c 0
 67 469 32 510 32 566 c 0
 32 630 105 687 156 689 c 1
 158 689 l 2
 170 689 176 684 176 679 c 0
 176 675 171 670 162 668 c 0
 118 659 84 626 84 592 c 0
 84 571 96 547 115 547 c 0
EndSplineSet
Validated: 1
EndChar

StartChar: uni0313
Encoding: 787 787 126
Width: 1000
Flags: W
HStem: 461 21<10.0396 51.456> 603 78<5.56667 84.873>
VStem: 94 52<519.849 594.689>
AnchorPoint: "top_accent" 66 550 mark 0
LayerCount: 2
Fore
SplineSet
47 603 m 0
 18 604 0 623 0 645 c 0
 0 661 18 681 47 681 c 0
 95 681 146 640 146 584 c 0
 146 520 81 463 30 461 c 1
 28 461 l 2
 16 461 10 466 10 471 c 0
 10 475 15 480 24 482 c 0
 67 491 94 524 94 557 c 0
 94 578 77 601 47 603 c 0
EndSplineSet
Validated: 1
EndChar

StartChar: uni0314
Encoding: 788 788 127
Width: 1000
Flags: W
HStem: 466 21<126.544 167.954> 608 78<97.4508 172.433>
VStem: 32 52<521.956 596.595>
AnchorPoint: "top_accent" 107 550 mark 0
LayerCount: 2
Fore
SplineSet
131 608 m 0
 111 608 84 580 84 558 c 0
 84 528 111 496 154 487 c 0
 163 485 168 480 168 476 c 0
 168 471 161 466 148 466 c 0
 97 466 32 519 32 589 c 0
 32 645 83 686 131 686 c 0
 160 686 178 666 178 650 c 0
 178 628 160 608 131 608 c 0
EndSplineSet
Validated: 1
EndChar

StartChar: uni0328
Encoding: 808 808 128
Width: 1000
Flags: W
HStem: -287 66<95.324 164.883>
VStem: 6 74<-206.017 -103.775>
AnchorPoint: "ogonek" 156 18 mark 0
LayerCount: 2
Fore
SplineSet
107 -287 m 0
 49 -287 6 -253 6 -179 c 0
 6 -72 144 18 144 18 c 1
 170 18 l 1
 170 18 80 -43 80 -152 c 0
 80 -196 106 -221 140 -221 c 0
 175 -221 194 -200 199 -200 c 0
 203 -200 207 -201 207 -207 c 0
 207 -226 163 -287 107 -287 c 0
EndSplineSet
Validated: 1
EndChar

StartChar: uni0326
Encoding: 806 806 129
Width: 1000
Flags: W
HStem: -145 88<48.6911 116.02>
VStem: 118 54<-221.876 -148.082>
AnchorPoint: "below_accent" 106 -100 mark 0
LayerCount: 2
Fore
SplineSet
64 -275 m 0
 56 -275 51 -271 51 -266 c 0
 51 -261 56 -256 65 -253 c 0
 104 -239 118 -202 118 -174 c 0
 118 -156 106 -149 88 -145 c 0
 65 -140 38 -122 38 -100 c 0
 38 -76 55 -57 84 -57 c 0
 132 -57 172 -98 172 -154 c 0
 172 -239 89 -275 64 -275 c 0
EndSplineSet
Validated: 1
EndChar

StartChar: dcaron
Encoding: 271 271 194
Width: 519
Flags: W
HStem: -3 36<172.032 337.854> 0 24<18.1875 49.579> 422 31<142.997 312.128>
VStem: 83 75<45.4952 399.614> 421 85<131.07 322.825>
LayerCount: 2
Fore
SplineSet
177.275 692 m 2x38
 247.275 596 l 1
 316.275 692 l 2
 321.65586 699.48633 333.275 710 345.275 710 c 0
 353.275 710 359.1773 700.58301 353.275 689 c 2
 353.275 689 300.275 581.301 275.275 538 c 0
 264.775 519.8135 254.275 509 247.275 509 c 0
 240.275 509 229.775 519.8135 219.275 538 c 0
 197.775 575.2393 141.275 689 141.275 689 c 2
 135.37266 700.583 141.275 710 149.275 710 c 0
 161.275 710 171.443 699.998 177.275 692 c 2x38
181 43 m 0
 195 32 224 33 267 33 c 0xb8
 329 33 357 61 376 81 c 0
 399 106 421 155 421 242 c 0
 421 319 357 421 246 422 c 0
 189 422 158 411 158 383 c 2
 158 91 l 2
 158 63 167 54 181 43 c 0
263 -3 m 0
 250 -3 178.8672 2.33203 125 3 c 0
 84.4258 3.50293 39 0 21 0 c 0
 16 0 16 23 21 24 c 0x78
 40 29 50.7441 34.1025 64 48 c 0
 76.1641 60.7529 82 71 83 89 c 1
 83 350 l 2
 83 369 81 392 74 400 c 0
 61 415 59 416 34 423 c 0
 28 425 23.2422 448 33 448 c 0
 61 448 83.0107 446 115 446 c 0
 140 446 225 453 243 453 c 0
 420 453 507 351 506 235 c 0
 505 153 475 108 452 79 c 0
 419 37 348 -3 263 -3 c 0
EndSplineSet
Validated: 524321
EndChar

StartChar: lcommaaccent
Encoding: 316 316 230
Width: 470
Flags: W
HStem: -279 21<187.576 215.712> -150 88<181.482 249.02> -1 22<19.3836 56.1625> 2 30<175.271 350.335> 428 24<31.3807 69.0295 192.197 246.501>
VStem: 89 75<40.2419 405.613> 251.5 53.5<-226.477 -153.127>
LayerCount: 2
Fore
SplineSet
220.5 -150 m 0xce
 198 -145 171 -127.5 171 -105.5 c 0
 171 -81.5 188 -62 217 -62 c 0
 265 -62 305 -103 305 -159 c 0
 305 -223 254 -268.5 204 -279 c 0
 180.4922 -283.93652 177.8799 -265.2227 198 -258 c 0
 237 -244 251.5 -206.5 251.5 -178.5 c 0
 251.5 -161.5 239.207 -154.1572 220.5 -150 c 0xce
242 429 m 0
 214 421 190 421 177 406 c 0
 169 398 164 373 164 353 c 2
 164 86 l 2
 164 58 172 32 218 32 c 2
 314 32 l 2
 318 32 342 38 354 50 c 0
 375 71 383 89 395 114 c 0
 398 119 412 122 423 121 c 0
 428 121 433 117 432 112 c 0
 422 76 413 39 410 10 c 0
 410 4 402 -2 395 -2 c 0
 291 -2 199 2 129 2 c 0xde
 94 2 23 -1 23 -1 c 2
 18 -1 17 20 23 21 c 0xee
 46 27 55 28 69 42 c 0
 82 55 89 66 89 84 c 2
 89 354 l 2
 89 374 87 398 80 406 c 0
 66 421 63 420 36 428 c 0
 30 429 27 452 36 452 c 0
 65 452 82 450 112 450 c 0
 163 450 224 454 242 453 c 0
 252 453 248 430 242 429 c 0
EndSplineSet
Validated: 524321
EndChar

StartChar: Lcaron
Encoding: 317 317 231
Width: 574
VWidth: 0
Flags: W
HStem: -5 29<27.3563 94.228> -5 40<220.001 480.636> 622 31<37.0745 116.488 238.822 330.926>
VStem: 130 80<47.25 603.136> 423 72<532.326 651.686> 541 34<139.048 159.894>
LayerCount: 2
Fore
SplineSet
425 495.033203125 m 4x3c
 429 536 430 550 423 614.033203125 c 4
 421.474609375 627.985351562 433 643.033203125 442 650.033203125 c 4
 458 662.033203125 464 665.033203125 480 665.033203125 c 4
 495 665.033203125 498 642.033203125 495 621.033203125 c 4
 485 552.033203125 472.5 527.5 457 497.033203125 c 4
 451.10546875 485.446289062 436 472.033203125 431 472.033203125 c 4
 426 472.033203125 424.125 486.076171875 425 495.033203125 c 4x3c
EndSplineSet
Refer: 36 76 N 1 0 0 1 0 0 2
Validated: 33
EndChar

StartChar: lcaron
Encoding: 318 318 232
Width: 444
Flags: W
HStem: -1 22<19.3836 56.1625> 2 30<175.271 350.335> 272.033 21G<328.5 333.5> 428 24<31.3807 69.0295 192.197 246.501>
VStem: 89 75<40.2419 405.613> 323 68<332.326 451.685>
LayerCount: 2
Fore
SplineSet
325 295.033 m 0x3c
 329 335.9998 330 349.9998 323 414.033 c 0
 321.47461 427.9851 333 443.033 342 450.033 c 0
 358 462.033 360 465.033 376 465.033 c 0
 391 465.033 394 442.033 391 421.033 c 0
 381 352.033 368.5 327.4998 353 297.033 c 0
 347.10547 285.4461 336 272.033 331 272.033 c 0
 326 272.033 324.125 286.076 325 295.033 c 0x3c
242 429 m 0
 214 421 190 421 177 406 c 0
 169 398 164 373 164 353 c 2
 164 86 l 2
 164 58 172 32 218 32 c 2
 314 32 l 2
 318 32 342 38 354 50 c 0
 375 71 383 89 395 114 c 0
 398 119 412 122 423 121 c 0
 428 121 433 117 432 112 c 0
 422 76 413 39 410 10 c 0
 410 4 402 -2 395 -2 c 0
 291 -2 199 2 129 2 c 0x7c
 94 2 23 -1 23 -1 c 2
 18 -1 17 20 23 21 c 0xbc
 46 27 55 28 69 42 c 0
 82 55 89 66 89 84 c 2
 89 354 l 2
 89 374 87 398 80 406 c 0
 66 421 63 420 36 428 c 0
 30 429 27 452 36 452 c 0
 65 452 82 450 112 450 c 0
 163 450 224 454 242 453 c 0
 252 453 248 430 242 429 c 0
EndSplineSet
Validated: 33
EndChar

StartChar: Ldot
Encoding: 319 319 233
Width: 574
VWidth: 0
Flags: W
HStem: -5 29<27.3563 94.228> -5 40<220.001 480.636> 314 100<360.438 443.562> 622 31<37.0745 116.488 238.822 330.926>
VStem: 130 80<47.25 603.136> 352 100<322.438 405.562> 541 34<139.048 159.894>
LayerCount: 2
Fore
SplineSet
402 414 m 24x3e
 430 414 452 392 452 364 c 24
 452 336 430 314 402 314 c 24
 374 314 352 336 352 364 c 24
 352 392 374 414 402 414 c 24x3e
EndSplineSet
Refer: 36 76 N 1 0 0 1 0 0 3
Validated: 1
Ligature2: "'liga' Standard Ligatures lookup 9 subtable" L.CAT periodcentered
EndChar

StartChar: ldot
Encoding: 320 320 234
Width: 480
Flags: W
HStem: -1 22<19.3836 56.1625> 2 30<175.271 350.335> 205 101<281.143 361.857> 428 24<31.3807 69.0295 192.197 246.501>
VStem: 89 75<40.2419 405.613> 272 99<213.635 297.365>
LayerCount: 2
Fore
SplineSet
321.5 306 m 0x3c
 348.8018 306 371 283.3525 371 255.5 c 0
 371 227.6475 348.8018 205 321.5 205 c 0
 294.1982 205 272 227.6475 272 255.5 c 0
 272 283.3525 294.1982 306 321.5 306 c 0x3c
242 429 m 0
 214 421 190 421 177 406 c 0
 169 398 164 373 164 353 c 2
 164 86 l 2
 164 58 172 32 218 32 c 2
 314 32 l 2
 318 32 342 38 354 50 c 0
 375 71 383 89 395 114 c 0
 398 119 412 122 423 121 c 0
 428 121 433 117 432 112 c 0
 422 76 413 39 410 10 c 0
 410 4 402 -2 395 -2 c 0
 291 -2 199 2 129 2 c 0x7c
 94 2 23 -1 23 -1 c 2
 18 -1 17 20 23 21 c 0xbc
 46 27 55 28 69 42 c 0
 82 55 89 66 89 84 c 2
 89 354 l 2
 89 374 87 398 80 406 c 0
 66 421 63 420 36 428 c 0
 30 429 27 452 36 452 c 0
 65 452 82 450 112 450 c 0
 163 450 224 454 242 453 c 0
 252 453 248 430 242 429 c 0
EndSplineSet
Validated: 33
Ligature2: "'liga' Standard Ligatures lookup 9 subtable" l.CAT periodcentered
LCarets2: 1 0 
EndChar

StartChar: tcaron
Encoding: 357 357 264
Width: 489
Flags: W
HStem: -3 25<121.73 164.086 296.914 339.703> 406 41<72.246 180.16 268.66 420.189>
VStem: 23 34<358.276 395.937> 193 75<46.4591 403.896> 424 28<347.656 398.928>
LayerCount: 2
Fore
SplineSet
156.275 691 m 2
 226.275 595 l 1
 295.275 691 l 2
 300.65586 698.48633 312.275 709 324.275 709 c 0
 332.275 709 338.1773 699.58301 332.275 688 c 2
 332.275 688 279.275 580.301 254.275 537 c 0
 243.775 518.8135 233.275 508 226.275 508 c 0
 219.275 508 208.775 518.8135 198.275 537 c 0
 176.775 574.2393 120.275 688 120.275 688 c 2
 114.37266 699.583 120.275 709 128.275 709 c 0
 140.275 709 150.443 698.998 156.275 691 c 2
377 406 m 0
 342 406 291 405 279 404 c 0
 270 403 268 387 268 374 c 2
 268 81 l 2
 268 66 270.21777 55.7871 281 46 c 0
 297.5391 30.9883 312 26 333 22 c 0
 344 19 343 -3 333 -3 c 0
 294 -3 269.041 4 228 4 c 0
 188.9043 4 165 -3 128 -3 c 0
 120 -3 117 19 128 22 c 0
 149 26 163.4609 30.98828 180 46 c 0
 190.7822 55.78711 193 66 193 81 c 2
 193 374 l 2
 193 386 192 402 181 404 c 0
 163 407 150 406 107 406 c 0
 86 406 67 395 57 378 c 0
 53 370 35 350 25 350 c 0
 14 350 19 367 23 376 c 0
 36 402 36 438 40 467 c 0
 42 482 50 482 53 482 c 0
 57 482 68 468 72 461 c 0
 77 451 98 447 116 447 c 2
 387 447 l 2
 408 447 427 447 438 460 c 0
 446 468 458 472 462 472 c 0
 465 472 472 466 469 460 c 0
 459 441 455 396 452 366 c 0
 451.12793 357.2793 448 346 440 347 c 0
 432 348 426 364 424 370 c 0
 420 387 421 406 377 406 c 0
EndSplineSet
Validated: 524321
EndChar

StartChar: Ohorn
Encoding: 416 416 288
Width: 783
VWidth: 0
Flags: W
HStem: -14 39<314.694 492.027> 625 39<291.968 474.205>
VStem: 50 97<219.261 447.814> 626 97<206.698 451.269> 706 56<605.697 675.5>
AnchorPoint: "cedilla" 412 8 basechar 0
AnchorPoint: "ogonek" 520 18 basechar 0
AnchorPoint: "below_accent" 370 -100 basechar 0
AnchorPoint: "top_accent" 383 700 basechar 0
LayerCount: 2
Fore
SplineSet
665.097 552 m 1xe8
 674 542 l 1
 721.453 486.374 723 420.861 723 335 c 0xf0
 723 155 606 -14 387 -14 c 0
 210 -14 50 130 50 320 c 0
 50 500 167.943 664 387 664 c 0
 528 664 592 608 634 598 c 0
 663.442 590.99 706 599.89 706 618 c 0
 706 650 664 633 664 666 c 0
 664 691 702 724 724 724 c 0
 742 724 762 687 762 664 c 0
 762 586.99 665.097 552 665.097 552 c 1xe8
380 625 m 0
 232 625 147 490 147 350 c 0
 147 179 252 25 400 25 c 0
 550 25 626 134 626 305 c 0
 626 495 540 625 380 625 c 0
EndSplineSet
Validated: 33
EndChar

StartChar: ohorn
Encoding: 417 417 289
Width: 489
VWidth: 0
Flags: W
HStem: -14 30<199.012 312.82> 380 34<173.071 290.834>
VStem: 30 83<108.613 284.404> 373 82<108.586 291.095> 436 56<384.254 467.329>
LayerCount: 2
Fore
SplineSet
233 380 m 0xf0
 197 380 165 364 146 340 c 0
 120 307 113 258 113 210 c 0
 113 111 171 16 251 16 c 0
 296 16 334 33 354 72 c 0
 370 103 373 150 373 189 c 0
 373 284 318 380 233 380 c 0xf0
407.5 445 m 0
 407.5 463 432.5 494 462 494 c 0
 482 494 492 475.5 492 442 c 0xe8
 492 385 457.802 366.901 413 344.5 c 0
 408 342 410 336 413 332 c 0
 439 298 455 257 455 213 c 0xf0
 455 96 380 -14 230 -14 c 0
 118 -14 30 86 30 186 c 0
 30 310 127 414 250 414 c 0
 279.165 414 303.005 408.486 322 401.658 c 0
 352.504 390.693 376 382 397 382 c 0
 415 382 436 389 436 403 c 0xe8
 436 416.378 426.055 425.972 417 430.5 c 0
 412 433 407.5 438 407.5 445 c 0
EndSplineSet
Validated: 1
EndChar

StartChar: Uhorn
Encoding: 431 431 290
Width: 764
VWidth: 0
Flags: W
HStem: -14 50<312.955 481.109> 620 32<38.9062 81.4109 204.719 246.44 521.518 566.889>
VStem: 103 80<187.656 603.863> 588 56<326.96 604.519> 592 43<165.341 463.189> 724 58<657.332 724.5>
AnchorPoint: "ogonek" 490 18 basechar 0
AnchorPoint: "below_accent" 393 -100 basechar 0
AnchorPoint: "top_accent" 390 700 basechar 0
LayerCount: 2
Fore
SplineSet
709 697 m 0xf4
 694 707 687 713 687 731 c 0
 687 756 712.812 764.088 741.812 764.088 c 0
 773.003 764.088 782 736 782 713 c 0
 782 655.472 734.778 632.377 669.608 608.586 c 1
 654.967 595.757 646.356 576.624 644 546 c 0xf4
 642 515 635 342 635 254 c 0
 635 99 524 -14 380 -14 c 0
 188 -14 103 128 103 322 c 0
 103 381 103 498 103 540 c 0
 103 602 78 610 46 620 c 0
 35 624 29 652 42 652 c 0
 89 652 103 649 142 649 c 0
 181 649 185 652 241 652 c 0
 252 652 253 624 241 622 c 0
 199 616 185 586 183 530 c 0
 180 444 183 344 183 294 c 0
 183 162 271 36 403 36 c 0
 530 36 592 144 592 300 c 0xec
 592 344 589.848 470.993 588 510 c 0
 583.642 601.983 574 610 527 622 c 0
 515.015 625.06 516 654 529 654 c 0
 577 654 579 654 611 654 c 0
 653.25 654 662.884 655.763 701.147 655.979 c 1
 714.993 659.789 724 664.831 724 671 c 0
 724 686 719.524 689.983 709 697 c 0xf4
EndSplineSet
Validated: 33
EndChar

StartChar: uhorn
Encoding: 432 432 291
Width: 597
VWidth: 0
Flags: W
HStem: -14 51<138.488 275.183> 21 27<437.489 502.05> 373 24<16.8885 43.6427 267.199 313.994>
VStem: 69 70<71.1627 358.841> 350 70<75.7414 355.128> 503 58<428.618 494.5>
LayerCount: 2
Fore
SplineSet
503 441 m 4xbc
 503 456 498.524 459.983 488 467 c 0
 473 477 466 483 466 501 c 0
 466 526 491.812 534.088 520.812 534.088 c 0
 552.003 534.088 561 506 561 483 c 0
 561 425 513.137 401.62 447 378 c 0
 433 373 420 363 420 326 c 0
 420 240 420 175 420 114 c 0
 420 90 413 43 437 45 c 0
 447 46 485 46 495 48 c 0
 505 50 506 22 496 21 c 0x7c
 444 14 396 -2 367 -14 c 0
 362 -16 341 -23 340 -19 c 0
 339 -7 350 44 348 57 c 1
 296 6 233 -14 171 -14 c 0
 106 -14 69 27 69 105 c 0
 69 155 69 263 69 316 c 0
 69 345 50.9995 360.999 21 373 c 0
 13.0127 376.195 15 396 23 397 c 0
 77 399 92 405 131 414 c 1
 141 415 146 410 145 400 c 0
 141 369 139 353 139 323 c 0
 139 270 139 180 139 128 c 0
 139 80 180 37 223 37 c 0
 257 37 282 38 307 57 c 0
 322 68 350 91 350 132 c 0
 350 209 350 261 350 323 c 0
 350 364 280 370 273 373 c 0
 264 376 264 397 273 397 c 0
 374 402 382 409 418 419 c 0
 419.979 419.44 503 425 503 441 c 4xbc
EndSplineSet
Validated: 33
EndChar

StartChar: dotlessj
Encoding: 567 567 345
Width: 315
Flags: W
HStem: -175 43<9.5 99.9576> 422 31<38.5723 99.9129 215.087 276.428>
VStem: 120 75<-72.5025 407.639>
LayerCount: 2
Fore
SplineSet
120 353 m 2
 120 393 104 415 62 422 c 0
 50 424 38 431 38 441 c 0
 38 449 51 453 58 453 c 0
 97 453 122 448 158 448 c 0
 193 448 218 453 257 453 c 0
 264 453 277 449 277 441 c 0
 277 431 265 424 253 422 c 0
 211 415 195 393 195 353 c 2
 195 136 l 2
 195 36 192 8 190 -9 c 0
 184 -53 171.4822 -91.4158 136 -128 c 0
 104.2676 -160.7178 58 -175 29 -175 c 0
 -10 -175 -54 -154 -54 -134 c 0
 -54 -110 -27 -83 -12 -83 c 0
 23 -83 37 -132 65 -132 c 0
 92 -132 115 -104 118 -52 c 0
 120 -17 120 18 120 45 c 2
 120 353 l 2
EndSplineSet
Validated: 524289
EndChar

StartChar: breve
Encoding: 728 728 346
Width: 0
VWidth: 0
Flags: W
HStem: 461 55<-220.382 -113.618>
VStem: -274 32<547.396 600.922> -92 32<548.031 600.922>
LayerCount: 2
Fore
SplineSet
-242 580 m 0
 -229 558 -227 516 -167 516 c 0
 -107 516 -105 558 -92 580 c 0
 -87 589 -85 601 -75 601 c 0
 -65 601 -60 590 -60 577 c 0
 -60 513 -97 461 -167 461 c 0
 -237 461 -274 502 -274 577 c 0
 -274 590 -269 601 -259 601 c 0
 -249 601 -247 589 -242 580 c 0
EndSplineSet
Validated: 1
Substitution2: "'case' Case-Sensitive Forms lookup 12 subtable" breve.cap
EndChar

StartChar: dotaccent
Encoding: 729 729 347
Width: 0
VWidth: 0
Flags: W
HStem: 513 101<-166.883 -84.1767>
VStem: -176 101<522.117 604.823>
LayerCount: 2
Fore
SplineSet
-176 563 m 0
 -176 592 -154 614 -126 614 c 0
 -97 614 -75 592 -75 563 c 0
 -75 535 -97 513 -126 513 c 0
 -154 513 -176 535 -176 563 c 0
EndSplineSet
Validated: 1
Substitution2: "'case' Case-Sensitive Forms lookup 12 subtable" dotaccent.cap
EndChar

StartChar: ring
Encoding: 730 730 348
Width: 0
VWidth: 0
Flags: W
HStem: 479 33<-163.022 -88.9776> 614 33<-163.022 -88.9776>
VStem: -210 33<526.234 599.438> -75 33<526.234 599.438>
LayerCount: 2
Fore
SplineSet
-126 647 m 0
 -82 647 -42 610 -42 566 c 0
 -42 522 -82 479 -126 479 c 0
 -170 479 -210 522 -210 566 c 0
 -210 610 -170 647 -126 647 c 0
-177 563 m 0
 -177 535 -154 512 -126 512 c 0
 -98 512 -75 535 -75 563 c 0
 -75 591 -98 614 -126 614 c 0
 -154 614 -177 591 -177 563 c 0
EndSplineSet
Validated: 1
Substitution2: "'case' Case-Sensitive Forms lookup 12 subtable" ring.cap
EndChar

StartChar: ogonek
Encoding: 731 731 349
Width: 0
VWidth: 0
Flags: W
HStem: -287 66<-166.649 -96.5607>
VStem: -256 74<-206.017 -108.484>
LayerCount: 2
Fore
SplineSet
-118 18 m 9
 -92 18 l 17
 -160 -39 -182 -93 -182 -152 c 0
 -182 -196 -156 -221 -122 -221 c 0
 -93.9824 -221 -76 -208 -67 -201 c 0
 -62.8696 -197.787 -54 -201 -55 -207 c 0
 -56.9728 -218.837 -64.2995 -230.183 -71 -238 c 0
 -77 -245 -105 -287 -155 -287 c 8
 -212.669 -287 -256 -253 -256 -179 c 4
 -256 -126 -205 -39 -118 18 c 9
EndSplineSet
Validated: 1
Substitution2: "'case' Case-Sensitive Forms lookup 12 subtable" ogonek.cap
EndChar

StartChar: tilde
Encoding: 732 732 350
Width: 0
VWidth: 0
Flags: W
HStem: 498 66<-236.415 -101.738> 511 67<-264.537 -129.085>
VStem: -316 266
LayerCount: 2
Fore
SplineSet
-316 497 m 0x60
 -290.596 533.28 -249 578 -229 578 c 0x60
 -209 578 -147 564 -122 564 c 0
 -107 564 -94.9072 565.187 -68 600 c 0
 -62.7412 606.805 -46.1514 587.496 -50 582 c 0
 -67.4424 557.09 -114 498 -134 498 c 0xa0
 -154 498 -221 511 -246 511 c 0
 -261 511 -280.494 495.506 -301 475 c 0
 -305.95 470.05 -321.736 488.808 -316 497 c 0x60
EndSplineSet
Validated: 1
Substitution2: "'case' Case-Sensitive Forms lookup 12 subtable" tilde.cap
EndChar

StartChar: hungarumlaut
Encoding: 733 733 351
Width: 0
VWidth: 0
Flags: W
HStem: 445 219
VStem: -329 280
LayerCount: 2
Fore
SplineSet
-292 472 m 0
 -296 464 -306 447 -314 445 c 0
 -323 444 -328 447 -329 456 c 0
 -332 471 -283 591 -268 628 c 0
 -260 648 -245 660 -223 664 c 24
 -206 667 -187 656 -184 642 c 0
 -181 623 -272 510 -292 472 c 0
-157 472 m 0
 -162 464 -171 447 -179 445 c 0
 -188 444 -193 447 -194 456 c 0
 -197 471 -148 591 -133 628 c 0
 -125 648 -110 660 -88 664 c 24
 -71 667 -52 656 -49 642 c 0
 -46 623 -132 512 -157 472 c 0
EndSplineSet
Validated: 33
Substitution2: "'case' Case-Sensitive Forms lookup 12 subtable" hungarumlaut.cap
EndChar

StartChar: uni0343
Encoding: 835 835 352
Width: 1000
Flags: W
HStem: 461 21<10.0396 51.456> 603 78<5.56667 84.873>
VStem: 94 52<519.849 594.689>
LayerCount: 2
Fore
SplineSet
47 603 m 0
 18 604 0 623 0 645 c 0
 0 661 18 681 47 681 c 0
 95 681 146 640 146 584 c 0
 146 520 81 463 30 461 c 1
 28 461 l 2
 16 461 10 466 10 471 c 0
 10 475 15 480 24 482 c 0
 67 491 94 524 94 557 c 0
 94 578 77 601 47 603 c 0
EndSplineSet
Validated: 1
EndChar

StartChar: uni1E06
Encoding: 7686 7686 359
Width: 578
VWidth: 0
Flags: W
HStem: -119 54<-98.5436 191.475> -5 29<19.6924 97.1038> -4 41<227.525 361.026> 343 28<219.429 332.234> 627 30<30.0088 97.7124 217.08 343.047>
VStem: 130 78<56.5698 331.718 372.963 605.73> 410 86<428.462 576.092> 443 94<115.164 267.324>
LayerCount: 2
Fore
SplineSet
-78.2119140625 -65 m 30x9c
 184.788085938 -65 l 30
 192.239257812 -65 200.14453125 -71.931640625 197.788085938 -79 c 28
 191.546875 -97.7236328125 186.524414062 -119 166.788085938 -119 c 30
 -88.2119140625 -119 l 30
 -95.4033203125 -119 -102.211914062 -113 -102.211914062 -107 c 4
 -102.211914062 -98 -97.0771484375 -65 -78.2119140625 -65 c 30x9c
EndSplineSet
Refer: 30 66 N 1 0 0 1 0 0 3
Validated: 524289
EndChar

StartChar: uni1E08
Encoding: 7688 7688 361
Width: 640
VWidth: 0
Flags: W
HStem: -275 53<313.107 414.871> -15 31<326.024 481.156> 632 31<314.682 483.324> 776.27 72<530.32 639.041>
VStem: 46 100<217.847 434.419> 425 53<-216.671 -136.134> 576 37<473.764 560.679>
LayerCount: 2
Fore
SplineSet
427 727.26953125 m 0
 418 725.26953125 405 722.26953125 393 725.26953125 c 0
 385 727.26953125 385 740.26953125 396 747.26953125 c 0
 465 791.26953125 497 811.26953125 560 843.26953125 c 0
 578 853.26953125 594 857.26953125 612 848.26953125 c 24
 633 838.26953125 646 824.26953125 647 802.26953125 c 24
 647 786.26953125 629 779.26953125 615 776.26953125 c 0
 554 761.26953125 480 742.26953125 427 727.26953125 c 0
EndSplineSet
Refer: 136 199 N 1 0 0 1 0 0 3
Validated: 524325
EndChar

StartChar: uni1E0E
Encoding: 7694 7694 367
Width: 754
VWidth: 0
Flags: W
HStem: -121 54<224.456 514.475> -7 35<30.0745 112.208 251.726 448.386> 628 31<29.2164 94.5968 230.74 433.726>
VStem: 129 81<62.1482 605.889> 609 95<215.09 461.507>
LayerCount: 2
Fore
SplineSet
244.788085938 -67 m 30
 507.788085938 -67 l 30
 515.239257812 -67 523.14453125 -73.931640625 520.788085938 -81 c 28
 514.546875 -99.7236328125 509.524414062 -121 489.788085938 -121 c 30
 234.788085938 -121 l 30
 227.596679688 -121 220.788085938 -115 220.788085938 -109 c 4
 220.788085938 -100 225.922851562 -67 244.788085938 -67 c 30
EndSplineSet
Refer: 43 68 N 1 0 0 1 0 0 3
Validated: 8912897
EndChar

StartChar: uni1E10
Encoding: 7696 7696 369
Width: 754
VWidth: 0
Flags: W
HStem: -280.566 53<261.25 358.371> -7 35<30.0745 112.208 251.726 448.386> 628 31<29.2164 94.5968 230.74 433.726>
VStem: 129 81<62.1482 605.889> 368.5 53<-222.238 -143.899> 609 95<215.09 461.507>
LayerCount: 2
Fore
SplineSet
421.5 -164.56640625 m 0
 421.5 -232.56640625 337.5 -280.56640625 292.5 -280.56640625 c 0
 272.5 -280.56640625 263.5 -280.56640625 254.5 -267.56640625 c 24
 244.5 -254.56640625 247.5 -242.56640625 252.5 -226.56640625 c 0
 254.5 -219.56640625 260.5 -212.56640625 266.5 -215.56640625 c 0
 289.5 -225.56640625 313.5 -227.56640625 326.5 -227.56640625 c 0
 343.5 -227.56640625 368.5 -217.56640625 368.5 -188.56640625 c 0
 368.5 -164.56640625 356.5 -138.56640625 321.5 -136.56640625 c 0
 314.5 -136.56640625 305.5 -135.56640625 294.5 -137.56640625 c 0
 287.5 -138.56640625 275.5 -134.56640625 271.5 -127.56640625 c 0
 268.5 -122.56640625 271.5 -110.56640625 275.5 -105.56640625 c 2
 355.5 2.43359375 l 25
 386.5 2.43359375 l 25
 345.5 -59.56640625 l 2
 340.5 -66.56640625 350.5 -73.56640625 355.5 -75.56640625 c 0
 383.5 -87.56640625 421.5 -117.56640625 421.5 -164.56640625 c 0
EndSplineSet
Refer: 43 68 N 1 0 0 1 0 0 3
Validated: 8912933
EndChar

StartChar: uni1E12
Encoding: 7698 7698 371
Width: 754
VWidth: 0
Flags: W
HStem: -7 35<30.0745 112.208 251.726 448.386> 628 31<29.2164 94.5968 230.74 433.726>
VStem: 129 81<62.1482 605.889> 609 95<215.09 461.507>
LayerCount: 2
Fore
SplineSet
381 -136 m 0
 370 -129 372 -129 361 -136 c 0
 335 -151 331 -155 282 -181 c 0
 270 -188 243 -199 230 -199 c 0
 215 -199 210 -187 222 -177 c 0
 290 -120 232 -167 330 -89 c 0
 350 -73 356 -67 371 -67 c 0
 386 -67 392 -73 412 -89 c 0
 510 -167 452 -120 520 -177 c 0
 532 -187 527 -200 512 -200 c 0
 499 -200 489 -192 477 -185 c 0
 428 -159 407 -151 381 -136 c 0
EndSplineSet
Refer: 43 68 N 1 0 0 1 0 0 3
Validated: 1
EndChar

StartChar: uni1E14
Encoding: 7700 7700 373
Width: 535
VWidth: 0
Flags: W
HStem: -5 29<23.6924 99.9253> -5 40<228 455.39> 320 32<210.253 367.094> 388 20<400.5 405.5> 618 35<32.1729 114.247 219.165 433.859> 724 54<140.625 432.251> 890.269 72<34.7471 143.468>
VStem: 130 80<51.352 319.809 352 605.889> 137 300<726.522 777.788> 383 32<253.771 304.565> 466 25<526.084 573.315>
LayerCount: 2
Fore
SplineSet
246.788085938 841.268554688 m 0x3e20
 193.788085938 856.268554688 119.788085938 875.268554688 58.7880859375 890.268554688 c 0
 44.7880859375 893.268554688 26.7880859375 900.268554688 26.7880859375 916.268554688 c 24
 27.7880859375 938.268554688 40.7880859375 952.268554688 61.7880859375 962.268554688 c 24
 79.7880859375 971.268554688 95.7880859375 967.268554688 113.788085938 957.268554688 c 0
 176.788085938 925.268554688 208.788085938 905.268554688 277.788085938 861.268554688 c 0
 288.788085938 854.268554688 288.788085938 841.268554688 280.788085938 839.268554688 c 0
 268.788085938 836.268554688 255.788085938 839.268554688 246.788085938 841.268554688 c 0x3e20
EndSplineSet
Refer: 195 274 N 1 0 0 1 0 0 3
Validated: 524321
EndChar

StartChar: uni1E16
Encoding: 7702 7702 375
Width: 535
VWidth: 0
Flags: W
HStem: -5 29<23.6924 99.9253> -5 40<228 455.39> 320 32<210.253 367.094> 388 20<400.5 405.5> 618 35<32.1729 114.247 219.165 433.859> 724 54<140.625 432.251> 890.269 72<384.108 492.829>
VStem: 130 80<51.352 319.809 352 605.889> 137 300<726.522 777.788> 383 32<253.771 304.565> 466 25<526.084 573.315>
LayerCount: 2
Fore
SplineSet
280.788085938 841.268554688 m 0x3e20
 271.788085938 839.268554688 258.788085938 836.268554688 246.788085938 839.268554688 c 0
 238.788085938 841.268554688 238.788085938 854.268554688 249.788085938 861.268554688 c 0
 318.788085938 905.268554688 350.788085938 925.268554688 413.788085938 957.268554688 c 0
 431.788085938 967.268554688 447.788085938 971.268554688 465.788085938 962.268554688 c 24
 486.788085938 952.268554688 499.788085938 938.268554688 500.788085938 916.268554688 c 24
 500.788085938 900.268554688 482.788085938 893.268554688 468.788085938 890.268554688 c 0
 407.788085938 875.268554688 333.788085938 856.268554688 280.788085938 841.268554688 c 0x3e20
EndSplineSet
Refer: 195 274 N 1 0 0 1 0 0 3
Validated: 524321
EndChar

StartChar: uni1E18
Encoding: 7704 7704 377
Width: 535
VWidth: 0
Flags: W
HStem: -5 29<23.6924 99.9253> -5 40<228 455.39> 320 32<210.253 367.094> 388 20<400.5 405.5> 618 35<32.1729 114.247 219.165 433.859>
VStem: 130 80<51.352 319.809 352 605.889> 383 32<253.771 304.565> 466 25<526.084 573.315>
LayerCount: 2
Fore
SplineSet
283 -134 m 0x3f
 272 -127 274 -127 263 -134 c 0
 237 -149 233 -153 184 -179 c 0
 172 -186 145 -197 132 -197 c 0
 117 -197 112 -185 124 -175 c 0
 192 -118 134 -165 232 -87 c 0
 252 -71 258 -65 273 -65 c 0
 288 -65 294 -71 314 -87 c 0
 412 -165 354 -118 422 -175 c 0
 434 -185 429 -198 414 -198 c 0
 401 -198 391 -190 379 -183 c 0
 330 -157 309 -149 283 -134 c 0x3f
EndSplineSet
Refer: 35 69 N 1 0 0 1 0 0 3
Validated: 1
EndChar

StartChar: uni1E1A
Encoding: 7706 7706 379
Width: 535
VWidth: 0
Flags: W
HStem: -166.498 63<195.709 380.648> -158.498 63<164.829 352.742> -5 29<23.6924 99.9253> -5 40<228 455.39> 320 32<210.253 367.094> 388 20<400.5 405.5> 618 35<32.1729 114.247 219.165 433.859>
VStem: 130 80<51.352 319.809 352 605.889> 383 32<253.771 304.565> 466 25<526.084 573.315>
LayerCount: 2
Fore
SplineSet
112.975585938 -172.498046875 m 0x4fc0
 138.379882812 -136.217773438 184.975585938 -95.498046875 199.975585938 -95.498046875 c 0x4fc0
 224.975585938 -95.498046875 331.975585938 -103.498046875 356.975585938 -103.498046875 c 0
 371.975585938 -103.498046875 396.975585938 -88.498046875 413.975585938 -66.498046875 c 0
 418.975585938 -59.498046875 436.82421875 -79.0009765625 432.975585938 -84.498046875 c 4
 415.533203125 -109.408203125 365.975585938 -166.498046875 350.975585938 -166.498046875 c 0x8fc0
 325.975585938 -166.498046875 213.975585938 -158.498046875 188.975585938 -158.498046875 c 0
 173.975585938 -158.498046875 149.975585938 -172.498046875 133.975585938 -190.498046875 c 0
 128.975585938 -195.498046875 109.126953125 -177.995117188 112.975585938 -172.498046875 c 0x4fc0
EndSplineSet
Refer: 35 69 N 1 0 0 1 0 0 3
Validated: 8912897
EndChar

StartChar: uni1E1C
Encoding: 7708 7708 381
Width: 535
VWidth: 0
Flags: W
HStem: -275 53<209.107 310.871> -5 29<23.6924 99.9253> -5 40<228 455.39> 320 32<210.253 367.094> 388 20<400.5 405.5> 618 35<32.1729 114.247 219.165 433.859> 724 70<181.713 335.287>
VStem: 130 80<51.352 319.809 352 605.889> 321 53<-216.671 -136.134> 383 32<253.771 304.565> 466 25<526.084 573.315>
LayerCount: 2
Fore
SplineSet
140.5 857 m 0x9fe0
 152.5 835 188.5 794 258.5 794 c 0
 328.5 794 364.5 835 376.5 857 c 0
 381.5 866 388.5 878 398.5 878 c 0
 408.5 878 408.5 867 408.5 854 c 0
 408.5 790 338.5 724 258.5 724 c 0
 178.5 724 108.5 779 108.5 854 c 0
 108.5 867 108.5 878 118.5 878 c 0
 128.5 878 135.5 866 140.5 857 c 0x9fe0
EndSplineSet
Refer: 333 552 N 1 0 0 1 0 0 3
Validated: 8912901
EndChar

StartChar: uni1E20
Encoding: 7712 7712 385
Width: 729
VWidth: 0
Flags: W
HStem: -14 37<313.609 496.294> 256 34<437.011 535.328 642.232 692.897> 625 38<306.718 509.098> 724 54<266.456 556.475>
VStem: 45 99<215.989 441.462> 560 65<72.2344 237.12> 594 38<492.515 554.786>
LayerCount: 2
Fore
SplineSet
286.788085938 778 m 30xf8
 549.788085938 778 l 30
 557.239257812 778 565.14453125 771.068359375 562.788085938 764 c 28
 556.546875 745.276367188 551.524414062 724 531.788085938 724 c 30
 276.788085938 724 l 30
 269.596679688 724 262.788085938 730 262.788085938 736 c 4
 262.788085938 745 267.922851562 778 286.788085938 778 c 30xf8
EndSplineSet
Refer: 40 71 N 1 0 0 1 0 0 3
Validated: 524289
EndChar

StartChar: uni1E26
Encoding: 7718 7718 391
Width: 810
VWidth: 0
Flags: W
HStem: -5 29<37.6924 109.801 250.294 321.308 501.692 572.618 698.673 769.308> 302 48<210 601.981> 622 31<45.0745 116.701 235.842 309.926 504.074 576.241 697.262 766.926> 724 110<267.847 354.153 457.847 544.153>
VStem: 130 80<53.5983 302 350 603.314> 256 110<735.847 822.153> 446 110<735.847 822.153> 602 80<44.8548 302 350 604.033>
LayerCount: 2
Fore
SplineSet
501 834 m 24
 531 834 556 809 556 779 c 24
 556 749 531 724 501 724 c 24
 471 724 446 749 446 779 c 24
 446 809 471 834 501 834 c 24
311 834 m 24
 341 834 366 809 366 779 c 24
 366 749 341 724 311 724 c 24
 281 724 256 749 256 779 c 24
 256 809 281 834 311 834 c 24
EndSplineSet
Refer: 47 72 N 1 0 0 1 0 0 3
Validated: 1
EndChar

StartChar: uni1E28
Encoding: 7720 7720 393
Width: 810
VWidth: 0
Flags: W
HStem: -278.566 53<60.7504 157.871> -5 29<37.6924 109.801 250.294 321.308 501.692 572.618 698.673 769.308> 302 48<210 601.981> 622 31<45.0745 116.701 235.842 309.926 504.074 576.241 697.262 766.926>
VStem: 130 80<53.5983 302 350 603.314> 168 53<-220.238 -141.899> 602 80<44.8548 302 350 604.033>
LayerCount: 2
Fore
SplineSet
221 -162.56640625 m 0xf6
 221 -230.56640625 137 -278.56640625 92 -278.56640625 c 0
 72 -278.56640625 63 -278.56640625 54 -265.56640625 c 24
 44 -252.56640625 47 -240.56640625 52 -224.56640625 c 0
 54 -217.56640625 60 -210.56640625 66 -213.56640625 c 0
 89 -223.56640625 113 -225.56640625 126 -225.56640625 c 0
 143 -225.56640625 168 -215.56640625 168 -186.56640625 c 0
 168 -162.56640625 156 -136.56640625 121 -134.56640625 c 0
 114 -134.56640625 105 -133.56640625 94 -135.56640625 c 0
 87 -136.56640625 75 -132.56640625 71 -125.56640625 c 0
 68 -120.56640625 71 -108.56640625 75 -103.56640625 c 2
 155 4.43359375 l 25
 186 4.43359375 l 25
 145 -57.56640625 l 2
 140 -64.56640625 150 -71.56640625 155 -73.56640625 c 0
 183 -85.56640625 221 -115.56640625 221 -162.56640625 c 0xf6
EndSplineSet
Refer: 47 72 N 1 0 0 1 0 0 2
Validated: 8912933
EndChar

StartChar: uni1E2A
Encoding: 7722 7722 395
Width: 810
VWidth: 0
Flags: W
HStem: -219 70<326.713 480.287> -5 29<37.6924 109.801 250.294 321.308 501.692 572.618 698.673 769.308> 302 48<210 601.981> 622 31<45.0745 116.701 235.842 309.926 504.074 576.241 697.262 766.926>
VStem: 130 80<53.5983 302 350 603.314> 602 80<44.8548 302 350 604.033>
LayerCount: 2
Fore
SplineSet
285.5 -86 m 0
 297.5 -108 333.5 -149 403.5 -149 c 0
 473.5 -149 509.5 -108 521.5 -86 c 0
 526.5 -77 533.5 -65 543.5 -65 c 0
 553.5 -65 553.5 -76 553.5 -89 c 0
 553.5 -153 483.5 -219 403.5 -219 c 0
 323.5 -219 253.5 -164 253.5 -89 c 0
 253.5 -76 253.5 -65 263.5 -65 c 0
 273.5 -65 280.5 -77 285.5 -86 c 0
EndSplineSet
Refer: 47 72 N 1 0 0 1 0 0 3
Validated: 524289
EndChar

StartChar: uni1E2C
Encoding: 7724 7724 397
Width: 340
VWidth: 0
Flags: W
HStem: -166.498 63<93.2087 278.148> -158.498 63<62.3285 250.242> -5 29<19.6924 97.1038 243.602 321.308> 622 31<31.0745 107.441 235.205 312.926>
VStem: 10.4756 320 130 80<46.75 604.158>
LayerCount: 2
Fore
SplineSet
10.4755859375 -172.498046875 m 0x78
 35.8798828125 -136.217773438 82.4755859375 -95.498046875 97.4755859375 -95.498046875 c 0x78
 122.475585938 -95.498046875 229.475585938 -103.498046875 254.475585938 -103.498046875 c 0
 269.475585938 -103.498046875 294.475585938 -88.498046875 311.475585938 -66.498046875 c 0
 316.475585938 -59.498046875 334.32421875 -79.0009765625 330.475585938 -84.498046875 c 4
 313.033203125 -109.408203125 263.475585938 -166.498046875 248.475585938 -166.498046875 c 0xb8
 223.475585938 -166.498046875 111.475585938 -158.498046875 86.4755859375 -158.498046875 c 0
 71.4755859375 -158.498046875 47.4755859375 -172.498046875 31.4755859375 -190.498046875 c 0
 26.4755859375 -195.498046875 6.626953125 -177.995117188 10.4755859375 -172.498046875 c 0x78
EndSplineSet
Refer: 33 73 N 1 0 0 1 0 0 3
Validated: 524289
EndChar

StartChar: uni1E2E
Encoding: 7726 7726 399
Width: 340
VWidth: 0
Flags: W
HStem: -5 29<19.6924 97.1038 243.602 321.308> 622 31<31.0745 107.441 235.205 312.926> 700 100<41.4375 124.562 236.438 319.562> 922.269 72<301.273 409.994>
VStem: 33 100<708.438 791.562> 130 80<46.75 604.158> 228 100<708.438 791.562>
LayerCount: 2
Fore
SplineSet
197.953125 873.268554688 m 0xf2
 188.953125 871.268554688 175.953125 868.268554688 163.953125 871.268554688 c 0
 155.953125 873.268554688 155.953125 886.268554688 166.953125 893.268554688 c 0
 235.953125 937.268554688 267.953125 957.268554688 330.953125 989.268554688 c 0
 348.953125 999.268554688 364.953125 1003.26855469 382.953125 994.268554688 c 24
 403.953125 984.268554688 416.953125 970.268554688 417.953125 948.268554688 c 24
 417.953125 932.268554688 399.953125 925.268554688 385.953125 922.268554688 c 0
 324.953125 907.268554688 250.953125 888.268554688 197.953125 873.268554688 c 0xf2
EndSplineSet
Refer: 144 207 N 1 0 0 1 0 0 3
Validated: 8912929
EndChar

StartChar: uni1E30
Encoding: 7728 7728 401
Width: 681
VWidth: 0
Flags: W
HStem: -5 29<31.6924 105.863 244.783 312.308 608.044 687.308> 323 22<211.264 231.372> 622 31<32.0745 108.441 226.967 296.926 408.311 456.01 576.716 672.827> 776.27 72<769.82 878.541>
VStem: 131 80<50.6023 322.99 345.01 605.863>
LayerCount: 2
Fore
SplineSet
666.5 727.26953125 m 0
 657.5 725.26953125 644.5 722.26953125 632.5 725.26953125 c 0
 624.5 727.26953125 624.5 740.26953125 635.5 747.26953125 c 0
 704.5 791.26953125 736.5 811.26953125 799.5 843.26953125 c 0
 817.5 853.26953125 833.5 857.26953125 851.5 848.26953125 c 24
 872.5 838.26953125 885.5 824.26953125 886.5 802.26953125 c 24
 886.5 786.26953125 868.5 779.26953125 854.5 776.26953125 c 0
 793.5 761.26953125 719.5 742.26953125 666.5 727.26953125 c 0
EndSplineSet
Refer: 61 75 N 1 0 0 1 0 0 3
Validated: 524321
EndChar

StartChar: uni1E34
Encoding: 7732 7732 405
Width: 681
VWidth: 0
Flags: W
HStem: -119 54<212.956 502.975> -5 29<31.6924 105.863 244.783 312.308 608.044 687.308> 323 22<211.264 231.372> 622 31<32.0745 108.441 226.967 296.926 408.311 456.01 576.716 672.827>
VStem: 131 80<50.6023 322.99 345.01 605.863>
LayerCount: 2
Fore
SplineSet
233.288085938 -65 m 30
 496.288085938 -65 l 30
 503.739257812 -65 511.64453125 -71.931640625 509.288085938 -79 c 28
 503.046875 -97.7236328125 498.024414062 -119 478.288085938 -119 c 30
 223.288085938 -119 l 30
 216.096679688 -119 209.288085938 -113 209.288085938 -107 c 4
 209.288085938 -98 214.422851562 -65 233.288085938 -65 c 30
EndSplineSet
Refer: 61 75 N 1 0 0 1 0 0 3
Validated: 8912897
EndChar

StartChar: uni1E38
Encoding: 7736 7736 409
Width: 574
VWidth: 0
Flags: W
HStem: -175 110<250.847 337.153> -5 29<27.3563 94.228> -5 40<220.001 480.636> 622 31<37.0745 116.488 238.822 330.926> 724 54<23.4564 313.475>
VStem: 130 80<47.25 603.136> 239 110<-163.153 -76.847> 541 34<139.048 159.894>
LayerCount: 2
Fore
SplineSet
43.7880859375 778 m 30x9f
 306.788085938 778 l 30
 314.239257812 778 322.14453125 771.068359375 319.788085938 764 c 28
 313.546875 745.276367188 308.524414062 724 288.788085938 724 c 30
 33.7880859375 724 l 30
 26.5966796875 724 19.7880859375 730 19.7880859375 736 c 4
 19.7880859375 745 24.9228515625 778 43.7880859375 778 c 30x9f
EndSplineSet
Refer: 407 7734 N 1 0 0 1 0 0 3
Validated: 524289
EndChar

StartChar: uni1E3A
Encoding: 7738 7738 411
Width: 574
VWidth: 0
Flags: W
HStem: -119 54<147.456 437.475> -5 29<27.3563 94.228> -5 40<220.001 480.636> 622 31<37.0745 116.488 238.822 330.926>
VStem: 130 80<47.25 603.136> 541 34<139.048 159.894>
LayerCount: 2
Fore
SplineSet
167.788085938 -65 m 30x9c
 430.788085938 -65 l 30
 438.239257812 -65 446.14453125 -71.931640625 443.788085938 -79 c 28
 437.546875 -97.7236328125 432.524414062 -119 412.788085938 -119 c 30
 157.788085938 -119 l 30
 150.596679688 -119 143.788085938 -113 143.788085938 -107 c 4
 143.788085938 -98 148.922851562 -65 167.788085938 -65 c 30x9c
EndSplineSet
Refer: 36 76 N 1 0 0 1 0 0 3
Validated: 524289
EndChar

StartChar: uni1E3C
Encoding: 7740 7740 413
Width: 574
VWidth: 0
Flags: W
HStem: -5 29<27.3563 94.228> -5 40<220.001 480.636> 622 31<37.0745 116.488 238.822 330.926>
VStem: 130 80<47.25 603.136> 541 34<139.048 159.894>
LayerCount: 2
Fore
SplineSet
304 -134 m 0x38
 293 -127 295 -127 284 -134 c 0
 258 -149 254 -153 205 -179 c 0
 193 -186 166 -197 153 -197 c 0
 138 -197 133 -185 145 -175 c 0
 213 -118 155 -165 253 -87 c 0
 273 -71 279 -65 294 -65 c 0
 309 -65 315 -71 335 -87 c 0
 433 -165 375 -118 443 -175 c 0
 455 -185 450 -198 435 -198 c 0
 422 -198 412 -190 400 -183 c 0
 351 -157 330 -149 304 -134 c 0x38
EndSplineSet
Refer: 36 76 N 1 0 0 1 0 0 3
Validated: 1
EndChar

StartChar: uni1E3E
Encoding: 7742 7742 415
Width: 901
VWidth: 0
Flags: W
HStem: -10 21<399.5 404> -5 29<19.6924 82.5 196.62 261.308 585.692 653.169 789.765 864.308> 623 33<42.7778 120.744 771.253 841.562> 776.27 72<941.82 1050.54>
VStem: 657 78<325.525 479.996> 669 88<45.3904 347.143>
LayerCount: 2
Fore
SplineSet
838.5 727.26953125 m 0x30
 829.5 725.26953125 816.5 722.26953125 804.5 725.26953125 c 0
 796.5 727.26953125 796.5 740.26953125 807.5 747.26953125 c 0
 876.5 791.26953125 908.5 811.26953125 971.5 843.26953125 c 0
 989.5 853.26953125 1005.5 857.26953125 1023.5 848.26953125 c 24
 1044.5 838.26953125 1057.5 824.26953125 1058.5 802.26953125 c 24
 1058.5 786.26953125 1040.5 779.26953125 1026.5 776.26953125 c 0
 965.5 761.26953125 891.5 742.26953125 838.5 727.26953125 c 0x30
EndSplineSet
Refer: 27 77 N 1 0 0 1 0 0 3
Validated: 524321
EndChar

StartChar: uni1E48
Encoding: 7752 7752 425
Width: 770
VWidth: 0
Flags: W
HStem: -131 54<494.456 784.475> -5 29<23.6924 80.8125 197.412 265.308> 620 38<2.28223 77.8053 542 559 674.647 759.991>
VStem: 132 37<306.848 499.991> 621 43<136.004 599.75>
LayerCount: 2
Fore
SplineSet
514.788085938 -77 m 30
 777.788085938 -77 l 30
 785.239257812 -77 793.14453125 -83.931640625 790.788085938 -91 c 28
 784.546875 -109.723632812 779.524414062 -131 759.788085938 -131 c 30
 504.788085938 -131 l 30
 497.596679688 -131 490.788085938 -125 490.788085938 -119 c 4
 490.788085938 -110 495.922851562 -77 514.788085938 -77 c 30
EndSplineSet
Refer: 28 78 N 1 0 0 1 0 0 3
Validated: 524289
EndChar

StartChar: uni1E4A
Encoding: 7754 7754 427
Width: 770
VWidth: 0
Flags: W
HStem: -5 29<23.6924 80.8125 197.412 265.308> 620 38<2.28223 77.8053 542 559 674.647 759.991>
VStem: 132 37<306.848 499.991> 621 43<136.004 599.75>
LayerCount: 2
Fore
SplineSet
651 -146 m 0
 640 -139 642 -139 631 -146 c 0
 605 -161 601 -165 552 -191 c 0
 540 -198 513 -209 500 -209 c 0
 485 -209 480 -197 492 -187 c 0
 560 -130 502 -177 600 -99 c 0
 620 -83 626 -77 641 -77 c 0
 656 -77 662 -83 682 -99 c 0
 780 -177 722 -130 790 -187 c 0
 802 -197 797 -210 782 -210 c 0
 769 -210 759 -202 747 -195 c 0
 698 -169 677 -161 651 -146 c 0
EndSplineSet
Refer: 28 78 N 1 0 0 1 0 0 3
Validated: 1
EndChar

StartChar: uni1E4C
Encoding: 7756 7756 429
Width: 763
VWidth: 0
Flags: W
HStem: -14 39<309.694 487.027> 625 39<289.881 469.419> 727 63<327.703 487.667> 736 65<286.243 443.797> 957.767 72<641.296 750.018>
VStem: 45 97<219.261 444.186> 245 280 621 97<206.698 451.883>
LayerCount: 2
Fore
SplineSet
537.9765625 908.766601562 m 0xcf
 528.9765625 906.766601562 515.9765625 903.766601562 503.9765625 906.766601562 c 0
 495.9765625 908.766601562 495.9765625 921.766601562 506.9765625 928.766601562 c 0
 575.9765625 972.766601562 607.9765625 992.766601562 670.9765625 1024.76660156 c 0
 688.9765625 1034.76660156 704.9765625 1038.76660156 722.9765625 1029.76660156 c 24
 743.9765625 1019.76660156 756.9765625 1005.76660156 757.9765625 983.766601562 c 24
 757.9765625 967.766601562 739.9765625 960.766601562 725.9765625 957.766601562 c 0
 664.9765625 942.766601562 590.9765625 923.766601562 537.9765625 908.766601562 c 0xcf
EndSplineSet
Refer: 149 213 N 1 0 0 1 0 0 3
Validated: 8912929
EndChar

StartChar: uni1E4E
Encoding: 7758 7758 431
Width: 763
VWidth: 0
Flags: W
HStem: -14 39<309.694 487.027> 625 39<289.881 469.419> 727 63<327.703 487.667> 736 65<286.243 443.797> 905.498 110<382.823 469.13 572.823 659.13>
VStem: 45 97<219.261 444.186> 245 280 370.977 110<917.345 1003.65> 560.977 110<917.345 1003.65> 621 97<206.698 451.883>
LayerCount: 2
Fore
SplineSet
615.9765625 1015.49804688 m 24xcc80
 645.9765625 1015.49804688 670.9765625 990.498046875 670.9765625 960.498046875 c 24
 670.9765625 930.498046875 645.9765625 905.498046875 615.9765625 905.498046875 c 24
 585.9765625 905.498046875 560.9765625 930.498046875 560.9765625 960.498046875 c 24
 560.9765625 990.498046875 585.9765625 1015.49804688 615.9765625 1015.49804688 c 24xcc80
425.9765625 1015.49804688 m 24
 455.9765625 1015.49804688 480.9765625 990.498046875 480.9765625 960.498046875 c 24
 480.9765625 930.498046875 455.9765625 905.498046875 425.9765625 905.498046875 c 24
 395.9765625 905.498046875 370.9765625 930.498046875 370.9765625 960.498046875 c 24xcd
 370.9765625 990.498046875 395.9765625 1015.49804688 425.9765625 1015.49804688 c 24
EndSplineSet
Refer: 149 213 N 1 0 0 1 0 0 3
Validated: 8912897
EndChar

StartChar: uni1E50
Encoding: 7760 7760 433
Width: 763
VWidth: 0
Flags: W
HStem: -14 39<309.694 487.027> 625 39<289.881 469.419> 723 54<236.625 528.251> 890.269 72<166.247 274.968>
VStem: 45 97<219.261 444.186> 233 300<725.522 776.788> 621 97<206.698 451.883>
LayerCount: 2
Fore
SplineSet
378.288085938 841.268554688 m 0
 325.288085938 856.268554688 251.288085938 875.268554688 190.288085938 890.268554688 c 0
 176.288085938 893.268554688 158.288085938 900.268554688 158.288085938 916.268554688 c 24
 159.288085938 938.268554688 172.288085938 952.268554688 193.288085938 962.268554688 c 24
 211.288085938 971.268554688 227.288085938 967.268554688 245.288085938 957.268554688 c 0
 308.288085938 925.268554688 340.288085938 905.268554688 409.288085938 861.268554688 c 0
 420.288085938 854.268554688 420.288085938 841.268554688 412.288085938 839.268554688 c 0
 400.288085938 836.268554688 387.288085938 839.268554688 378.288085938 841.268554688 c 0
EndSplineSet
Refer: 241 332 N 1 0 0 1 0 0 3
Validated: 524321
EndChar

StartChar: uni1E52
Encoding: 7762 7762 435
Width: 763
VWidth: 0
Flags: W
HStem: -14 39<309.694 487.027> 625 39<289.881 469.419> 723 54<236.625 528.251> 890.269 72<515.608 624.329>
VStem: 45 97<219.261 444.186> 233 300<725.522 776.788> 621 97<206.698 451.883>
LayerCount: 2
Fore
SplineSet
412.288085938 841.268554688 m 0
 403.288085938 839.268554688 390.288085938 836.268554688 378.288085938 839.268554688 c 0
 370.288085938 841.268554688 370.288085938 854.268554688 381.288085938 861.268554688 c 0
 450.288085938 905.268554688 482.288085938 925.268554688 545.288085938 957.268554688 c 0
 563.288085938 967.268554688 579.288085938 971.268554688 597.288085938 962.268554688 c 24
 618.288085938 952.268554688 631.288085938 938.268554688 632.288085938 916.268554688 c 24
 632.288085938 900.268554688 614.288085938 893.268554688 600.288085938 890.268554688 c 0
 539.288085938 875.268554688 465.288085938 856.268554688 412.288085938 841.268554688 c 0
EndSplineSet
Refer: 241 332 N 1 0 0 1 0 0 3
Validated: 524321
EndChar

StartChar: uni1E54
Encoding: 7764 7764 437
Width: 552
VWidth: 0
Flags: W
HStem: -5 29<24.6924 100.631 239.305 309.308> 254 26<258.314 361.048> 622 31<37.0745 105.304> 630 27<222.831 344.136> 776.27 72<394.32 503.041>
VStem: 130 80<45.1651 603.448> 449 88<375.554 548.301>
LayerCount: 2
Fore
SplineSet
291 727.26953125 m 0xce
 282 725.26953125 269 722.26953125 257 725.26953125 c 0
 249 727.26953125 249 740.26953125 260 747.26953125 c 0
 329 791.26953125 361 811.26953125 424 843.26953125 c 0
 442 853.26953125 458 857.26953125 476 848.26953125 c 24
 497 838.26953125 510 824.26953125 511 802.26953125 c 24
 511 786.26953125 493 779.26953125 479 776.26953125 c 0
 418 761.26953125 344 742.26953125 291 727.26953125 c 0xce
EndSplineSet
Refer: 26 80 N 1 0 0 1 0 0 3
Validated: 524321
EndChar

StartChar: uni1E5C
Encoding: 7772 7772 445
Width: 689
VWidth: 0
Flags: W
HStem: -191 110<593.847 680.153> -21 46<603.627 713.254> -5 29<24.6924 100.631 240.775 309.308> 627 30<36.0088 96.507 226.614 346.609> 724 54<131.456 421.475>
VStem: 130 80<46.2739 302.04 331.373 603.448> 412 90<411.692 573.392> 582 110<-179.153 -92.847>
LayerCount: 2
Fore
SplineSet
151.788085938 778 m 30x9f
 414.788085938 778 l 30
 422.239257812 778 430.14453125 771.068359375 427.788085938 764 c 28
 421.546875 745.276367188 416.524414062 724 396.788085938 724 c 30
 141.788085938 724 l 30
 134.596679688 724 127.788085938 730 127.788085938 736 c 4
 127.788085938 745 132.922851562 778 151.788085938 778 c 30x9f
EndSplineSet
Refer: 443 7770 N 1 0 0 1 0 0 3
Validated: 8912897
EndChar

StartChar: uni1E5E
Encoding: 7774 7774 447
Width: 689
VWidth: 0
Flags: W
HStem: -135 54<490.456 780.475> -21 46<603.627 713.254> -5 29<24.6924 100.631 240.775 309.308> 627 30<36.0088 96.507 226.614 346.609>
VStem: 130 80<46.2739 302.04 331.373 603.448> 412 90<411.692 573.392>
LayerCount: 2
Fore
SplineSet
510.788085938 -81 m 30x9c
 773.788085938 -81 l 30
 781.239257812 -81 789.14453125 -87.931640625 786.788085938 -95 c 28
 780.546875 -113.723632812 775.524414062 -135 755.788085938 -135 c 30
 500.788085938 -135 l 30
 493.596679688 -135 486.788085938 -129 486.788085938 -123 c 4
 486.788085938 -114 491.922851562 -81 510.788085938 -81 c 30x9c
EndSplineSet
Refer: 29 82 N 1 0 0 1 0 0 3
Validated: 524289
EndChar

StartChar: uni1E6E
Encoding: 7790 7790 463
Width: 670
VWidth: 0
Flags: W
HStem: -119 54<189.956 479.975> -5 29<185.692 261.52 411.207 487.308> 604 38<106.512 292.507 378.966 603.53>
VStem: 296 80<48.375 600.468> 619 35<517.175 586.637>
LayerCount: 2
Fore
SplineSet
210.288085938 -65 m 30
 473.288085938 -65 l 30
 480.739257812 -65 488.64453125 -71.931640625 486.288085938 -79 c 28
 480.046875 -97.7236328125 475.024414062 -119 455.288085938 -119 c 30
 200.288085938 -119 l 30
 193.096679688 -119 186.288085938 -113 186.288085938 -107 c 4
 186.288085938 -98 191.422851562 -65 210.288085938 -65 c 30
EndSplineSet
Refer: 34 84 N 1 0 0 1 0 0 3
Validated: 8912897
EndChar

StartChar: uni1E70
Encoding: 7792 7792 465
Width: 670
VWidth: 0
Flags: W
HStem: -5 29<185.692 261.52 411.207 487.308> 604 38<106.512 292.507 378.966 603.53>
VStem: 296 80<48.375 600.468> 619 35<517.175 586.637>
LayerCount: 2
Fore
SplineSet
346.5 -134 m 0
 335.5 -127 337.5 -127 326.5 -134 c 0
 300.5 -149 296.5 -153 247.5 -179 c 0
 235.5 -186 208.5 -197 195.5 -197 c 0
 180.5 -197 175.5 -185 187.5 -175 c 0
 255.5 -118 197.5 -165 295.5 -87 c 0
 315.5 -71 321.5 -65 336.5 -65 c 0
 351.5 -65 357.5 -71 377.5 -87 c 0
 475.5 -165 417.5 -118 485.5 -175 c 0
 497.5 -185 492.5 -198 477.5 -198 c 0
 464.5 -198 454.5 -190 442.5 -183 c 0
 393.5 -157 372.5 -149 346.5 -134 c 0
EndSplineSet
Refer: 34 84 N 1 0 0 1 0 0 3
Validated: 524289
EndChar

StartChar: uni1E72
Encoding: 7794 7794 467
Width: 738
VWidth: 0
Flags: W
HStem: -184 110<241.847 328.153 431.847 518.153> -14 50<312.955 480.757> 620 33<25.4669 83.9594 202.114 256.781 515.06 566.939 662.499 726.313>
VStem: 103 80<187.656 606.064> 230 110<-172.153 -85.8467> 420 110<-172.153 -85.8467> 588 57<326.698 604.72> 592 43<165.341 460.842>
LayerCount: 2
Fore
SplineSet
475 -74 m 24xfc
 505 -74 530 -99 530 -129 c 24
 530 -159 505 -184 475 -184 c 24
 445 -184 420 -159 420 -129 c 24
 420 -99 445 -74 475 -74 c 24xfc
285 -74 m 24
 315 -74 340 -99 340 -129 c 24
 340 -159 315 -184 285 -184 c 24
 255 -184 230 -159 230 -129 c 24
 230 -99 255 -74 285 -74 c 24
EndSplineSet
Refer: 48 85 N 1 0 0 1 0 0 3
Validated: 1
EndChar

StartChar: uni1E74
Encoding: 7796 7796 469
Width: 738
VWidth: 0
Flags: W
HStem: -175.498 63<302.709 487.648> -167.498 63<271.829 459.742> -14 50<312.955 480.757> 620 33<25.4669 83.9594 202.114 256.781 515.06 566.939 662.499 726.313>
VStem: 103 80<187.656 606.064> 588 57<326.698 604.72> 592 43<165.341 460.842>
LayerCount: 2
Fore
SplineSet
219.975585938 -181.498046875 m 0x78
 245.379882812 -145.217773438 291.975585938 -104.498046875 306.975585938 -104.498046875 c 0x78
 331.975585938 -104.498046875 438.975585938 -112.498046875 463.975585938 -112.498046875 c 0
 478.975585938 -112.498046875 503.975585938 -97.498046875 520.975585938 -75.498046875 c 0
 525.975585938 -68.498046875 543.82421875 -88.0009765625 539.975585938 -93.498046875 c 4
 522.533203125 -118.408203125 472.975585938 -175.498046875 457.975585938 -175.498046875 c 0xb8
 432.975585938 -175.498046875 320.975585938 -167.498046875 295.975585938 -167.498046875 c 0
 280.975585938 -167.498046875 256.975585938 -181.498046875 240.975585938 -199.498046875 c 0
 235.975585938 -204.498046875 216.126953125 -186.995117188 219.975585938 -181.498046875 c 0x78
EndSplineSet
Refer: 48 85 N 1 0 0 1 0 0 3
Validated: 8912897
EndChar

StartChar: uni1E76
Encoding: 7798 7798 471
Width: 738
VWidth: 0
Flags: W
HStem: -14 50<312.955 480.757> 620 33<25.4669 83.9594 202.114 256.781 515.06 566.939 662.499 726.313>
VStem: 103 80<187.656 606.064> 588 57<326.698 604.72> 592 43<165.341 460.842>
LayerCount: 2
Fore
SplineSet
390 -143 m 0xe0
 379 -136 381 -136 370 -143 c 0
 344 -158 340 -162 291 -188 c 0
 279 -195 252 -206 239 -206 c 0
 224 -206 219 -194 231 -184 c 0
 299 -127 241 -174 339 -96 c 0
 359 -80 365 -74 380 -74 c 0
 395 -74 401 -80 421 -96 c 0
 519 -174 461 -127 529 -184 c 0
 541 -194 536 -207 521 -207 c 0
 508 -207 498 -199 486 -192 c 0
 437 -166 416 -158 390 -143 c 0xe0
EndSplineSet
Refer: 48 85 N 1 0 0 1 0 0 3
Validated: 1
EndChar

StartChar: uni1E78
Encoding: 7800 7800 473
Width: 738
VWidth: 0
Flags: W
HStem: -14 50<312.955 480.757> 620 33<25.4669 83.9594 202.114 256.781 515.06 566.939 662.499 726.313> 727 63<334.703 494.667> 736 65<293.243 450.797> 962.655 72<640.274 748.995>
VStem: 103 80<187.656 606.064> 252 280 588 57<326.698 604.72> 592 43<165.341 460.842>
LayerCount: 2
Fore
SplineSet
536.954101562 913.655273438 m 0xce
 527.954101562 911.655273438 514.954101562 908.655273438 502.954101562 911.655273438 c 0
 494.954101562 913.655273438 494.954101562 926.655273438 505.954101562 933.655273438 c 0
 574.954101562 977.655273438 606.954101562 997.655273438 669.954101562 1029.65527344 c 0
 687.954101562 1039.65527344 703.954101562 1043.65527344 721.954101562 1034.65527344 c 24
 742.954101562 1024.65527344 755.954101562 1010.65527344 756.954101562 988.655273438 c 24
 756.954101562 972.655273438 738.954101562 965.655273438 724.954101562 962.655273438 c 0
 663.954101562 947.655273438 589.954101562 928.655273438 536.954101562 913.655273438 c 0xce
EndSplineSet
Refer: 265 360 N 1 0 0 1 0 0 3
Validated: 8912929
EndChar

StartChar: uni1E7A
Encoding: 7802 7802 475
Width: 738
VWidth: 0
Flags: W
HStem: -14 50<312.955 480.757> 620 33<25.4669 83.9594 202.114 256.781 515.06 566.939 662.499 726.313> 723 54<243.625 535.251> 838 110<243.135 329.441 433.135 519.441>
VStem: 103 80<187.656 606.064> 231.288 110<849.847 936.153> 240 300<725.522 776.788> 421.288 110<849.847 936.153> 588 57<326.698 604.72> 592 43<165.341 460.842>
LayerCount: 2
Fore
SplineSet
476.288085938 948 m 24xf9
 506.288085938 948 531.288085938 923 531.288085938 893 c 24
 531.288085938 863 506.288085938 838 476.288085938 838 c 24
 446.288085938 838 421.288085938 863 421.288085938 893 c 24
 421.288085938 923 446.288085938 948 476.288085938 948 c 24xf9
286.288085938 948 m 24
 316.288085938 948 341.288085938 923 341.288085938 893 c 24
 341.288085938 863 316.288085938 838 286.288085938 838 c 24
 256.288085938 838 231.288085938 863 231.288085938 893 c 24xfc
 231.288085938 923 256.288085938 948 286.288085938 948 c 24
EndSplineSet
Refer: 267 362 N 1 0 0 1 0 0 3
Validated: 524289
EndChar

StartChar: uni1E7C
Encoding: 7804 7804 477
Width: 672
VWidth: 0
Flags: W
HStem: 620 33<1.64938 63.9711 212.544 280.926 408.06 472.695 603.579 676.313> 748.888 63<261.709 446.648> 756.888 63<230.829 418.742>
VStem: 0 190<554 646>
LayerCount: 2
Fore
SplineSet
178.975585938 742.887695312 m 0xb0
 204.379882812 779.16796875 250.975585938 819.887695312 265.975585938 819.887695312 c 0xb0
 290.975585938 819.887695312 397.975585938 811.887695312 422.975585938 811.887695312 c 0
 437.975585938 811.887695312 462.975585938 826.887695312 479.975585938 848.887695312 c 0
 484.975585938 855.887695312 502.82421875 836.384765625 498.975585938 830.887695312 c 4
 481.533203125 805.977539062 431.975585938 748.887695312 416.975585938 748.887695312 c 0xd0
 391.975585938 748.887695312 279.975585938 756.887695312 254.975585938 756.887695312 c 0
 239.975585938 756.887695312 215.975585938 742.887695312 199.975585938 724.887695312 c 0
 194.975585938 719.887695312 175.126953125 737.390625 178.975585938 742.887695312 c 0xb0
EndSplineSet
Refer: 37 86 N 1 0 0 1 0 0 3
Validated: 8912897
EndChar

StartChar: Wgrave
Encoding: 7808 7808 481
Width: 916
VWidth: 0
Flags: W
HStem: -12 21<619.5 625> 620 33<1.64938 66.5039 189.109 238.926 266.649 333.392 613.369 689.313 711.06 766.25 860.08 928.313> 776.27 72<235.959 344.68>
VStem: 0 187<577.5 646> 458 72<359.172 429.281>
LayerCount: 2
Fore
SplineSet
448 727.26953125 m 0
 395 742.26953125 321 761.26953125 260 776.26953125 c 0
 246 779.26953125 228 786.26953125 228 802.26953125 c 24
 229 824.26953125 242 838.26953125 263 848.26953125 c 24
 281 857.26953125 297 853.26953125 315 843.26953125 c 0
 378 811.26953125 410 791.26953125 479 747.26953125 c 0
 490 740.26953125 490 727.26953125 482 725.26953125 c 0
 470 722.26953125 457 725.26953125 448 727.26953125 c 0
EndSplineSet
Refer: 38 87 N 1 0 0 1 0 0 3
Validated: 524321
EndChar

StartChar: Wacute
Encoding: 7810 7810 483
Width: 916
VWidth: 0
Flags: W
HStem: -12 21<619.5 625> 620 33<1.64938 66.5039 189.109 238.926 266.649 333.392 613.369 689.313 711.06 766.25 860.08 928.313> 776.27 72<585.32 694.041>
VStem: 0 187<577.5 646> 458 72<359.172 429.281>
LayerCount: 2
Fore
SplineSet
482 727.26953125 m 0
 473 725.26953125 460 722.26953125 448 725.26953125 c 0
 440 727.26953125 440 740.26953125 451 747.26953125 c 0
 520 791.26953125 552 811.26953125 615 843.26953125 c 0
 633 853.26953125 649 857.26953125 667 848.26953125 c 24
 688 838.26953125 701 824.26953125 702 802.26953125 c 24
 702 786.26953125 684 779.26953125 670 776.26953125 c 0
 609 761.26953125 535 742.26953125 482 727.26953125 c 0
EndSplineSet
Refer: 38 87 N 1 0 0 1 0 0 3
Validated: 524321
EndChar

StartChar: Wdieresis
Encoding: 7812 7812 485
Width: 916
VWidth: 0
Flags: W
HStem: -12 21<619.5 625> 620 33<1.64938 66.5039 189.109 238.926 266.649 333.392 613.369 689.313 711.06 766.25 860.08 928.313> 724 110<326.847 413.153 516.847 603.153>
VStem: 0 187<577.5 646> 315 110<735.847 822.153> 458 72<359.172 429.281> 505 110<735.847 822.153>
LayerCount: 2
Fore
SplineSet
560 834 m 24xfa
 590 834 615 809 615 779 c 24
 615 749 590 724 560 724 c 24
 530 724 505 749 505 779 c 24
 505 809 530 834 560 834 c 24xfa
370 834 m 24
 400 834 425 809 425 779 c 24
 425 749 400 724 370 724 c 24
 340 724 315 749 315 779 c 24
 315 809 340 834 370 834 c 24
EndSplineSet
Refer: 38 87 N 1 0 0 1 0 0 3
Validated: 8388609
EndChar

StartChar: uni1E8C
Encoding: 7820 7820 493
Width: 707
VWidth: 0
Flags: W
HStem: -5 33<-3.35062 67.7729 203.123 267.861 395.055 453.346 626.864 697.313> 622 33<19.6494 91.1203 243.386 317.637 443.217 513.033 626.879 693.56> 724 110<528.847 615.153 718.847 805.153>
VStem: 314 86<309.609 350.5> 517 110<735.847 822.153> 707 110<735.847 822.153>
LayerCount: 2
Fore
SplineSet
762 834 m 24
 792 834 817 809 817 779 c 24
 817 749 792 724 762 724 c 24
 732 724 707 749 707 779 c 24
 707 809 732 834 762 834 c 24
572 834 m 24
 602 834 627 809 627 779 c 24
 627 749 602 724 572 724 c 24
 542 724 517 749 517 779 c 24
 517 809 542 834 572 834 c 24
EndSplineSet
Refer: 63 88 N 1 0 0 1 0 0 3
Validated: 8388609
EndChar

StartChar: uni1E90
Encoding: 7824 7824 497
Width: 603
VWidth: 0
Flags: W
HStem: -2 38<180.367 479.543> 604 42<110.395 431.997>
VStem: 36 37<506.312 565.979>
LayerCount: 2
Fore
SplineSet
95 793 m 0
 84 800 86 800 75 793 c 0
 49 778 45 774 -4 748 c 0
 -16 741 -43 730 -56 730 c 0
 -71 730 -76 742 -64 752 c 0
 4 809 -54 762 44 840 c 0
 64 856 70 862 85 862 c 0
 100 862 106 856 126 840 c 0
 224 762 166 809 234 752 c 0
 246 742 241 729 226 729 c 0
 213 729 203 737 191 744 c 0
 142 770 121 778 95 793 c 0
EndSplineSet
Refer: 64 90 N 1 0 0 1 0 0 3
Validated: 1
EndChar

StartChar: uni1E94
Encoding: 7828 7828 501
Width: 603
VWidth: 0
Flags: W
HStem: -119 54<386.456 676.475> -2 38<180.367 479.543> 604 42<110.395 431.997>
VStem: 36 37<506.312 565.979>
LayerCount: 2
Fore
SplineSet
406.788085938 -65 m 30
 669.788085938 -65 l 30
 677.239257812 -65 685.14453125 -71.931640625 682.788085938 -79 c 28
 676.546875 -97.7236328125 671.524414062 -119 651.788085938 -119 c 30
 396.788085938 -119 l 30
 389.596679688 -119 382.788085938 -113 382.788085938 -107 c 4
 382.788085938 -98 387.922851562 -65 406.788085938 -65 c 30
EndSplineSet
Refer: 64 90 N 1 0 0 1 0 0 3
Validated: 524289
EndChar

StartChar: uni1EA4
Encoding: 7844 7844 510
Width: 684
VWidth: 0
Flags: W
HStem: -5 36<-0.573315 70.1888 195.015 266.525 401.311 474.5 612.158 694.277> 244 43<241.006 430.822> 701 132 944.269 72<483.233 591.954>
VStem: 217 291<705 715>
LayerCount: 2
Fore
SplineSet
379.913085938 895.268554688 m 0
 370.913085938 893.268554688 357.913085938 890.268554688 345.913085938 893.268554688 c 0
 337.913085938 895.268554688 337.913085938 908.268554688 348.913085938 915.268554688 c 0
 417.913085938 959.268554688 449.913085938 979.268554688 512.913085938 1011.26855469 c 0
 530.913085938 1021.26855469 546.913085938 1025.26855469 564.913085938 1016.26855469 c 24
 585.913085938 1006.26855469 598.913085938 992.268554688 599.913085938 970.268554688 c 24
 599.913085938 954.268554688 581.913085938 947.268554688 567.913085938 944.268554688 c 0
 506.913085938 929.268554688 432.913085938 910.268554688 379.913085938 895.268554688 c 0
EndSplineSet
Refer: 132 194 N 1 0 0 1 0 0 3
Validated: 524321
EndChar

StartChar: uni1EA6
Encoding: 7846 7846 512
Width: 684
VWidth: 0
Flags: W
HStem: -5 36<-0.573315 70.1888 195.015 266.525 401.311 474.5 612.158 694.277> 244 43<241.006 430.822> 701 132 944.269 72<133.872 242.593>
VStem: 217 291<705 715>
LayerCount: 2
Fore
SplineSet
345.913085938 895.268554688 m 0
 292.913085938 910.268554688 218.913085938 929.268554688 157.913085938 944.268554688 c 0
 143.913085938 947.268554688 125.913085938 954.268554688 125.913085938 970.268554688 c 24
 126.913085938 992.268554688 139.913085938 1006.26855469 160.913085938 1016.26855469 c 24
 178.913085938 1025.26855469 194.913085938 1021.26855469 212.913085938 1011.26855469 c 0
 275.913085938 979.268554688 307.913085938 959.268554688 376.913085938 915.268554688 c 0
 387.913085938 908.268554688 387.913085938 895.268554688 379.913085938 893.268554688 c 0
 367.913085938 890.268554688 354.913085938 893.268554688 345.913085938 895.268554688 c 0
EndSplineSet
Refer: 132 194 N 1 0 0 1 0 0 3
Validated: 524321
EndChar

StartChar: uni1EAA
Encoding: 7850 7850 514
Width: 684
VWidth: 0
Flags: W
HStem: -5 36<-0.573315 70.1888 195.015 266.525 401.311 474.5 612.158 694.277> 244 43<241.006 430.822> 701 132 916.888 63<285.622 470.562> 924.888 63<254.742 442.656>
VStem: 217 291<705 715>
LayerCount: 2
Fore
SplineSet
202.888671875 910.887695312 m 0xec
 228.29296875 947.16796875 274.888671875 987.887695312 289.888671875 987.887695312 c 0xec
 314.888671875 987.887695312 421.888671875 979.887695312 446.888671875 979.887695312 c 0
 461.888671875 979.887695312 486.888671875 994.887695312 503.888671875 1016.88769531 c 0
 508.888671875 1023.88769531 526.737304688 1004.38476562 522.888671875 998.887695312 c 4
 505.446289062 973.977539062 455.888671875 916.887695312 440.888671875 916.887695312 c 0xf4
 415.888671875 916.887695312 303.888671875 924.887695312 278.888671875 924.887695312 c 0
 263.888671875 924.887695312 239.888671875 910.887695312 223.888671875 892.887695312 c 0
 218.888671875 887.887695312 199.040039062 905.390625 202.888671875 910.887695312 c 0xec
EndSplineSet
Refer: 132 194 N 1 0 0 1 0 0 3
Validated: 524289
EndChar

StartChar: uni1EAC
Encoding: 7852 7852 516
Width: 684
VWidth: 0
Flags: W
HStem: -175 110<304.347 390.653> -5 36<-0.573315 70.1888 195.015 266.525 401.311 474.5 612.158 694.277> 244 43<241.006 430.822>
VStem: 292.5 110<-163.153 -76.847>
LayerCount: 2
Fore
SplineSet
385 800 m 0
 374 807 376 807 365 800 c 0
 339 785 335 781 286 755 c 0
 274 748 247 737 234 737 c 0
 219 737 214 749 226 759 c 0
 294 816 236 769 334 847 c 0
 354 863 360 869 375 869 c 0
 390 869 396 863 416 847 c 0
 514 769 456 816 524 759 c 0
 536 749 531 736 516 736 c 0
 503 736 493 744 481 751 c 0
 432 777 411 785 385 800 c 0
EndSplineSet
Refer: 508 7840 N 1 0 0 1 0 0 3
Validated: 524289
EndChar

StartChar: uni1EAE
Encoding: 7854 7854 518
Width: 684
VWidth: 0
Flags: W
HStem: -5 36<-0.573315 70.1888 195.015 266.525 401.311 474.5 612.158 694.277> 244 43<241.006 430.822> 692 70<286.213 439.787> 1002.27 72<495.32 604.041>
VStem: 213 300<758 835>
LayerCount: 2
Fore
SplineSet
392 953.268554688 m 0
 383 951.268554688 370 948.268554688 358 951.268554688 c 0
 350 953.268554688 350 966.268554688 361 973.268554688 c 0
 430 1017.26855469 462 1037.26855469 525 1069.26855469 c 0
 543 1079.26855469 559 1083.26855469 577 1074.26855469 c 24
 598 1064.26855469 611 1050.26855469 612 1028.26855469 c 24
 612 1012.26855469 594 1005.26855469 580 1002.26855469 c 0
 519 987.268554688 445 968.268554688 392 953.268554688 c 0
EndSplineSet
Refer: 181 258 N 1 0 0 1 0 0 3
Validated: 524321
EndChar

StartChar: uni1EB0
Encoding: 7856 7856 520
Width: 684
VWidth: 0
Flags: W
HStem: -5 36<-0.573315 70.1888 195.015 266.525 401.311 474.5 612.158 694.277> 244 43<241.006 430.822> 692 70<286.213 439.787> 1002.27 72<145.959 254.68>
VStem: 213 300<758 835>
LayerCount: 2
Fore
SplineSet
358 953.268554688 m 0
 305 968.268554688 231 987.268554688 170 1002.26855469 c 0
 156 1005.26855469 138 1012.26855469 138 1028.26855469 c 24
 139 1050.26855469 152 1064.26855469 173 1074.26855469 c 24
 191 1083.26855469 207 1079.26855469 225 1069.26855469 c 0
 288 1037.26855469 320 1017.26855469 389 973.268554688 c 0
 400 966.268554688 400 953.268554688 392 951.268554688 c 0
 380 948.268554688 367 951.268554688 358 953.268554688 c 0
EndSplineSet
Refer: 181 258 N 1 0 0 1 0 0 3
Validated: 524321
EndChar

StartChar: uni1EB4
Encoding: 7860 7860 522
Width: 684
VWidth: 0
Flags: W
HStem: -5 36<-0.573315 70.1888 195.015 266.525 401.311 474.5 612.158 694.277> 244 43<241.006 430.822> 692 70<286.213 439.787> 974.888 63<297.709 482.648> 982.888 63<266.829 454.742>
VStem: 213 300<758 835>
LayerCount: 2
Fore
SplineSet
214.975585938 968.887695312 m 0xec
 240.379882812 1005.16796875 286.975585938 1045.88769531 301.975585938 1045.88769531 c 0xec
 326.975585938 1045.88769531 433.975585938 1037.88769531 458.975585938 1037.88769531 c 0
 473.975585938 1037.88769531 498.975585938 1052.88769531 515.975585938 1074.88769531 c 0
 520.975585938 1081.88769531 538.82421875 1062.38476562 534.975585938 1056.88769531 c 4
 517.533203125 1031.97753906 467.975585938 974.887695312 452.975585938 974.887695312 c 0xf4
 427.975585938 974.887695312 315.975585938 982.887695312 290.975585938 982.887695312 c 0
 275.975585938 982.887695312 251.975585938 968.887695312 235.975585938 950.887695312 c 0
 230.975585938 945.887695312 211.126953125 963.390625 214.975585938 968.887695312 c 0xec
EndSplineSet
Refer: 181 258 N 1 0 0 1 0 0 3
Validated: 524289
EndChar

StartChar: uni1EB6
Encoding: 7862 7862 524
Width: 684
VWidth: 0
Flags: W
HStem: -175 110<304.347 390.653> -5 36<-0.573315 70.1888 195.015 266.525 401.311 474.5 612.158 694.277> 244 43<241.006 430.822> 736 70<298.213 451.787>
VStem: 292.5 110<-163.153 -76.847>
LayerCount: 2
Fore
SplineSet
257 869 m 0
 269 847 305 806 375 806 c 0
 445 806 481 847 493 869 c 0
 498 878 505 890 515 890 c 0
 525 890 525 879 525 866 c 0
 525 802 455 736 375 736 c 0
 295 736 225 791 225 866 c 0
 225 879 225 890 235 890 c 0
 245 890 252 878 257 869 c 0
EndSplineSet
Refer: 508 7840 N 1 0 0 1 0 0 3
Validated: 8912897
EndChar

StartChar: uni1EBC
Encoding: 7868 7868 528
Width: 535
VWidth: 0
Flags: W
HStem: -5 29<23.6924 99.9253> -5 40<228 455.39> 320 32<210.253 367.094> 388 20<400.5 405.5> 618 35<32.1729 114.247 219.165 433.859> 748.888 63<181.209 366.148> 756.888 63<150.329 338.242>
VStem: 130 80<51.352 319.809 352 605.889> 383 32<253.771 304.565> 466 25<526.084 573.315>
LayerCount: 2
Fore
SplineSet
98.4755859375 742.887695312 m 0x3bc0
 123.879882812 779.16796875 170.475585938 819.887695312 185.475585938 819.887695312 c 0x3bc0
 210.475585938 819.887695312 317.475585938 811.887695312 342.475585938 811.887695312 c 0
 357.475585938 811.887695312 382.475585938 826.887695312 399.475585938 848.887695312 c 0
 404.475585938 855.887695312 422.32421875 836.384765625 418.475585938 830.887695312 c 4
 401.033203125 805.977539062 351.475585938 748.887695312 336.475585938 748.887695312 c 0x3dc0
 311.475585938 748.887695312 199.475585938 756.887695312 174.475585938 756.887695312 c 0
 159.475585938 756.887695312 135.475585938 742.887695312 119.475585938 724.887695312 c 0
 114.475585938 719.887695312 94.626953125 737.390625 98.4755859375 742.887695312 c 0x3bc0
EndSplineSet
Refer: 35 69 N 1 0 0 1 0 0 3
Validated: 8912897
EndChar

StartChar: uni1EBE
Encoding: 7870 7870 530
Width: 535
VWidth: 0
Flags: W
HStem: -5 29<23.6924 99.9253> -5 40<228 455.39> 320 32<210.253 367.094> 388 20<400.5 405.5> 618 35<32.1729 114.247 219.165 433.859> 702 132 944.269 72<392.262 500.983>
VStem: 130 80<51.352 319.809 352 605.889> 141 291<706 716> 383 32<253.771 304.565> 466 25<526.084 573.315>
LayerCount: 2
Fore
SplineSet
288.942382812 895.268554688 m 0x3e20
 279.942382812 893.268554688 266.942382812 890.268554688 254.942382812 893.268554688 c 0
 246.942382812 895.268554688 246.942382812 908.268554688 257.942382812 915.268554688 c 0
 326.942382812 959.268554688 358.942382812 979.268554688 421.942382812 1011.26855469 c 0
 439.942382812 1021.26855469 455.942382812 1025.26855469 473.942382812 1016.26855469 c 24
 494.942382812 1006.26855469 507.942382812 992.268554688 508.942382812 970.268554688 c 24
 508.942382812 954.268554688 490.942382812 947.268554688 476.942382812 944.268554688 c 0
 415.942382812 929.268554688 341.942382812 910.268554688 288.942382812 895.268554688 c 0x3e20
EndSplineSet
Refer: 139 202 N 1 0 0 1 0 0 3
Validated: 524321
EndChar

StartChar: uni1EC0
Encoding: 7872 7872 532
Width: 535
VWidth: 0
Flags: W
HStem: -5 29<23.6924 99.9253> -5 40<228 455.39> 320 32<210.253 367.094> 388 20<400.5 405.5> 618 35<32.1729 114.247 219.165 433.859> 702 132 944.269 72<42.9014 151.623>
VStem: 130 80<51.352 319.809 352 605.889> 141 291<706 716> 383 32<253.771 304.565> 466 25<526.084 573.315>
LayerCount: 2
Fore
SplineSet
254.942382812 895.268554688 m 0x3e20
 201.942382812 910.268554688 127.942382812 929.268554688 66.9423828125 944.268554688 c 0
 52.9423828125 947.268554688 34.9423828125 954.268554688 34.9423828125 970.268554688 c 24
 35.9423828125 992.268554688 48.9423828125 1006.26855469 69.9423828125 1016.26855469 c 24
 87.9423828125 1025.26855469 103.942382812 1021.26855469 121.942382812 1011.26855469 c 0
 184.942382812 979.268554688 216.942382812 959.268554688 285.942382812 915.268554688 c 0
 296.942382812 908.268554688 296.942382812 895.268554688 288.942382812 893.268554688 c 0
 276.942382812 890.268554688 263.942382812 893.268554688 254.942382812 895.268554688 c 0x3e20
EndSplineSet
Refer: 139 202 N 1 0 0 1 0 0 3
Validated: 524321
EndChar

StartChar: uni1EC4
Encoding: 7876 7876 534
Width: 535
VWidth: 0
Flags: W
HStem: -5 29<23.6924 99.9253> -5 40<228 455.39> 320 32<210.253 367.094> 388 20<400.5 405.5> 618 35<32.1729 114.247 219.165 433.859> 702 132 916.888 63<194.652 379.592> 924.888 63<163.772 351.686>
VStem: 130 80<51.352 319.809 352 605.889> 141 291<706 716> 383 32<253.771 304.565> 466 25<526.084 573.315>
LayerCount: 2
Fore
SplineSet
111.918945312 910.887695312 m 0x3d10
 137.323242188 947.16796875 183.918945312 987.887695312 198.918945312 987.887695312 c 0x3d10
 223.918945312 987.887695312 330.918945312 979.887695312 355.918945312 979.887695312 c 0
 370.918945312 979.887695312 395.918945312 994.887695312 412.918945312 1016.88769531 c 0
 417.918945312 1023.88769531 435.767578125 1004.38476562 431.918945312 998.887695312 c 4
 414.4765625 973.977539062 364.918945312 916.887695312 349.918945312 916.887695312 c 0x3e10
 324.918945312 916.887695312 212.918945312 924.887695312 187.918945312 924.887695312 c 0
 172.918945312 924.887695312 148.918945312 910.887695312 132.918945312 892.887695312 c 0
 127.918945312 887.887695312 108.0703125 905.390625 111.918945312 910.887695312 c 0x3d10
EndSplineSet
Refer: 139 202 N 1 0 0 1 0 0 3
Validated: 8912897
EndChar

StartChar: uni1EC6
Encoding: 7878 7878 536
Width: 535
VWidth: 0
Flags: W
HStem: -175 110<229.847 316.153> -5 29<23.6924 99.9253> -5 40<228 455.39> 320 32<210.253 367.094> 388 20<400.5 405.5> 618 35<32.1729 114.247 219.165 433.859>
VStem: 130 80<51.352 319.809 352 605.889> 218 110<-163.153 -76.847> 383 32<253.771 304.565> 466 25<526.084 573.315>
LayerCount: 2
Fore
SplineSet
268.5 788 m 0x9fc0
 257.5 795 259.5 795 248.5 788 c 0
 222.5 773 218.5 769 169.5 743 c 0
 157.5 736 130.5 725 117.5 725 c 0
 102.5 725 97.5 737 109.5 747 c 0
 177.5 804 119.5 757 217.5 835 c 0
 237.5 851 243.5 857 258.5 857 c 0
 273.5 857 279.5 851 299.5 835 c 0
 397.5 757 339.5 804 407.5 747 c 0
 419.5 737 414.5 724 399.5 724 c 0
 386.5 724 376.5 732 364.5 739 c 0
 315.5 765 294.5 773 268.5 788 c 0x9fc0
EndSplineSet
Refer: 526 7864 N 1 0 0 1 0 0 3
Validated: 524289
EndChar

StartChar: uni1ED0
Encoding: 7888 7888 542
Width: 763
VWidth: 0
Flags: W
HStem: -14 39<309.694 487.027> 625 39<289.881 469.419> 701 132 944.269 72<497.32 606.041>
VStem: 45 97<219.261 444.186> 237 291<705 715> 621 97<206.698 451.883>
LayerCount: 2
Fore
SplineSet
394 895.268554688 m 0
 385 893.268554688 372 890.268554688 360 893.268554688 c 0
 352 895.268554688 352 908.268554688 363 915.268554688 c 0
 432 959.268554688 464 979.268554688 527 1011.26855469 c 0
 545 1021.26855469 561 1025.26855469 579 1016.26855469 c 24
 600 1006.26855469 613 992.268554688 614 970.268554688 c 24
 614 954.268554688 596 947.268554688 582 944.268554688 c 0
 521 929.268554688 447 910.268554688 394 895.268554688 c 0
EndSplineSet
Refer: 148 212 N 1 0 0 1 0 0 3
Validated: 524321
EndChar

StartChar: uni1ED2
Encoding: 7890 7890 544
Width: 763
VWidth: 0
Flags: W
HStem: -14 39<309.694 487.027> 625 39<289.881 469.419> 701 132 944.269 72<147.959 256.68>
VStem: 45 97<219.261 444.186> 237 291<705 715> 621 97<206.698 451.883>
LayerCount: 2
Fore
SplineSet
360 895.268554688 m 0
 307 910.268554688 233 929.268554688 172 944.268554688 c 0
 158 947.268554688 140 954.268554688 140 970.268554688 c 24
 141 992.268554688 154 1006.26855469 175 1016.26855469 c 24
 193 1025.26855469 209 1021.26855469 227 1011.26855469 c 0
 290 979.268554688 322 959.268554688 391 915.268554688 c 0
 402 908.268554688 402 895.268554688 394 893.268554688 c 0
 382 890.268554688 369 893.268554688 360 895.268554688 c 0
EndSplineSet
Refer: 148 212 N 1 0 0 1 0 0 3
Validated: 524321
EndChar

StartChar: uni1ED6
Encoding: 7894 7894 546
Width: 763
VWidth: 0
Flags: W
HStem: -14 39<309.694 487.027> 625 39<289.881 469.419> 701 132 916.888 63<299.709 484.648> 924.888 63<268.829 456.742>
VStem: 45 97<219.261 444.186> 237 291<705 715> 621 97<206.698 451.883>
LayerCount: 2
Fore
SplineSet
216.975585938 910.887695312 m 0xef
 242.379882812 947.16796875 288.975585938 987.887695312 303.975585938 987.887695312 c 0xef
 328.975585938 987.887695312 435.975585938 979.887695312 460.975585938 979.887695312 c 0
 475.975585938 979.887695312 500.975585938 994.887695312 517.975585938 1016.88769531 c 0
 522.975585938 1023.88769531 540.82421875 1004.38476562 536.975585938 998.887695312 c 4
 519.533203125 973.977539062 469.975585938 916.887695312 454.975585938 916.887695312 c 0xf7
 429.975585938 916.887695312 317.975585938 924.887695312 292.975585938 924.887695312 c 0
 277.975585938 924.887695312 253.975585938 910.887695312 237.975585938 892.887695312 c 0
 232.975585938 887.887695312 213.126953125 905.390625 216.975585938 910.887695312 c 0xef
EndSplineSet
Refer: 148 212 N 1 0 0 1 0 0 3
Validated: 524289
EndChar

StartChar: uni1ED8
Encoding: 7896 7896 548
Width: 763
VWidth: 0
Flags: W
HStem: -184 110<338.847 425.153> -14 39<309.694 487.027> 625 39<289.881 469.419>
VStem: 45 97<219.261 444.186> 327 110<-172.153 -85.847> 621 97<206.698 451.883>
LayerCount: 2
Fore
SplineSet
400 788 m 0
 389 795 391 795 380 788 c 0
 354 773 350 769 301 743 c 0
 289 736 262 725 249 725 c 0
 234 725 229 737 241 747 c 0
 309 804 251 757 349 835 c 0
 369 851 375 857 390 857 c 0
 405 857 411 851 431 835 c 0
 529 757 471 804 539 747 c 0
 551 737 546 724 531 724 c 0
 518 724 508 732 496 739 c 0
 447 765 426 773 400 788 c 0
EndSplineSet
Refer: 540 7884 N 1 0 0 1 0 0 3
Validated: 1
EndChar

StartChar: uni1EDA
Encoding: 7898 7898 550
Width: 783
VWidth: 0
Flags: W
HStem: -14 39<314.694 492.027> 625 39<291.968 474.205> 836.27 72<844.32 953.041>
VStem: 50 97<219.261 447.814> 626 97<206.698 451.269> 706 56<605.697 675.5>
LayerCount: 2
Fore
SplineSet
741 787.26953125 m 0xf0
 732 785.26953125 719 782.26953125 707 785.26953125 c 0
 699 787.26953125 699 800.26953125 710 807.26953125 c 0
 779 851.26953125 811 871.26953125 874 903.26953125 c 0
 892 913.26953125 908 917.26953125 926 908.26953125 c 24
 947 898.26953125 960 884.26953125 961 862.26953125 c 24
 961 846.26953125 943 839.26953125 929 836.26953125 c 0
 868 821.26953125 794 802.26953125 741 787.26953125 c 0xf0
EndSplineSet
Refer: 288 416 N 1 0 0 1 0 0 3
Validated: 524321
EndChar

StartChar: uni1EDC
Encoding: 7900 7900 552
Width: 783
VWidth: 0
Flags: W
HStem: -14 39<314.694 492.027> 625 39<291.968 474.205> 836.27 72<494.959 603.68>
VStem: 50 97<219.261 447.814> 626 97<206.698 451.269> 706 56<605.697 675.5>
LayerCount: 2
Fore
SplineSet
707 787.26953125 m 0xf0
 654 802.26953125 580 821.26953125 519 836.26953125 c 0
 505 839.26953125 487 846.26953125 487 862.26953125 c 24
 488 884.26953125 501 898.26953125 522 908.26953125 c 24
 540 917.26953125 556 913.26953125 574 903.26953125 c 0
 637 871.26953125 669 851.26953125 738 807.26953125 c 0
 749 800.26953125 749 787.26953125 741 785.26953125 c 0
 729 782.26953125 716 785.26953125 707 787.26953125 c 0xf0
EndSplineSet
Refer: 288 416 N 1 0 0 1 0 0 3
Validated: 524321
EndChar

StartChar: uni1EE0
Encoding: 7904 7904 554
Width: 783
VWidth: 0
Flags: W
HStem: -14 39<314.694 492.027> 625 39<291.968 474.205> 808.888 63<646.709 831.648> 816.888 63<615.829 803.742>
VStem: 50 97<219.261 447.814> 626 97<206.698 451.269> 706 56<605.697 675.5>
LayerCount: 2
Fore
SplineSet
563.975585938 802.887695312 m 0xd8
 589.379882812 839.16796875 635.975585938 879.887695312 650.975585938 879.887695312 c 0xd8
 675.975585938 879.887695312 782.975585938 871.887695312 807.975585938 871.887695312 c 0
 822.975585938 871.887695312 847.975585938 886.887695312 864.975585938 908.887695312 c 0
 869.975585938 915.887695312 887.82421875 896.384765625 883.975585938 890.887695312 c 4
 866.533203125 865.977539062 816.975585938 808.887695312 801.975585938 808.887695312 c 0xe8
 776.975585938 808.887695312 664.975585938 816.887695312 639.975585938 816.887695312 c 0
 624.975585938 816.887695312 600.975585938 802.887695312 584.975585938 784.887695312 c 0
 579.975585938 779.887695312 560.126953125 797.390625 563.975585938 802.887695312 c 0xd8
EndSplineSet
Refer: 288 416 N 1 0 0 1 0 0 3
Validated: 8912897
EndChar

StartChar: Ygrave
Encoding: 7922 7922 560
Width: 578
VWidth: 0
Flags: W
HStem: -5 29<153.692 226.247 382.521 455.308> 620 33<1.64938 59.1406 191.55 253.781 385.06 452.318 547.1 611.313> 776.27 72<77.459 186.18>
VStem: 264 80<52.5 323.576> 458 155<579 646>
LayerCount: 2
Fore
SplineSet
289.5 727.26953125 m 0
 236.5 742.26953125 162.5 761.26953125 101.5 776.26953125 c 0
 87.5 779.26953125 69.5 786.26953125 69.5 802.26953125 c 24
 70.5 824.26953125 83.5 838.26953125 104.5 848.26953125 c 24
 122.5 857.26953125 138.5 853.26953125 156.5 843.26953125 c 0
 219.5 811.26953125 251.5 791.26953125 320.5 747.26953125 c 0
 331.5 740.26953125 331.5 727.26953125 323.5 725.26953125 c 0
 311.5 722.26953125 298.5 725.26953125 289.5 727.26953125 c 0
EndSplineSet
Refer: 49 89 N 1 0 0 1 0 0 3
Validated: 524321
EndChar

StartChar: uni1EF8
Encoding: 7928 7928 564
Width: 578
VWidth: 0
Flags: W
HStem: -5 29<153.692 226.247 382.521 455.308> 620 33<1.64938 59.1406 191.55 253.781 385.06 452.318 547.1 611.313> 748.888 63<229.209 414.148> 756.888 63<198.329 386.242>
VStem: 264 80<52.5 323.576> 458 155<579 646>
LayerCount: 2
Fore
SplineSet
146.475585938 742.887695312 m 0xdc
 171.879882812 779.16796875 218.475585938 819.887695312 233.475585938 819.887695312 c 0xdc
 258.475585938 819.887695312 365.475585938 811.887695312 390.475585938 811.887695312 c 0
 405.475585938 811.887695312 430.475585938 826.887695312 447.475585938 848.887695312 c 0
 452.475585938 855.887695312 470.32421875 836.384765625 466.475585938 830.887695312 c 4
 449.033203125 805.977539062 399.475585938 748.887695312 384.475585938 748.887695312 c 0xec
 359.475585938 748.887695312 247.475585938 756.887695312 222.475585938 756.887695312 c 0
 207.475585938 756.887695312 183.475585938 742.887695312 167.475585938 724.887695312 c 0
 162.475585938 719.887695312 142.626953125 737.390625 146.475585938 742.887695312 c 0xdc
EndSplineSet
Refer: 49 89 N 1 0 0 1 0 0 3
Validated: 524289
EndChar

StartChar: ordfeminine
Encoding: 170 170 573
Width: 270
VWidth: 0
Flags: W
HStem: 161 35<26.2861 265.751> 268 40<82.77 146.96 215.036 257.006> 491 33<95.2391 169.811>
VStem: 25 55<310.316 371.53 441.099 475.49> 160 56<317.082 387.993 406.688 487.507>
LayerCount: 2
Fore
SplineSet
49 196 m 26
 255 196 l 26
 262 196 271 189 268 182 c 24
 261 169 252 161 237 161 c 26
 39 161 l 26
 32 161 25 167 25 173 c 0
 25 182 36 196 49 196 c 26
80 342 m 0
 80 319 99 308 112 308 c 0
 129 308 142 319 152 327 c 0
 157 331 159 335 159 350 c 10
 160 379 l 18
 160 391 156 393 145 390 c 0
 95 376 80 356 80 342 c 0
219 268 m 0
 182 268 169 299 164 299 c 0
 155 299 137 268 84 268 c 4
 57 268 25 304 25 327 c 0
 25 352 31 368 63 380 c 10
 142 408 l 18
 159 414 160 416 160 432 c 2
 160 455 l 26
 160 475 147 491 123 491 c 0
 107 491 85 486 80 478 c 0
 77 472 77 460 78 453 c 0
 79 445 48 438 33 434 c 0
 29 433 26 437 29 444 c 0
 35 459 38 469 54 482 c 0
 74 499 120 524 154 524 c 0
 185 524 217 499 216 471 c 10
 213 347 l 26
 213 330 215 308 234 308 c 0
 246 308 251 310 255 316 c 0
 260 323 270 307 268 301 c 0
 267 298 243 268 219 268 c 0
EndSplineSet
Validated: 33
EndChar

StartChar: uni00B2
Encoding: 178 178 574
Width: 300
VWidth: 0
Flags: W
HStem: 440 52<100.824 234.985> 716 54<76.9321 164.064>
VStem: 178 56<617.577 702.332>
LayerCount: 2
Fore
SplineSet
42 678 m 0
 40 674 37 670 33 672 c 24
 28 674 26 678 26 683 c 0
 26 703 73 770 143 770 c 0
 194 770 234 728 234 677 c 16
 234 643 217 623 200 598 c 0
 178 565 108 506 101 498 c 0
 97 494 109 492 113 492 c 0
 134 493 142 492 182 492 c 0
 212 492 241 512 256 542 c 0
 258 547 265 551 271 550 c 24
 275 550 275 544 274 541 c 0
 261 505 253 481 247 450 c 0
 245 436 239 436 235 437 c 0
 184 440 184 440 151 440 c 28
 103 440 79 440 28 438 c 0
 23 437 21 447 28 454 c 0
 41 467 58 485 67 494 c 0
 83 510 177 588 178 651 c 0
 179 689 152 716 121 716 c 0
 85 716 70 708 42 678 c 0
EndSplineSet
Validated: 33
EndChar

StartChar: uni00B3
Encoding: 179 179 575
Width: 300
VWidth: 0
Flags: W
HStem: 434 34<85.013 175.221> 588 11<83 88.8789> 595 32<134 184> 723 47<92.8902 179.939>
VStem: 187 56<657.602 715.038> 201 52<497.123 577.852>
LayerCount: 2
Fore
SplineSet
187 686 m 16xd8
 187 708 156 724 138 723 c 0
 116 722 92 713 68 693 c 0
 65 690 62 686 58 687 c 24
 54 689 50 694 52 698 c 0
 68 729 102 770 155 770 c 0
 206 769 243 750 243 699 c 0xd8
 243 674 220 650 184 632 c 0
 180 630 180 627 184 627 c 8
 221 625 253 598 253 561 c 16
 253 480 165 434 112 434 c 0
 86 434 74 435 57 446 c 0
 48 452 46 462 46 467 c 0
 46 475 55 495 64 495 c 0
 70 495 75 492 77 490 c 0
 89 482 112 468 142 468 c 0
 155 468 201 472 201 530 c 8
 201 566 172 595 134 595 c 0xb4
 124 595 108 591 97 588 c 0
 91 586 78 594 83 599 c 24
 98 614 119 615 132 624 c 0
 162 644 187 654 187 686 c 16xd8
EndSplineSet
Validated: 33
EndChar

StartChar: uni00B9
Encoding: 185 185 576
Width: 300
VWidth: 0
Flags: W
HStem: 439 25<59.4831 111.148 190.486 243.312>
VStem: 123 60<470.298 695.082>
LayerCount: 2
Fore
SplineSet
171 782 m 0
 182 787 188 780 187 770 c 0
 185 756 184 732 183 700 c 0
 182 611 182 557 183 510 c 0
 185 471 189 470 233 464 c 0
 249 462 249 439 233 439 c 0
 176 439 183 444 151 444 c 28
 119 444 123 439 69 439 c 0
 57 439 51 463 69 464 c 0
 95 466 123 469 123 510 c 0
 123 546 123 594 123 663 c 0
 123 690 86 704 69 710 c 0
 51 716 59 736 68 737 c 0
 119 742 159 776 171 782 c 0
EndSplineSet
Validated: 33
EndChar

StartChar: ordmasculine
Encoding: 186 186 577
Width: 309
VWidth: 0
Flags: W
HStem: 161 35<26.2861 281.751> 268 31<120.375 197.705> 491 33<110.01 189.517>
VStem: 25 61<328.195 460.701> 223 61<326.748 460.948>
LayerCount: 2
Fore
SplineSet
49 196 m 26
 271 196 l 26
 278 196 287 189 284 182 c 24
 277 169 268 161 253 161 c 26
 39 161 l 26
 32 161 25 167 25 173 c 0
 25 182 36 196 49 196 c 26
149 491 m 0
 104 491 86 448 86 402 c 0
 86 347 116 299 160 299 c 0
 204 299 223 341 223 389 c 0
 223 441 194 491 149 491 c 0
160 524 m 0
 225 524 284 469 284 404 c 0
 284 334 238 268 148 268 c 0
 81 268 25 316 25 388 c 0
 25 462 86 524 160 524 c 0
EndSplineSet
Validated: 1
EndChar

StartChar: OE
Encoding: 338 338 580
Width: 961
VWidth: 0
Flags: W
HStem: -14 39<309.694 511.952> -5 40<626.959 851.358> 2 33<630.215 849.059> 388 20G<796.5 801.5> 618 30<621.469 826.007> 625 39<287.149 477.827>
VStem: 45 97<219.261 447.462> 530 76<54.7206 315.576 352 584.413> 780 32<253.771 300.562> 863 25<532.08 574.023>
LayerCount: 2
Fore
SplineSet
466 -5 m 0x53c0
 440 -11 412 -14 382 -14 c 0
 205 -14 45 130 45 320 c 0
 45 500 163 659 382 664 c 0x97c0
 416 665 449 660 481 652 c 0
 483 651 493 651 496 651 c 0
 538 651 528 648 549 648 c 24
 670 649 832 654 858 653 c 0
 865 653 875 651 876 644 c 0
 883 606 887 576 888 541 c 0
 888 535 880 532 874 532 c 0
 867 532 865 535 863 542 c 0
 856 564 849 581 840 591 c 0
 821 612 798 618 773 618 c 0
 726 618 670 618 642 618 c 0
 631 618 619 604 617 592 c 0
 615 583 610 548 609 520 c 0
 607 472 606 423 606 374 c 0
 606 363 606 352 616 352 c 0
 658 352 696 352 720 352 c 0
 735 352 752 356 764 367 c 0
 773 375 776 379 781 391 c 0
 783 396 794 408 799 408 c 0
 804 408 813 401 812 392 c 0
 807 340 809 320 812 269 c 0
 812 260 811 252 803 252 c 8
 790 252 782 268 780 275 c 0
 770 306 749 312 733 314 c 0
 692 320 670 323 630 316 c 24
 617 314 605 308 606 291 c 0
 606 230 607 170 609 113 c 0
 610 72 627 35 672 35 c 0
 676 35 762 35 776 35 c 0
 781 35 839 43 852 53 c 0
 870 67 886 99 894 116 c 0
 898 124 901 126 908 126 c 24
 915 125 922 121 921 114 c 0
 917 75 912 44 904 12 c 0
 902 4 900 -5 890 -5 c 8x5bc0
 766 -5 673 2 573 2 c 0x33c0
 523 2 468 -5 466 -5 c 0x53c0
530 146 m 0
 535 296 535 349 530 499 c 0
 530 501 528 538 528 540 c 0
 521 601 459 625 375 625 c 0
 227 625 142 490 142 350 c 0
 142 179 247 25 395 25 c 0
 469 25 529 27 528 81 c 0
 528 91 529 131 530 146 c 0
EndSplineSet
Validated: 33
EndChar

StartChar: oe
Encoding: 339 339 581
Width: 726
Flags: W
HStem: -15 36.9999<242.335 385.646> -1.99996 41<480.845 653.976> 220 33<476.46 595.617> 410 41<476 642.934> 424 32.0001<229.322 368.335>
VStem: 66 85<119.755 310.96> 401 75<42.772 218.529 253 393.971> 661 19<347.096 375.828>
AnchorPoint: "top_accent" 432 580 basechar 0
LayerCount: 2
Fore
SplineSet
391 394.311 m 0xaf
 366.2494 412.8268 335.0953 423.9999 297 423.9999 c 0
 185 423.9999 151 326.9999 151 231.9999 c 0
 151 114.9999 207 21.9999 319 21.9999 c 0
 348 21.9999 363.7832 24.55654 386 39.9999 c 0
 399.381 49.30132 401 61.9999 401 78.9999 c 2
 401 356.9999 l 2
 401 375.9999 400.608776 387.1227 391 394.311 c 0xaf
390 -2.83806 m 1
 364.0375 -10.6766 335.0278 -14.99996 303 -14.99996 c 0
 170 -14.99996 66 88.00004 66 217.00004 c 0
 66 340.00004 175 456.00004 303 456.00004 c 0xaf
 314.8242 456.00004 326.5091 455.208945 338 453.69615 c 0
 364.8039 450.16736 394.5951 448.00004 428 448.00004 c 0
 509 448.00004 609 451.00004 646 451.00004 c 2
 657 451.00004 l 2
 661 451.00004 668 450.00004 669 445.00004 c 0
 674 419.00004 680 377.00004 680 353.00004 c 0
 680 349.00004 673 347.00004 669 347.00004 c 0
 664 347.00004 663 349.00004 661 354.00004 c 0
 651 385.00004 634 410.00004 599 410.00004 c 2
 501 410.00004 l 2
 493 410.00004 476 407.00004 476 390.00004 c 2
 476 268.00004 l 2
 476 261.00004 477 253.00004 483 253.00004 c 2
 562 253.00004 l 2
 583 253.00004 598 264.00004 604 281.00004 c 0
 606 284.00004 615 294.00004 618 294.00004 c 0
 622 294.00004 628 289.00004 627 283.00004 c 0
 626 267.00004 625 252.00004 625 237.00004 c 0
 625 219.00004 626 201.00004 627 182.00004 c 0
 628 176.00004 627 170.00004 621 170.00004 c 0
 610.793 170.00004 605 185.00004 603 189.00004 c 0
 597 210.00004 582 216.00004 571 218.00004 c 0
 555 220.00004 562 220.00004 551 220.00004 c 2
 521 220.00004 l 2
 502 220.00004 476 219.00004 476 200.00004 c 2
 476 90.00004 l 2
 476 50.00004 491 39.00004 521 39.00004 c 2
 601 39.00004 l 2
 642.2276 39.00004 667.8825 68.14154 681 97.00004 c 0
 685 105.00004 705 108.00004 705 96.00004 c 1
 702 69.00004 694 32.00004 688 10.00004 c 0
 687 4.00004 686 -1.99996 679 -1.99996 c 0x77
 587.3291 -1.99996 512 3.00004 444 3.00004 c 0
 421 3.00004 411.0611 3.520683 390 -2.83802 c 1
 390 -2.83806 l 1
EndSplineSet
Validated: 33
Ligature2: "LATliga subtable" o e
EndChar

StartChar: uni01C0
Encoding: 448 448 582
Width: 260
VWidth: 0
HStem: -14 21G<109 116.5>
VStem: 100 60<-10.1583 700.038>
LayerCount: 2
Fore
SplineSet
100 676 m 10
 100 697.633789062 140 707 146 707 c 0
 153 707 160 701.451171875 160 694 c 18
 160 10 l 10
 160 -10.9296875 121 -14 112 -14 c 4
 106 -14 100 -7.19140625 100 0 c 18
 100 676 l 10
EndSplineSet
Validated: 1
EndChar

StartChar: uni01C1
Encoding: 449 449 583
Width: 270
VWidth: 0
Flags: W
HStem: -14 21G<49 56.5 179 186.5>
VStem: 40 60<-10.1583 700.038> 170 60<-10.1583 700.038>
LayerCount: 2
Fore
SplineSet
40 676 m 10
 40 697.633789062 80 707 86 707 c 0
 93 707 100 701.451171875 100 694 c 18
 100 10 l 14
 100 -10.9296875 61 -14 52 -14 c 4
 46 -14 40 -7.19140625 40 0 c 22
 40 676 l 10
170 676 m 10
 170 697.633789062 210 707 216 707 c 0
 223 707 230 701.451171875 230 694 c 18
 230 10 l 14
 230 -10.9296875 191 -14 182 -14 c 4
 176 -14 170 -7.19140625 170 0 c 22
 170 676 l 10
EndSplineSet
Validated: 1
EndChar

StartChar: uni02B0
Encoding: 688 688 610
Width: 332
VWidth: 0
Flags: W
HStem: 273 24<6.35742 45.1243 105.948 141.684 187.357 222.518 286.432 323.643> 488 36<130.097 211.809>
VStem: 49 54<298.587 471.533 493.147 649.535> 227 54<298.718 475.726>
LayerCount: 2
Fore
SplineSet
281 323 m 6
 281 307 296 300 309 297 c 4
 316 294 324 289 324 283 c 4
 324 277 312 273 309 273 c 4
 283 273 277 273 254 273 c 4
 231 273 227 273 202 273 c 4
 199 273 187 277 187 283 c 4
 187 289 195 294 202 297 c 4
 215 300 227 307 227 323 c 6
 227 434 l 10
 227 464.061 200 488 172 488 c 0
 156 488 133 481 120 472 c 0
 107 462 103 454 103 429 c 0
 103 382 103 358 103 321 c 4
 103 305 114 300 127 297 c 4
 135 294 142 289 142 283 c 4
 142 277 131 273 127 273 c 4
 102 273 99 273 76 273 c 4
 53 273 47 273 21 273 c 4
 18 273 6 277 6 283 c 4
 6 289 14 294 21 297 c 4
 34 300 49 305 49 321 c 4
 49 483 49 493 49 608 c 0
 49 629 42 647 20 652 c 8
 11.625 653.903 10.5977 672.218 19 674 c 16
 52 681 75 690 96 698 c 0
 99 699 107 696 109 694 c 0
 109 687 103 677 103 612 c 0
 103 575 103 546 103 515 c 0
 103 508 105 496 108 493 c 1
 128 507 161 524 202 524 c 0
 244 524 281 498 281 452 c 2
 281 323 l 6
EndSplineSet
Validated: 1
EndChar

StartChar: uni02B2
Encoding: 690 690 611
Width: 137
VWidth: 0
Flags: W
HStem: 92 24<-5.55711 21.3667> 589 69<49.0938 115.891>
VStem: 46 73<592.656 654.322> 61 57<167.41 466.147>
LayerCount: 2
Fore
SplineSet
46 623 m 4xe0
 46 641 64 658 82 658 c 4
 101 658 119 641 119 623 c 4
 119 606 101 589 82 589 c 4
 64 589 46 606 46 623 c 4xe0
61 425 m 0xd0
 61 446 52 464 31 469 c 8
 22.6445 470.989 21.5977 489.218 30 491 c 16
 63 498 86 518 109 530 c 0
 112 531 123 531 123 528 c 0
 122 514 118 481 118 429 c 0
 118 399 118 362 118 319 c 0
 118 282 117 221 99 173 c 0
 83 133 41 97 15 92 c 0
 10 91 -6 95 -6 100 c 0
 -6 105 -3 116 -1 116 c 0
 14 120 30 130 42 154 c 0
 61 191 61 266 61 307 c 0
 61 360 61 395 61 425 c 0xd0
EndSplineSet
Validated: 1
EndChar

StartChar: uni02B3
Encoding: 691 691 612
Width: 229
VWidth: 0
Flags: W
HStem: 273 24<7.35742 46.7138 107.54 150.643> 469 52<126.035 208.803>
VStem: 50 51<300.648 462.79>
LayerCount: 2
Fore
SplineSet
101 421 m 0
 101 391 101 351 101 322 c 0
 101 306 123 300 136 297 c 0
 143 294 151 289 151 283 c 0
 151 277 139 273 136 273 c 0
 110 273 104 273 81 273 c 0
 58 273 48 273 22 273 c 0
 19 273 7 277 7 283 c 0
 7 289 15 294 22 297 c 0
 35 300 49 303 50 319 c 4
 50 349 50 400 50 431 c 4
 50 453 42 470 20 475 c 8
 11.6338 476.901 11.6064 495.22 20 497 c 16
 53 504 74 520 92 530 c 0
 95 531 104 528 105 526 c 0
 105 522 104 506 103 487 c 0
 103 481 114 490 119 494 c 0
 140 511 158 521 185 521 c 0
 203 521 223 512 223 496 c 0
 223 484 209 458 196 458 c 0
 181 458 163 469 150 469 c 0
 129 469 101 461 101 421 c 0
EndSplineSet
Validated: 1
EndChar

StartChar: uni02B7
Encoding: 695 695 613
Width: 454
VWidth: 0
Flags: W
HStem: 495 24<8.35742 52.2348 173.357 207.795 415.034 451.643>
LayerCount: 2
Fore
SplineSet
404 468 m 26
 315 271 l 2
 313 266 299 266 297 271 c 2
 236 418 l 2
 234 424 232 426 228 417 c 2
 164 271 l 2
 162 266 149 266 147 271 c 2
 57 478 l 2
 53.9639 484.984 36 491 23 495 c 0
 16 497 8 503 8 509 c 0
 8 515 20 519 23 519 c 0
 49 519 46 519 69 519 c 0
 92 519 100 519 126 519 c 0
 129 519 141 515 141 509 c 0
 141 503 133 497 126 495 c 0
 113 491 113.639 478.079 118 468 c 18
 163 364 l 2
 166 356 169 356 173 365 c 2
 207 448 l 2
 221 480 205 490 188 495 c 0
 181 496 173 503 173 509 c 0
 173 515 185 519 188 519 c 0
 198 519 208 519 231 519 c 4
 253 519 278 519 290 519 c 0
 293 519 305 515 305 509 c 0
 305 503 297 497 290 495 c 0
 277 491 264.703 480.448 270 468 c 2
 310 374 l 2
 318 356 324 354 332 372 c 2
 371 458 l 2
 384 485 372 491 359 495 c 0
 352 497 344 503 344 509 c 0
 344 515 356 519 359 519 c 0
 377 519 380 519 403 519 c 0
 426 519 424 519 437 519 c 0
 440 519 452 515 452 509 c 0
 452 503 444 497 437 495 c 0
 424 491 410.847 483.154 404 468 c 26
EndSplineSet
Validated: 33
EndChar

StartChar: uni02B8
Encoding: 696 696 614
Width: 304
VWidth: 0
Flags: W
HStem: 110 46<10.0579 78.8375> 500 24<8.60253 45.2336 110.558 135.4 182.663 206.701 255.482 291.397>
VStem: 8 284
LayerCount: 2
Fore
SplineSet
23 500 m 0
 15 502 8 509 8 515 c 0
 8 521 19 524 23 524 c 0
 48 524 45 524 68 524 c 0
 91 524 96 524 122 524 c 0
 125 524 136 521 136 515 c 0
 136 509 129 502 122 500 c 0
 109 496 107 480 112 468 c 18
 155 366 l 2
 159 357 162 358 165 366 c 2
 204 458 l 10
 210 473 210 496 197 500 c 0
 190 502 182 509 182 515 c 0
 182 521 194 524 197 524 c 0
 207 524 218 524 241 524 c 0
 264 524 265 524 277 524 c 0
 281 524 292 521 292 515 c 0
 292 509 285 502 277 500 c 0
 264 496 247 485 239 468 c 26
 151 273 l 2
 148 268 115 192 88 135 c 0
 80 118 65 110 46 110 c 8
 30 110 10 118 10 132 c 8
 10 143 14 155 26 156 c 0
 43 156 57 139 66 153 c 0
 79 174 101 225 120 271 c 0
 123 279 126 301 122 310 c 2
 52 478 l 10
 46 491 36 496 23 500 c 0
EndSplineSet
Validated: 33
EndChar

StartChar: uni02E1
Encoding: 737 737 619
Width: 149
VWidth: 0
Flags: W
HStem: 273 25<4.52148 44.4531 103.547 143.479> 652 22<11.1941 33.0131>
VStem: 47 54<299.79 648.847>
LayerCount: 2
Fore
SplineSet
101 320 m 0
 101 304 116 302 129 298 c 0
 136 296 144 289 144 283 c 0
 144 277 132 273 129 273 c 0
 104 273 97 273 74 273 c 0
 51 273 44 273 19 273 c 0
 16 273 4 277 4 283 c 0
 4 289 12 296 19 298 c 0
 32 302 47 304 47 320 c 0
 47 457 47 494 47 608 c 0
 47 617 38 648 17 652 c 8
 8.57129 653.605 8.60645 672.22 17 674 c 16
 50 681 71 691 92 698 c 0
 95 699 105 696 105 694 c 0
 105 687 101 666 101 612 c 0
 101 508 101 439 101 320 c 0
EndSplineSet
Validated: 1
EndChar

StartChar: uni02E2
Encoding: 738 738 620
Width: 203
VWidth: 0
Flags: W
HStem: 269 30<48.3601 121.984> 503 33<85.1516 147.019>
VStem: 13 27<310.035 331.438> 23 57<443.413 501.507> 128 61<302.614 364.801> 150 32<473.031 498.097>
LayerCount: 2
Fore
SplineSet
113 503 m 0xd4
 87 503 80 485 80 472 c 0
 80 456 114.352 433.545 132 417 c 0
 148 402 189 376 189 343 c 0
 189 301 155 269 80 269 c 0xd8
 67 269 25 282 21 290 c 0
 17 299 13 313 13 327 c 0
 13 333 39 335 40 328 c 0
 45 308 70 299 90 299 c 0
 120 299 128.419 319.009 128 329 c 4xe8
 127.162 348.982 108 365 87 380 c 0
 57 401 23 426 23 464 c 0
 23 507 62 537 116 536 c 0
 141.996 535.519 167 515 173 509 c 1
 181 500 182 487 182 470 c 0
 182 463 151.167 472.027 150 479 c 0
 146.534 499.712 121 503 113 503 c 0xd4
EndSplineSet
Validated: 33
EndChar

StartChar: uni02E3
Encoding: 739 739 621
Width: 266
VWidth: 0
Flags: W
HStem: 273 20<133.092 161.886 230.447 262.908> 499 25<14.4032 48.4166 203.916 257.79>
VStem: 2 261
LayerCount: 2
Fore
SplineSet
52 482 m 2
 48.8659 486.52 42 495 29 499 c 0
 22 501 14 507 14 514 c 0
 14 520 26 524 29 524 c 0
 54 524 48 524 80 524 c 0
 96 524 98 525 113 525 c 0
 116 525 128 519 128 513 c 0
 128 506 121.759 500.704 115 498 c 0
 110 496 113.019 484.275 116 479 c 2
 129 456 l 2
 138.033 440.019 140.427 442.421 146 450 c 2
 171 484 l 2
 172.615 486.196 175 498 171 499 c 0
 163.937 500.766 156 507 156 513 c 0
 156 519 168 524 171 524 c 0
 177 524 194 524 204 524 c 0
 227 524 234 524 243 524 c 0
 246 524 258 519 258 513 c 0
 258 507 250 502 243 500 c 0
 230 496 209.049 495.411 197 480 c 18
 154 425 l 2
 153 423 156 413 158 411 c 2
 221 314 l 2
 226.458 305.596 235 297 248 293 c 0
 255 291 263 289 263 282 c 0
 263 276 251 273 248 273 c 0
 223 273 227 273 195 273 c 0
 179 273 163 273 148 273 c 0
 145 273 133 276 133 282 c 0
 133 288 141 293 148 295 c 0
 161 299 168.029 304.382 160 317 c 2
 125 372 l 2
 123 375 118 367 117 365 c 2
 78 309 l 2
 75.1426 304.897 74 299 87 295 c 0
 94 293 102 288 102 282 c 0
 102 276 90 273 87 273 c 0
 80 273 70 273 60 273 c 0
 37 273 28 273 18 273 c 0
 6 273 2 275 2 281 c 0
 2 288 10.793 291.971 18 293 c 0
 32 295 50.4971 315.956 56 323 c 2
 104 387 l 2
 109.161 393.882 107 402 104 407 c 2
 52 482 l 2
EndSplineSet
Validated: 1
EndChar

StartChar: acutecomb
Encoding: 769 769 622
Width: 1000
Flags: W
HStem: 456 193
VStem: 14 157
AnchorPoint: "top_accent" 46 550 mark 0
LayerCount: 2
Fore
SplineSet
53 478 m 0
 45 469 31 456 23 456 c 0
 14 456 14 460 14 469 c 0
 14 484 76 598 95 631 c 0
 101 641 112 649 122 649 c 0
 147 649 171 642 171 626 c 0
 171 612 84 511 53 478 c 0
EndSplineSet
Validated: 1
Substitution2: "'case' Case-Sensitive Forms lookup 12 subtable" acute.cap
EndChar

StartChar: uni0308
Encoding: 776 776 623
Width: 0
Flags: W
HStem: 474 100<24.7018 103.298 201.702 280.298>
VStem: 14 100<484.702 563.298> 191 100<484.702 563.298>
AnchorPoint: "top_accent" 148 531 mark 0
AnchorPoint: "grk_top" 147 520 mark 0
LayerCount: 2
Fore
SplineSet
241 574 m 0
 266 574 291 549 291 524 c 0
 291 499 266 474 241 474 c 0
 216 474 191 499 191 524 c 0
 191 549 216 574 241 574 c 0
64 574 m 0
 89 574 114 549 114 524 c 0
 114 499 89 474 64 474 c 0
 39 474 14 499 14 524 c 0
 14 549 39 574 64 574 c 0
EndSplineSet
Validated: 1
EndChar

